SplineFontDB: 1.0
FontName: URWGothicL-BookObli
FullName: URW Gothic L Book Oblique
FamilyName: URW Gothic L
Weight: Book
Copyright: Copyright (URW)++,Copyright 1999 by (URW)++ Design & Development; Cyrillic glyphs added by Valek Filippov (C) 2001-2004
Version: 1.06
ItalicAngle: -10.5
UnderlinePosition: -96
UnderlineWidth: 58
Ascent: 800
Descent: 200
NeedsXUIDChange: 1
UniqueID: 4198053
FSType: 0
OS2WinAscent: 0
OS2WinAOffset: 1
OS2WinDescent: 0
OS2WinDOffset: 1
HheadAscent: 0
HheadAOffset: 1
HheadDescent: 0
HheadDOffset: 1
ScriptLang: 2
 1 latn 1 dflt 
 1 DFLT 1 dflt 
Encoding: adobestandard
UnicodeInterp: none
DisplaySize: -36
AntiAlias: 1
FitToEm: 1
WinInfo: 399 21 14
BeginPrivate: 7
BlueValues 23 [-20 0 547 567 739 759]
BlueScale 8 0.039625
StdHW 4 [68]
StdVW 4 [78]
StemSnapH 4 [68]
StemSnapV 2 []
ForceBold 5 false
EndPrivate
BeginChars: 767 660
StartChar: exclam
Encoding: 33 33 2
Width: 295
Flags: W
HStem: 0 21G<111 185> 719 20G<248 322>
DStem: 134 126 208 126 111 0 185 0 248 739 322 739 148 197 222 197
Fore
111 0 m 1
 134 126 l 1
 208 126 l 1
 185 0 l 1
 111 0 l 1
148 197 m 1
 248 739 l 1
 322 739 l 1
 222 197 l 1
 148 197 l 1
EndSplineSet
EndChar
StartChar: quotedbl
Encoding: 34 34 3
Width: 309
Flags: W
HStem: 719 20G<211 261 324 374>
DStem: 211 739 261 739 169 513 219 513 324 739 374 739 282 513 332 513
Fore
219 513 m 1
 169 513 l 1
 211 739 l 1
 261 739 l 1
 219 513 l 1
332 513 m 1
 282 513 l 1
 324 739 l 1
 374 739 l 1
 332 513 l 1
EndSplineSet
EndChar
StartChar: numbersign
Encoding: 35 35 4
Width: 554
Flags: W
HStem: 0 21G<79 145 275 341> 237 60<61 168 256 362 450 554> 237 276<139 362 336 554> 453 60<138 249 336 441 529 629> 719 20G<356 420 546 612>
DStem: 168 237 233 237 79 0 145 0 249 453 314 453 190 297 256 297 356 739 420 739 271 513 336 513 362 237 428 237 275 0 341 0 441 453 507 453 384 297 450 297 546 739 612 739 463 513 529 513
Fore
463 513 m 1xa8
 546 739 l 1
 612 739 l 1
 529 513 l 1xa8
 640 513 l 1
 629 453 l 1
 507 453 l 1
 450 297 l 1
 565 297 l 1
 554 237 l 1xd8
 428 237 l 1xa8
 341 0 l 1
 275 0 l 1
 362 237 l 1xc8
 233 237 l 1xa8
 145 0 l 1
 79 0 l 1
 168 237 l 1xc8
 51 237 l 1xa8
 62 297 l 1
 190 297 l 1
 249 453 l 1
 128 453 l 1xd8
 139 513 l 1
 271 513 l 1
 356 739 l 1
 420 739 l 1
 336 513 l 1
 463 513 l 1xa8
441 453 m 1xd8
 314 453 l 1
 256 297 l 1
 384 297 l 1
 441 453 l 1xd8
EndSplineSet
EndChar
StartChar: dollar
Encoding: 36 36 5
Width: 554
Flags: W
HStem: -56 146<274.298 300> 547 21G<503 573> 665 145<394 422>
VStem: 112 72<178 196> 197 72<503 521> 447 77<247 266> 505 70<567 585>
DStem: 250 29 316 29 234 -56 300 -56 395 810 461 810 380 728 446 728
Fore
234 -56 m 1xfc
 250 29 l 1
 215 34 184 49 156 72 c 0
 130 94 112 138 112 178 c 0
 112 191 113 201 118 228 c 1
 186 228 l 1
 184 204 184 202 184 196 c 0
 184 133 227 90 291 90 c 0
 377 90 447 162 447 252 c 0xfc
 447 279 438 304 420 321 c 0
 403 338 383 348 335 363 c 0
 268 384 239 403 218 436 c 0
 204 458 197 485 197 513 c 0
 197 618 274 708 380 728 c 1
 395 810 l 1
 461 810 l 1
 446 728 l 1
 537 708 575 663 575 573 c 0
 575 567 574 558 573 547 c 1
 503 547 l 1
 505 570 505 571 505 579 c 0xfa
 505 629 465 665 409 665 c 0
 367 665 328 647 303 616 c 0
 284 593 269 549 269 516 c 0
 269 477 295 455 373 428 c 0
 441 405 468 390 491 363 c 0
 512 337 524 303 524 264 c 0
 524 200 496 138 446 90 c 0
 408 54 378 40 316 29 c 1
 300 -56 l 1
 234 -56 l 1xfc
EndSplineSet
EndChar
StartChar: percent
Encoding: 37 37 6
Width: 775
Flags: W
HStem: -13 68<573 586> 270 68<627 642> 397 68<260 278> 681 68<308 331>
VStem: 117 68<540 554> 406 68<593 608> 428 68<130 148> 717 68<178 197>
DStem: 651 739 726 739 183 0 255 0
Fore
651 739 m 1xf9
 726 739 l 1
 255 0 l 1
 183 0 l 1
 651 739 l 1xf9
640 338 m 0
 723 338 785 277 785 195 c 0
 785 87 684 -13 575 -13 c 0
 490 -13 428 48 428 132 c 0xfb
 428 239 530 338 640 338 c 0
629 270 m 0
 559 270 496 209 496 142 c 0
 496 93 534 55 584 55 c 0
 655 55 717 116 717 185 c 0
 717 232 678 270 629 270 c 0
329 749 m 0
 412 749 474 687 474 606 c 0xfd
 474 498 373 397 265 397 c 0
 179 397 117 458 117 542 c 0
 117 587 138 637 173 677 c 0
 213 723 270 749 329 749 c 0
318 681 m 0
 247 681 185 621 185 552 c 0
 185 502 223 465 273 465 c 0
 344 465 406 526 406 595 c 0
 406 643 367 681 318 681 c 0
EndSplineSet
EndChar
StartChar: ampersand
Encoding: 38 38 7
Width: 757
Flags: W
HStem: -13 68<284 310> 684 68<444 464>
VStem: 93 72<162 179> 253 77<558 574> 539 72<601 617>
DStem: 351 380 431 411 497 206 546 273 542 153 590 220 683 -13 743 38 692 481 774 481 546 273 590 220
Fore
692 481 m 1
 774 481 l 1
 590 220 l 1
 743 38 l 1
 683 -13 l 1
 542 153 l 1
 517 114 489 81 454 51 c 0
 405 7 353 -13 286 -13 c 0
 169 -13 93 60 93 173 c 0
 93 229 113 280 152 327 c 0
 171 349 198 373 220 387 c 1
 291 424 l 2
 295 426 301 429 308 433 c 1
 267 489 253 521 253 560 c 0
 253 662 351 752 462 752 c 0
 550 752 611 697 611 617 c 0
 611 564 588 514 546 477 c 0
 518 452 496 440 431 411 c 1
 546 273 l 1
 692 481 l 1
497 206 m 1
 351 380 l 1
 215 318 165 264 165 177 c 0
 165 106 220 55 296 55 c 0
 349 55 387 75 437 130 c 0
 464 159 481 180 497 206 c 1
387 464 m 1
 450 490 465 497 488 514 c 0
 521 537 539 569 539 603 c 0
 539 653 506 684 451 684 c 0
 416 684 384 670 360 643 c 0
 343 624 330 593 330 572 c 0
 330 544 342 520 378 475 c 0
 380 473 383 469 387 464 c 1
EndSplineSet
EndChar
StartChar: quoteright
Encoding: 39 8217 8
Width: 351
Flags: W
HStem: 547 21G<192 266> 719 20G<316 390>
DStem: 316 739 390 739 192 547 266 547
Fore
192 547 m 1
 316 739 l 1
 390 739 l 1
 266 547 l 1
 192 547 l 1
EndSplineSet
KernsSLIF: 121 -24 1 0 119 -22 1 0 118 -24 1 0 116 -37 1 0 115 -30 1 0 114 -33 1 0 46 -83 1 0 111 -59 1 0 100 -60 1 0 44 -104 1 0 262 -108 1 0 256 -108 1 0 257 -108 1 0 225 -186 1 0 65 -108 1 0
EndChar
StartChar: parenleft
Encoding: 40 40 9
Width: 369
Flags: W
VStem: 106 77<210 244>
Fore
472 739 m 1
 460 676 l 1
 370 622 329 585 279 513 c 0
 216 421 183 325 183 232 c 0
 183 106 233 3 324 -60 c 1
 312 -125 l 1
 257 -103 226 -80 193 -38 c 0
 138 32 106 127 106 221 c 0
 106 360 167 498 281 617 c 0
 342 680 397 715 472 739 c 1
EndSplineSet
EndChar
StartChar: parenright
Encoding: 41 41 10
Width: 369
Flags: W
VStem: 300 77<370 404>
Fore
10 -125 m 1
 22 -61 l 1
 95 -22 149 26 203 102 c 0
 268 193 300 287 300 382 c 0
 300 450 281 521 249 579 c 0
 229 614 206 638 158 674 c 1
 170 739 l 1
 222 720 253 698 289 652 c 0
 346 580 377 489 377 392 c 0
 377 256 312 110 201 -3 c 0
 139 -66 93 -95 10 -125 c 1
EndSplineSet
EndChar
StartChar: asterisk
Encoding: 42 42 11
Width: 425
Flags: W
DStem: 247 734 302 752 287 632 336 652 278 585 317 550 203 506 247 470 317 550 366 568 352 449 405 468 406 734 447 696 336 652 374 615
Fore
406 734 m 1
 447 696 l 1
 374 615 l 1
 477 599 l 1
 468 547 l 1
 366 568 l 1
 405 468 l 1
 352 449 l 1
 317 550 l 1
 247 470 l 1
 203 506 l 1
 278 585 l 1
 172 602 l 1
 182 654 l 1
 287 632 l 1
 247 734 l 1
 302 752 l 1
 336 652 l 1
 406 734 l 1
EndSplineSet
EndChar
StartChar: plus
Encoding: 43 43 12
Width: 606
Flags: W
HStem: 267 74<113 315 403 604> 530 20G<367 442>
DStem: 315 267 389 267 276 55 350 55 367 550 442 550 328 341 403 341
Fore
328 341 m 1
 367 550 l 1
 442 550 l 1
 403 341 l 1
 618 341 l 1
 604 267 l 1
 389 267 l 1
 350 55 l 1
 276 55 l 1
 315 267 l 1
 100 267 l 1
 114 341 l 1
 328 341 l 1
EndSplineSet
EndChar
StartChar: comma
Encoding: 44 44 13
Width: 277
Flags: W
DStem: 203 126 276 126 79 -67 152 -67
Fore
79 -67 m 1
 203 126 l 1
 276 126 l 1
 152 -67 l 1
 79 -67 l 1
EndSplineSet
KernsSLIF: 39 -21 1 0 186 -19 1 0 49 -67 1 0
EndChar
StartChar: hyphen
Encoding: 45 45 14
Width: 332
Flags: W
HStem: 233 63<91 352>
Fore
92 296 m 1
 364 296 l 1
 352 233 l 1
 80 233 l 1
 92 296 l 1
EndSplineSet
KernsSLIF: 89 -43 1 0 87 5 1 0 86 -24 1 0 84 -11 1 0 262 14 1 0 256 14 1 0 257 14 1 0 225 -21 1 0 65 14 1 0
EndChar
StartChar: period
Encoding: 46 46 15
Width: 277
Flags: W
HStem: 0 21G<101 175>
DStem: 124 126 198 126 101 0 175 0
Fore
101 0 m 1
 124 126 l 1
 198 126 l 1
 175 0 l 1
 101 0 l 1
EndSplineSet
KernsSLIF: 39 -60 1 0 186 -58 1 0 49 -103 1 0
EndChar
StartChar: slash
Encoding: 47 47 16
Width: 437
Flags: W
HStem: 719 20G<465 534>
DStem: 465 739 534 739 16 -128 83 -128
Fore
16 -128 m 1
 465 739 l 1
 534 739 l 1
 83 -128 l 1
 16 -128 l 1
EndSplineSet
EndChar
StartChar: zero
Encoding: 48 48 17
Width: 554
Flags: W
HStem: -13 68<275 296> 684 68<402 420>
VStem: 71 77<173 196> 544 77<550 575>
DStem: 120 479 189 462 81 269 156 281 535 462 612 479 502 281 573 269
Fore
81 269 m 1
 120 479 l 2
 136 566 163 624 208 669 c 0
 260 722 336 752 418 752 c 0
 482 752 536 732 572 695 c 0
 602 665 621 617 621 575 c 0
 621 554 616 501 612 479 c 2
 573 269 l 2
 558 187 530 121 493 79 c 0
 441 19 366 -13 277 -13 c 0
 150 -13 71 59 71 175 c 0
 71 202 75 241 79 260 c 2
 81 269 l 1
502 281 m 1
 535 462 l 1
 541 497 544 523 544 550 c 0
 544 590 536 615 514 639 c 0
 488 668 448 684 404 684 c 0
 341 684 277 653 243 607 c 0
 221 577 200 521 189 462 c 1
 156 281 l 1
 153 267 148 204 148 189 c 0
 148 109 205 55 290 55 c 0
 356 55 414 84 450 135 c 0
 472 166 490 218 502 281 c 1
EndSplineSet
KernsSLIF: 55 -37 1 0 49 -70 1 0 52 16 1 0
EndChar
StartChar: one
Encoding: 49 49 18
Width: 554
Flags: W
HStem: 0 21G<281 354> 672 67<291 406>
DStem: 406 672 491 739 281 0 354 0
Fore
281 0 m 1
 406 672 l 1
 280 672 l 1
 292 739 l 1
 491 739 l 1
 354 0 l 1
 281 0 l 1
EndSplineSet
KernsSLIF: 48 -35 1 0 50 -59 1 0 51 -60 1 0 54 -59 1 0 55 -93 1 0 46 -62 1 0 49 -138 1 0 57 -60 1 0 52 -66 1 0 53 -50 1 0 56 -52 1 0 44 -79 1 0
EndChar
StartChar: two
Encoding: 50 50 19
Width: 554
Flags: W
HStem: 0 67<145 502> 684 68<396 418>
VStem: 530 77<558 577>
DStem: 351 317 425 294 45 67 145 67
Fore
33 0 m 1
 45 67 l 1
 351 317 l 2
 493 433 530 483 530 560 c 0
 530 635 478 684 398 684 c 0
 297 684 224 614 205 500 c 1
 132 500 l 1
 155 650 268 752 411 752 c 0
 529 752 607 680 607 572 c 0
 607 473 563 406 425 294 c 2
 145 67 l 1
 514 67 l 1
 502 0 l 1
 33 0 l 1
EndSplineSet
KernsSLIF: 55 -43 1 0 49 -88 1 0 52 -25 1 0
EndChar
StartChar: three
Encoding: 51 51 20
Width: 554
Flags: W
HStem: -13 68<258 292> 388 64<290 341> 555 21G<184 257> 684 68<390 411>
VStem: 71 75<171 216> 471 77<250 270> 487 77<591 606>
Fore
257 555 m 1xfa
 184 555 l 1
 195 608 210 640 238 672 c 0
 282 723 344 752 409 752 c 0
 502 752 564 692 564 604 c 0xfa
 564 563 548 514 524 483 c 0
 507 460 489 444 456 423 c 1
 518 390 548 340 548 270 c 0
 548 120 417 -13 270 -13 c 0
 204 -13 141 14 108 58 c 0
 87 86 71 134 71 171 c 0
 71 177 72 193 73 217 c 1
 74 231 l 1
 147 231 l 1
 146 223 146 218 146 216 c 0
 146 166 149 146 158 127 c 0
 180 80 222 55 277 55 c 0
 380 55 471 147 471 252 c 0xfc
 471 319 433 370 373 382 c 0
 354 386 323 388 290 388 c 1
 302 454 l 1
 319 453 l 2
 329 452 337 452 341 452 c 0
 381 452 422 468 448 495 c 0
 470 517 487 561 487 593 c 0
 487 616 475 646 460 661 c 0
 444 676 422 684 394 684 c 0
 323 684 265 630 257 555 c 1xfa
EndSplineSet
KernsSLIF: 55 -58 1 0 49 -93 1 0 52 7 1 0
EndChar
StartChar: four
Encoding: 52 52 21
Width: 554
Flags: W
HStem: 0 21G<387 460> 135 67<135 412 497 553> 719 20G<510 597>
DStem: 412 135 485 135 387 0 460 0 505 637 597 739 424 202 497 202 510 739 505 637 49 202 135 202
Fore
387 0 m 1
 412 135 l 1
 37 135 l 1
 49 202 l 1
 510 739 l 1
 597 739 l 1
 497 202 l 1
 565 202 l 1
 553 135 l 1
 485 135 l 1
 460 0 l 1
 387 0 l 1
424 202 m 1
 505 637 l 1
 135 202 l 1
 424 202 l 1
EndSplineSet
KernsSLIF: 55 -40 1 0 49 -83 1 0 52 20 1 0
EndChar
StartChar: five
Encoding: 53 53 22
Width: 554
Flags: W
HStem: -13 68<266 291> 435 68<353 377> 672 67<268 591>
VStem: 67 72<204 232> 500 77<274 299>
DStem: 268 739 315 672 135 375 241 468
Fore
135 375 m 1
 268 739 l 1
 603 739 l 1
 591 672 l 1
 315 672 l 1
 241 468 l 1
 294 493 332 503 377 503 c 0
 495 503 577 419 577 297 c 0
 577 227 555 166 507 106 c 0
 446 28 366 -13 276 -13 c 0
 191 -13 122 28 87 101 c 0
 74 127 63 178 66 198 c 2
 67 205 l 1
 67 232 l 1
 139 232 l 1
 139 180 144 154 159 128 c 0
 185 81 230 55 283 55 c 0
 400 55 500 162 500 286 c 0
 500 374 441 435 356 435 c 0
 299 435 242 407 188 353 c 1
 135 375 l 1
EndSplineSet
KernsSLIF: 55 -36 1 0 49 -82 1 0 52 19 1 0
EndChar
StartChar: six
Encoding: 54 54 23
Width: 554
Flags: W
HStem: -13 68<273 299> 435 68<361 388> 719 20G<433 518>
VStem: 66 77<187 212> 502 77<274 301>
DStem: 433 739 518 739 200 467 297 482
Fore
433 739 m 1
 518 739 l 1
 297 482 l 1
 333 497 357 503 388 503 c 0
 500 503 579 419 579 299 c 0
 579 131 440 -13 277 -13 c 0
 153 -13 66 71 66 189 c 0
 66 235 77 283 98 326 c 0
 117 364 142 400 200 467 c 2
 433 739 l 1
361 435 m 0
 292 435 235 405 191 345 c 0
 156 299 143 260 143 204 c 0
 143 114 201 55 291 55 c 0
 356 55 418 90 457 148 c 0
 484 187 502 243 502 286 c 0
 502 375 446 435 361 435 c 0
EndSplineSet
KernsSLIF: 55 -69 1 0 49 -96 1 0 52 19 1 0
EndChar
StartChar: seven
Encoding: 55 55 24
Width: 554
Flags: W
HStem: 0 21G<108 186> 672 67<200 539>
DStem: 539 672 615 672 108 0 186 0
Fore
108 0 m 1
 539 672 l 1
 189 672 l 1
 201 739 l 1
 627 739 l 1
 615 672 l 1
 186 0 l 1
 108 0 l 1
EndSplineSet
KernsSLIF: 50 -32 1 0 51 -46 1 0 54 -64 1 0 55 -25 1 0 46 -118 1 0 49 -70 1 0 52 -84 1 0 53 -51 1 0 56 -47 1 0 44 -136 1 0 58 -81 1 0
EndChar
StartChar: eight
Encoding: 56 56 25
Width: 554
Flags: W
HStem: -13 68<277 303> 375 69<347 367> 684 68<397 419>
VStem: 78 77<174 196> 181 77<526 543> 481 75<242 267> 503 77<585 603>
Fore
243 413 m 1xfc
 216 433 210 439 202 451 c 0
 190 469 181 501 181 527 c 0
 181 575 205 633 240 672 c 0
 288 724 350 752 417 752 c 0
 514 752 580 691 580 603 c 0xfa
 580 560 564 509 540 474 c 0
 522 447 502 431 461 413 c 1
 526 379 556 334 556 267 c 0
 556 112 432 -13 279 -13 c 0
 156 -13 78 61 78 176 c 0
 78 275 142 367 243 413 c 1xfc
349 375 m 0
 289 375 237 351 200 306 c 0
 175 275 155 220 155 181 c 0
 155 108 212 55 289 55 c 0
 395 55 481 143 481 250 c 0xfc
 481 325 428 375 349 375 c 0
403 684 m 0
 324 684 258 619 258 541 c 0
 258 486 303 444 362 444 c 0
 406 444 448 466 473 502 c 0
 490 526 503 563 503 587 c 0xfa
 503 646 464 684 403 684 c 0
EndSplineSet
KernsSLIF: 55 -50 1 0 49 -87 1 0 52 11 1 0
EndChar
StartChar: nine
Encoding: 57 57 26
Width: 554
Flags: W
HStem: 0 21G<172 257> 236 68<303 329> 684 68<392 417>
VStem: 112 77<434 457> 548 77<527 552>
DStem: 394 257 490 272 172 0 257 0
Fore
257 0 m 1
 172 0 l 1
 394 257 l 1
 358 242 334 236 303 236 c 0
 193 236 112 320 112 435 c 0
 112 606 250 752 412 752 c 0
 538 752 625 670 625 550 c 0
 625 503 614 456 593 413 c 0
 573 372 557 351 490 272 c 2
 257 0 l 1
400 684 m 0
 333 684 272 650 234 591 c 0
 205 547 189 500 189 455 c 0
 189 364 244 304 329 304 c 0
 447 304 548 409 548 532 c 0
 548 623 488 684 400 684 c 0
EndSplineSet
KernsSLIF: 55 -38 1 0 49 -84 1 0 52 -37 1 0
EndChar
StartChar: colon
Encoding: 58 58 27
Width: 277
Flags: W
HStem: 0 21G<101 175>
DStem: 124 126 198 126 101 0 175 0 196 507 270 507 173 381 247 381
Fore
173 381 m 1
 196 507 l 1
 270 507 l 1
 247 381 l 1
 173 381 l 1
101 0 m 1
 124 126 l 1
 198 126 l 1
 175 0 l 1
 101 0 l 1
EndSplineSet
EndChar
StartChar: semicolon
Encoding: 59 59 28
Width: 277
Flags: W
DStem: 154 126 226 126 29 -67 102 -67 224 507 298 507 201 381 275 381
Fore
29 -67 m 1
 154 126 l 1
 226 126 l 1
 102 -67 l 1
 29 -67 l 1
201 381 m 1
 224 507 l 1
 298 507 l 1
 275 381 l 1
 201 381 l 1
EndSplineSet
EndChar
StartChar: less
Encoding: 60 60 29
Width: 606
Flags: W
DStem: 99 268 228 296 565 37 580 113 663 565 648 481 111 333 228 296
Fore
663 565 m 1
 648 481 l 1
 228 296 l 1
 580 113 l 1
 565 37 l 1
 99 268 l 1
 111 333 l 1
 663 565 l 1
EndSplineSet
EndChar
StartChar: equal
Encoding: 61 61 30
Width: 606
Flags: W
HStem: 164 74<95 586> 362 74<131 622>
Fore
636 436 m 1
 622 362 l 1
 119 362 l 1
 132 436 l 1
 636 436 l 1
599 238 m 1
 586 164 l 1
 82 164 l 1
 96 238 l 1
 599 238 l 1
EndSplineSet
EndChar
StartChar: greater
Encoding: 62 62 31
Width: 606
Flags: W
DStem: 138 489 153 565 490 306 619 334 490 306 607 269 70 121 55 37
Fore
55 37 m 1
 70 121 l 1
 490 306 l 1
 138 489 l 1
 153 565 l 1
 619 334 l 1
 607 269 l 1
 55 37 l 1
EndSplineSet
EndChar
StartChar: question
Encoding: 63 63 32
Width: 591
Flags: W
HStem: 0 21G<261 335> 684 68<414 440>
VStem: 550 77<559 579>
DStem: 284 126 358 126 261 0 335 0
Fore
261 0 m 1
 284 126 l 1
 358 126 l 1
 335 0 l 1
 261 0 l 1
229 508 m 1
 159 508 l 1
 174 575 190 611 222 650 c 0
 274 714 354 752 438 752 c 0
 552 752 627 683 627 577 c 0
 627 528 614 486 586 447 c 0
 564 416 557 409 501 365 c 0
 413 294 379 250 369 193 c 1
 299 193 l 1
 305 262 351 329 438 397 c 0
 495 443 508 455 523 478 c 0
 541 504 550 534 550 567 c 0
 550 637 499 684 424 684 c 0
 365 684 308 655 271 608 c 1
 253 583 243 560 229 508 c 1
EndSplineSet
EndChar
StartChar: at
Encoding: 64 64 33
Width: 867
Flags: W
HStem: -13 52<436 470> 139 52<592 615> 144 58<384 407> 700 52<568 600>
VStem: 133 53<290 326> 271 72<256 276> 830 53<466 500>
DStem: 702 574 763 574 676 524 618 296
Fore
763 574 m 1xbe
 618 296 l 1
 585 227 584 226 584 211 c 0
 584 200 598 191 615 191 c 0
 652 191 716 235 762 294 c 0
 804 348 830 419 830 482 c 0
 830 610 728 700 582 700 c 0
 378 700 186 510 186 307 c 0
 186 151 301 39 461 39 c 0
 553 39 636 72 713 138 c 1
 747 105 l 1
 660 26 560 -13 443 -13 c 0
 264 -13 133 118 133 298 c 0
 133 538 352 752 598 752 c 0
 762 752 883 641 883 489 c 0
 883 400 844 310 773 236 c 0
 713 173 649 139 592 139 c 0xde
 544 139 522 155 513 196 c 1
 465 158 431 144 384 144 c 0
 315 144 271 188 271 257 c 0
 271 321 308 405 364 473 c 0
 430 551 503 593 574 593 c 0
 632 593 662 572 676 524 c 1
 702 574 l 1
 763 574 l 1xbe
567 541 m 0
 517 544 451 498 403 428 c 0
 367 376 343 312 343 271 c 0
 343 229 368 202 407 202 c 0xbe
 460 202 505 237 562 324 c 0
 603 387 628 446 628 482 c 0
 628 517 606 539 567 541 c 0
EndSplineSet
EndChar
StartChar: A
Encoding: 65 65 34
Width: 740
Flags: W
HStem: 0 21G<11 89 648 729> 249 67<284 587> 719 20G<465 548>
DStem: 465 739 491 655 11 0 284 316 465 739 243 249 11 0 89 0 491 655 548 739 571 316 729 0 587 249 548 739 648 0 729 0
Fore
11 0 m 1
 465 739 l 1
 548 739 l 1
 729 0 l 1
 648 0 l 1
 587 249 l 1
 243 249 l 1
 89 0 l 1
 11 0 l 1
284 316 m 1
 571 316 l 1
 491 655 l 1
 284 316 l 1
EndSplineSet
KernsSLIF: 121 -39 0 0 119 -36 0 0 118 -42 0 0 117 -15 0 0 116 -31 0 0 39 -95 0 0 186 -93 0 0 113 -21 0 0 46 10 0 0 111 -21 0 0 45 8 0 0 172 -24 0 0 171 -24 0 0 103 -23 0 0 101 -22 0 0 100 -22 0 0 44 -8 0 0 332 -23 0 0 99 -22 0 0 97 -22 0 0 89 -80 0 0 87 -50 0 0 86 -75 0 0 300 -32 0 0 298 -32 0 0 301 -32 0 0 299 -32 0 0 85 -32 0 0 84 -56 0 0 81 -39 0 0 286 -39 0 0 79 -39 0 0 71 -39 0 0 264 -38 0 0 67 -38 0 0
EndChar
StartChar: B
Encoding: 66 66 35
Width: 574
Flags: W
HStem: 0 67<162 304> 354 67<228 349> 672 67<213 397>
VStem: 511 77<239 260> 530 77<575 595>
DStem: 213 739 275 672 76 0 228 421 213 739 216 354 76 0 162 67
Fore
76 0 m 1xf0
 213 739 l 1
 386 739 l 2
 537 739 607 693 607 595 c 0xe8
 607 553 593 501 572 464 c 0
 552 429 531 412 487 394 c 1
 562 358 588 323 588 260 c 0
 588 184 555 109 503 64 c 0
 450 17 383 0 259 0 c 2
 76 0 l 1xf0
162 67 m 1
 263 67 l 2
 363 67 424 82 460 116 c 0
 492 147 511 194 511 242 c 0xf0
 511 285 494 316 461 334 c 0
 435 348 388 354 304 354 c 2
 216 354 l 1
 162 67 l 1
228 421 m 1
 318 421 l 2
 409 421 452 432 485 462 c 0
 512 487 530 533 530 578 c 0xe8
 530 610 516 640 495 652 c 0
 473 665 426 672 365 672 c 2
 275 672 l 1
 228 421 l 1
EndSplineSet
KernsSLIF: 89 -31 0 0 87 -2 0 0 86 -24 0 0 233 7 0 0 288 3 0 0 286 3 0 0 289 3 0 0 287 3 0 0 234 5 0 0 79 3 0 0 261 -14 0 0 262 -14 0 0 256 -14 0 0 259 -14 0 0 257 -14 0 0 225 -26 0 0 65 -14 0 0
EndChar
StartChar: C
Encoding: 67 67 36
Width: 813
Flags: W
HStem: -13 68<425 459> 547 21G<787 869> 684 68<553 571>
VStem: 106 77<288 312>
Fore
725 194 m 1
 807 194 l 1
 718 63 581 -13 432 -13 c 0
 239 -13 106 111 106 290 c 0
 106 540 319 752 569 752 c 0
 721 752 843 669 869 547 c 1
 787 547 l 1
 767 592 751 613 723 635 c 0
 680 667 623 684 559 684 c 0
 443 684 337 630 263 534 c 0
 210 465 183 388 183 310 c 0
 183 162 293 55 444 55 c 0
 548 55 639 100 725 194 c 1
EndSplineSet
KernsSLIF: 286 -20 0 0 287 -20 0 0 79 -20 0 0 75 -4 0 0 72 -4 0 0 262 -27 0 0 256 -27 0 0 257 -27 0 0 225 -49 0 0 65 -27 0 0
EndChar
StartChar: D
Encoding: 68 68 37
Width: 744
Flags: W
HStem: 0 67<162 301> 672 67<213 413>
VStem: 697 77<431 450>
DStem: 213 739 275 672 76 0 162 67
Fore
76 0 m 1
 213 739 l 1
 387 739 l 2
 520 739 597 722 656 681 c 0
 733 628 774 547 774 448 c 0
 774 312 715 187 609 102 c 0
 519 30 422 0 275 0 c 2
 76 0 l 1
162 67 m 1
 265 67 l 2
 420 67 506 94 582 165 c 0
 653 231 697 336 697 435 c 0
 697 517 664 584 604 625 c 0
 556 657 486 672 378 672 c 2
 275 672 l 1
 162 67 l 1
EndSplineSet
KernsSLIF: 89 -46 0 0 88 -33 0 0 87 -15 0 0 86 -38 0 0 84 -44 0 0 74 -11 0 0 261 -42 0 0 262 -42 0 0 258 -42 0 0 256 -42 0 0 259 -42 0 0 257 -42 0 0 65 -42 0 0
EndChar
StartChar: E
Encoding: 69 69 38
Width: 536
Flags: W
HStem: 0 67<162 480> 340 67<225 532> 672 67<213 605>
DStem: 213 739 275 672 76 0 225 407 213 739 213 340 76 0 162 67
Fore
76 0 m 1
 213 739 l 1
 617 739 l 1
 605 672 l 1
 275 672 l 1
 225 407 l 1
 544 407 l 1
 532 340 l 1
 213 340 l 1
 162 67 l 1
 492 67 l 1
 480 0 l 1
 76 0 l 1
EndSplineSet
EndChar
StartChar: F
Encoding: 70 70 39
Width: 485
Flags: W
HStem: 0 21G<76 150> 338 67<225 503> 672 67<213 576>
DStem: 213 739 275 672 76 0 225 405 213 739 213 338 76 0 150 0
Fore
76 0 m 1
 213 739 l 1
 588 739 l 1
 576 672 l 1
 275 672 l 1
 225 405 l 1
 515 405 l 1
 503 338 l 1
 213 338 l 1
 150 0 l 1
 76 0 l 1
EndSplineSet
KernsSLIF: 117 -15 0 0 114 -15 0 0 46 -83 0 0 249 -11 0 0 250 -8 0 0 351 -8 0 0 352 -8 0 0 111 -8 0 0 106 -11 0 0 105 -10 0 0 45 16 0 0 335 -8 0 0 101 -8 0 0 44 -101 0 0 328 -8 0 0 241 -8 0 0 322 -8 0 0 323 -8 0 0 97 -8 0 0 286 -6 0 0 79 -6 0 0 74 -60 0 0 261 -61 0 0 262 -61 0 0 258 -61 0 0 256 -61 0 0 259 -61 0 0 257 -61 0 0 65 -61 0 0
EndChar
StartChar: G
Encoding: 71 71 40
Width: 872
Flags: W
HStem: -13 68<442 476> 274 67<390 793> 684 68<554 588>
VStem: 107 77<290 324>
Fore
391 341 m 1
 894 341 l 1
 873 257 826 179 755 112 c 0
 666 30 562 -13 446 -13 c 0
 247 -13 107 116 107 300 c 0
 107 539 327 752 575 752 c 0
 736 752 859 669 887 542 c 1
 803 542 l 1
 772 629 683 684 572 684 c 0
 363 684 184 512 184 312 c 0
 184 239 205 182 249 136 c 0
 298 85 375 55 455 55 c 0
 595 55 729 142 793 274 c 1
 379 274 l 1
 391 341 l 1
EndSplineSet
KernsSLIF: 89 -53 0 0 87 -22 0 0 86 -45 0 0 84 -49 0 0 261 -46 0 0 262 -46 0 0 258 -46 0 0 256 -46 0 0 259 -46 0 0 257 -46 0 0 225 -69 0 0 65 -46 0 0
EndChar
StartChar: H
Encoding: 72 72 41
Width: 683
Flags: W
HStem: 0 21G<76 150 533 607> 347 67<227 597> 719 20G<213 287 670 744>
DStem: 213 739 287 739 76 0 227 414 213 739 214 347 76 0 150 0 597 347 744 739 533 0 607 0 670 739 744 739 610 414 607 0
Fore
76 0 m 1
 213 739 l 1
 287 739 l 1
 227 414 l 1
 610 414 l 1
 670 739 l 1
 744 739 l 1
 607 0 l 1
 533 0 l 1
 597 347 l 1
 214 347 l 1
 150 0 l 1
 76 0 l 1
EndSplineSet
EndChar
StartChar: I
Encoding: 73 73 42
Width: 226
Flags: W
HStem: 0 21G<76 150> 719 20G<213 287>
DStem: 213 739 287 739 76 0 150 0
Fore
76 0 m 1
 213 739 l 1
 287 739 l 1
 150 0 l 1
 76 0 l 1
EndSplineSet
EndChar
StartChar: J
Encoding: 74 74 43
Width: 482
Flags: W
HStem: -14 68<200 220> 719 20G<469 543>
DStem: 469 739 543 739 374 231 448 231
Fore
543 739 m 1
 448 231 l 2
 418 70 335 -14 207 -14 c 0
 150 -14 104 5 74 39 c 0
 51 66 41 98 41 146 c 0
 41 157 41 164 43 175 c 1
 116 175 l 1
 119 144 119 142 122 129 c 0
 132 80 165 54 218 54 c 0
 272 54 314 80 342 132 c 0
 359 162 364 180 374 231 c 1
 469 739 l 1
 543 739 l 1
EndSplineSet
KernsSLIF: 262 -32 0 0 256 -32 0 0 225 -44 0 0 65 -32 0 0
EndChar
StartChar: K
Encoding: 75 75 44
Width: 591
Flags: W
HStem: 0 21G<76 150 492 585> 719 20G<213 287 629 722>
DStem: 213 739 287 739 76 0 208 314 213 739 187 202 76 0 150 0 305 320 363 379 492 0 585 0 629 739 722 739 208 314 363 379 629 739 305 320 208 314 187 202
Fore
76 0 m 1
 213 739 l 1
 287 739 l 1
 208 314 l 1
 629 739 l 1
 722 739 l 1
 363 379 l 1
 585 0 l 1
 492 0 l 1
 305 320 l 1
 187 202 l 1
 150 0 l 1
 76 0 l 1
EndSplineSet
KernsSLIF: 121 -50 0 0 362 -41 0 0 117 -41 0 0 351 -49 0 0 352 -49 0 0 111 -49 0 0 45 -35 0 0 101 -50 0 0 328 -49 0 0 241 -49 0 0 322 -49 0 0 97 -49 0 0 84 32 0 0 83 -21 0 0 286 -41 0 0 287 -41 0 0 234 -40 0 0 79 -41 0 0 71 -41 0 0 67 -40 0 0
EndChar
StartChar: L
Encoding: 76 76 45
Width: 462
Flags: W
HStem: 0 67<162 456> 719 20G<213 287>
DStem: 213 739 287 739 76 0 162 67
Fore
76 0 m 1
 213 739 l 1
 287 739 l 1
 162 67 l 1
 468 67 l 1
 456 0 l 1
 76 0 l 1
EndSplineSet
KernsSLIF: 121 -66 0 0 362 -20 0 0 117 -20 0 0 39 -119 0 0 186 -117 0 0 45 -85 0 0 89 -93 0 0 87 -66 0 0 86 -108 0 0 298 -33 0 0 85 -33 0 0 84 -52 0 0 290 -56 0 0 288 -56 0 0 286 -56 0 0 289 -56 0 0 287 -56 0 0 79 -56 0 0 71 -56 0 0 264 -56 0 0 67 -53 0 0 262 28 0 0 256 28 0 0 257 28 0 0 225 27 0 0 65 28 0 0
EndChar
StartChar: M
Encoding: 77 77 46
Width: 919
Flags: W
HStem: 0 21G<76 150 427 491 769 843> 719 20G<213 328 865 980>
DStem: 213 739 272 658 76 0 150 0 272 658 328 739 427 0 480 110 865 739 891 658 480 110 491 0 891 658 980 739 769 0 843 0
Fore
76 0 m 1
 213 739 l 1
 328 739 l 1
 480 110 l 1
 865 739 l 1
 980 739 l 1
 843 0 l 1
 769 0 l 1
 891 658 l 1
 491 0 l 1
 427 0 l 1
 272 658 l 1
 150 0 l 1
 76 0 l 1
EndSplineSet
EndChar
StartChar: N
Encoding: 78 78 47
Width: 740
Flags: W
HStem: 0 21G<76 150 590 664> 719 20G<213 313 727 801>
DStem: 213 739 270 650 76 0 150 0 270 650 313 739 590 0 613 126 727 739 801 739 613 126 664 0
Fore
76 0 m 1
 213 739 l 1
 313 739 l 1
 613 126 l 1
 727 739 l 1
 801 739 l 1
 664 0 l 1
 590 0 l 1
 270 650 l 1
 150 0 l 1
 76 0 l 1
EndSplineSet
KernsSLIF: 362 8 0 0 117 8 0 0 249 1 0 0 44 -17 0 0 71 1 0 0 264 3 0 0 67 2 0 0 262 -7 0 0 256 -7 0 0 257 -7 0 0 225 -7 0 0 65 -7 0 0
EndChar
StartChar: O
Encoding: 79 79 48
Width: 869
Flags: W
HStem: -13 68<425 442> 684 68<553 580>
VStem: 106 77<300 324> 823 77<418 438>
Fore
578 752 m 0
 681 752 779 705 839 626 c 0
 880 571 900 511 900 436 c 0
 900 203 673 -13 428 -13 c 0
 325 -13 223 36 166 113 c 0
 128 164 106 234 106 302 c 0
 106 536 333 752 578 752 c 0
560 684 m 0
 369 684 183 503 183 316 c 0
 183 170 296 55 440 55 c 0
 638 55 823 232 823 422 c 0
 823 574 713 684 560 684 c 0
EndSplineSet
KernsSLIF: 89 -47 0 0 88 -34 0 0 87 -16 0 0 86 -39 0 0 84 -44 0 0 262 -43 0 0 256 -43 0 0 257 -43 0 0 225 -73 0 0 65 -43 0 0
EndChar
StartChar: P
Encoding: 80 80 49
Width: 592
Flags: W
HStem: 0 21G<76 150> 299 67<218 382> 672 67<213 429>
VStem: 588 77<556 574>
DStem: 213 739 275 672 76 0 218 366 213 739 205 299 76 0 150 0
Fore
76 0 m 1
 213 739 l 1
 418 739 l 2
 592 739 665 690 665 572 c 0
 665 496 636 420 587 371 c 0
 535 319 468 299 347 299 c 2
 205 299 l 1
 150 0 l 1
 76 0 l 1
218 366 m 1
 355 366 l 2
 451 366 501 381 537 419 c 0
 568 452 588 507 588 558 c 0
 588 599 571 632 541 650 c 0
 515 666 467 672 380 672 c 2
 275 672 l 1
 218 366 l 1
EndSplineSet
KernsSLIF: 46 -112 0 0 249 -27 0 0 250 -21 0 0 351 -22 0 0 352 -22 0 0 111 -22 0 0 45 -11 0 0 335 -21 0 0 101 -21 0 0 44 -129 0 0 328 -22 0 0 241 -22 0 0 322 -22 0 0 323 -22 0 0 97 -22 0 0 74 -73 0 0 262 -65 0 0 256 -65 0 0 257 -65 0 0 225 -112 0 0 65 -65 0 0
EndChar
StartChar: Q
Encoding: 81 81 50
Width: 871
Flags: W
HStem: -13 68<424 458 808 824> 237 68<322 352> 684 68<552 586>
VStem: 105 77<285 324> 836 77<418 452>
Fore
837 56 m 1
 824 -13 l 1
 752 -12 720 2 674 51 c 1
 610 11 523 -13 441 -13 c 0
 248 -13 105 120 105 299 c 0
 105 407 153 520 235 604 c 0
 331 701 450 752 581 752 c 0
 779 752 913 629 913 447 c 0
 913 310 844 173 733 93 c 1
 763 67 791 55 821 55 c 0
 825 55 830 55 837 56 c 1
201 216 m 1
 209 185 231 154 269 120 c 0
 316 77 379 55 451 55 c 0
 515 55 562 67 623 100 c 1
 535 197 448 237 324 237 c 0
 275 237 240 231 201 216 c 1
182 285 m 1
 181 279 l 1
 245 298 292 305 350 305 c 0
 450 305 533 277 608 217 c 0
 631 199 647 184 689 142 c 1
 733 181 761 212 782 245 c 0
 816 299 836 365 836 427 c 0
 836 581 729 684 570 684 c 0
 440 684 304 608 242 499 c 0
 217 457 198 404 184 343 c 0
 182 333 182 333 182 285 c 1
EndSplineSet
EndChar
StartChar: R
Encoding: 82 82 51
Width: 607
Flags: W
HStem: 0 21G<76 150 474 566> 672 67<213 412>
VStem: 596 77<527 561>
DStem: 213 739 275 672 76 0 150 0 287 335 410 276 474 0 566 0
Fore
410 276 m 1
 566 0 l 1
 474 0 l 1
 287 335 l 1
 396 335 443 341 487 359 c 0
 551 386 596 461 596 541 c 0
 596 635 535 672 379 672 c 2
 275 672 l 1
 150 0 l 1
 76 0 l 1
 213 739 l 1
 396 739 l 2
 493 739 550 729 594 704 c 0
 645 675 673 622 673 553 c 0
 673 401 566 289 410 276 c 1
EndSplineSet
KernsSLIF: 121 14 0 0 250 -11 0 0 351 -11 0 0 352 -11 0 0 111 -11 0 0 45 -3 0 0 335 -11 0 0 101 -11 0 0 328 -11 0 0 241 -11 0 0 322 -11 0 0 323 -11 0 0 97 -11 0 0 89 -23 0 0 87 -5 0 0 86 -20 0 0 298 1 0 0 85 1 0 0 84 -13 0 0 286 -4 0 0 287 -4 0 0 234 -3 0 0 79 -4 0 0 71 -4 0 0 264 -2 0 0 67 -3 0 0
EndChar
StartChar: S
Encoding: 83 83 52
Width: 498
Flags: W
HStem: -13 68<247 266> 552 21G<484 561> 684 68<375 393>
VStem: 56 81<165 207> 145 77<518 533> 441 77<226 248> 484 80<552 590>
Fore
58 207 m 1xfc
 137 207 l 1
 137 160 142 133 155 110 c 0
 174 76 216 55 264 55 c 0
 360 55 441 136 441 232 c 0xfc
 441 293 408 323 302 356 c 0
 228 379 198 395 176 422 c 0
 157 445 145 484 145 520 c 0
 145 570 169 627 207 671 c 0
 252 723 319 752 391 752 c 0
 495 752 564 688 564 590 c 0
 564 580 563 570 561 552 c 1
 484 552 l 1xfa
 484 600 480 620 466 640 c 0
 446 669 415 684 378 684 c 0
 330 684 286 663 258 627 c 0
 237 599 222 559 222 531 c 0
 222 511 232 481 244 469 c 0
 258 454 273 447 345 423 c 0
 429 394 464 376 486 347 c 0
 507 321 518 286 518 246 c 0
 518 188 493 127 450 78 c 0
 397 19 328 -13 249 -13 c 0
 135 -13 56 60 56 165 c 0
 56 177 57 191 58 207 c 1xfc
EndSplineSet
KernsSLIF: 116 13 0 0 89 -18 0 0 87 2 0 0 86 -16 0 0 84 -4 0 0 262 -11 0 0 256 -11 0 0 257 -11 0 0 225 -23 0 0 65 -11 0 0
EndChar
StartChar: T
Encoding: 84 84 53
Width: 426
Flags: W
HStem: 0 21G<176 250> 672 67<143 301 144 544>
DStem: 301 672 375 672 176 0 250 0
Fore
176 0 m 1
 301 672 l 1
 132 672 l 1
 144 739 l 1
 556 739 l 1
 544 672 l 1
 375 672 l 1
 250 0 l 1
 176 0 l 1
EndSplineSet
KernsSLIF: 121 -55 0 0 119 -54 0 0 118 -55 0 0 117 -42 0 0 59 -68 0 0 115 -33 0 0 114 -35 0 0 46 -50 0 0 249 -49 0 0 111 -50 0 0 106 1 0 0 105 3 0 0 45 -16 0 0 172 -44 0 0 171 -44 0 0 103 -49 0 0 101 -50 0 0 44 -67 0 0 58 -58 0 0 99 -51 0 0 241 -50 0 0 97 -50 0 0 89 32 0 0 87 28 0 0 86 28 0 0 83 -5 0 0 290 -44 0 0 233 -39 0 0 288 -44 0 0 286 -44 0 0 289 -44 0 0 287 -44 0 0 234 -43 0 0 79 -44 0 0 74 -54 0 0 71 -44 0 0 67 -43 0 0 261 -57 0 0 262 -57 0 0 258 -57 0 0 256 -57 0 0 259 -57 0 0 257 -57 0 0 225 -57 0 0 65 -57 0 0
EndChar
StartChar: U
Encoding: 85 85 54
Width: 655
Flags: W
HStem: -13 68<324 344> 719 20G<215 289 642 716>
VStem: 119 76<171 196>
DStem: 215 739 289 739 130 278 204 278 642 739 716 739 557 278 631 278
Fore
215 739 m 1
 289 739 l 1
 204 278 l 2
 198 246 195 215 195 188 c 0
 195 109 253 55 339 55 c 0
 397 55 456 82 494 125 c 0
 524 159 544 210 557 278 c 1
 642 739 l 1
 716 739 l 1
 631 278 l 1
 614 184 588 127 542 78 c 0
 487 20 409 -13 326 -13 c 0
 204 -13 119 63 119 173 c 0
 119 203 123 239 130 278 c 2
 215 739 l 1
EndSplineSet
KernsSLIF: 114 5 0 0 46 -20 0 0 112 6 0 0 110 6 0 0 109 6 0 0 44 -39 0 0 261 -34 0 0 262 -34 0 0 256 -34 0 0 259 -34 0 0 257 -34 0 0 225 -55 0 0 65 -34 0 0
EndChar
StartChar: V
Encoding: 86 86 55
Width: 702
Flags: W
HStem: 0 21G<314 386> 719 20G<147 228 749 829>
DStem: 147 739 228 739 314 0 368 92 749 739 829 739 368 92 386 0
Fore
314 0 m 1
 147 739 l 1
 228 739 l 1
 368 92 l 1
 749 739 l 1
 829 739 l 1
 386 0 l 1
 314 0 l 1
EndSplineSet
KernsSLIF: 121 -13 0 0 117 -38 0 0 59 -77 0 0 114 -36 0 0 46 -95 0 0 249 -62 0 0 111 -62 0 0 105 1 0 0 45 -30 0 0 172 -52 0 0 171 -52 0 0 103 -60 0 0 101 -62 0 0 44 -112 0 0 58 -66 0 0 241 -62 0 0 97 -62 0 0 84 30 0 0 83 -18 0 0 290 -43 0 0 233 -38 0 0 288 -43 0 0 286 -43 0 0 289 -43 0 0 287 -43 0 0 79 -43 0 0 71 -43 0 0 67 -41 0 0 261 -75 0 0 262 -75 0 0 258 -75 0 0 256 -75 0 0 259 -75 0 0 257 -75 0 0 225 -121 0 0 65 -75 0 0
EndChar
StartChar: W
Encoding: 87 87 56
Width: 960
Flags: W
HStem: 0 21G<221 317 643 738> 719 20G<147 223 582 652 1011 1087>
DStem: 147 739 223 739 221 0 286 96 582 739 591 606 286 96 317 0 591 606 652 739 643 0 710 96 1011 739 1087 739 710 96 738 0
Fore
221 0 m 1
 147 739 l 1
 223 739 l 1
 286 96 l 1
 582 739 l 1
 652 739 l 1
 710 96 l 1
 1011 739 l 1
 1087 739 l 1
 738 0 l 1
 643 0 l 1
 591 606 l 1
 317 0 l 1
 221 0 l 1
EndSplineSet
KernsSLIF: 121 -1 0 0 117 -23 0 0 59 -54 0 0 114 -18 0 0 46 -55 0 0 249 -33 0 0 111 -33 0 0 105 1 0 0 45 -1 0 0 172 -24 0 0 171 -24 0 0 103 -31 0 0 101 -33 0 0 44 -73 0 0 58 -44 0 0 241 -33 0 0 97 -33 0 0 84 30 0 0 83 -4 0 0 290 -20 0 0 233 -15 0 0 288 -20 0 0 286 -20 0 0 289 -20 0 0 287 -20 0 0 79 -20 0 0 71 -20 0 0 67 -18 0 0 261 -51 0 0 262 -51 0 0 258 -51 0 0 256 -51 0 0 259 -51 0 0 257 -51 0 0 225 -79 0 0 65 -51 0 0
EndChar
StartChar: X
Encoding: 88 88 57
Width: 609
Flags: W
HStem: 0 21G<8 95 513 601> 719 20G<159 246 637 723>
DStem: 159 739 246 739 329 378 387 443 329 378 364 316 8 0 95 0 364 316 419 378 513 0 601 0 637 739 723 739 387 443 419 378
Fore
8 0 m 1
 329 378 l 1
 159 739 l 1
 246 739 l 1
 387 443 l 1
 637 739 l 1
 723 739 l 1
 419 378 l 1
 601 0 l 1
 513 0 l 1
 364 316 l 1
 95 0 l 1
 8 0 l 1
EndSplineSet
KernsSLIF: 121 -43 0 0 117 -31 0 0 111 -39 0 0 45 -22 0 0 101 -40 0 0 97 -39 0 0 81 -33 0 0 286 -34 0 0 79 -34 0 0 67 -32 0 0
EndChar
StartChar: Y
Encoding: 89 89 58
Width: 592
Flags: W
HStem: 0 21G<258 332> 719 20G<139 221 646 727>
DStem: 139 739 221 739 304 247 354 325 304 247 378 247 258 0 332 0 646 739 727 739 354 325 378 247
Fore
258 0 m 1
 304 247 l 1
 139 739 l 1
 221 739 l 1
 354 325 l 1
 646 739 l 1
 727 739 l 1
 378 247 l 1
 332 0 l 1
 258 0 l 1
EndSplineSet
MinimumDistance: x2,6 
KernsSLIF: 118 -19 0 0 117 -44 0 0 59 -85 0 0 46 -92 0 0 112 -42 0 0 249 -70 0 0 111 -70 0 0 105 5 0 0 45 -50 0 0 172 -65 0 0 171 -65 0 0 103 -69 0 0 101 -70 0 0 44 -109 0 0 58 -75 0 0 241 -70 0 0 97 -70 0 0 84 34 0 0 83 -19 0 0 290 -50 0 0 233 -45 0 0 288 -50 0 0 286 -50 0 0 289 -50 0 0 287 -50 0 0 79 -50 0 0 71 -50 0 0 67 -48 0 0 261 -81 0 0 262 -81 0 0 258 -81 0 0 256 -81 0 0 259 -81 0 0 257 -81 0 0 225 -99 0 0 65 -81 0 0
EndChar
StartChar: Z
Encoding: 90 90 59
Width: 480
Flags: W
HStem: 0 67<113 474> 672 67<164 505>
DStem: 505 672 588 672 29 67 113 67
Fore
17 0 m 1
 29 67 l 1
 505 672 l 1
 153 672 l 1
 165 739 l 1
 600 739 l 1
 588 672 l 1
 113 67 l 1
 486 67 l 1
 474 0 l 1
 17 0 l 1
EndSplineSet
KernsSLIF: 121 -14 0 0 118 -13 0 0
EndChar
StartChar: bracketleft
Encoding: 91 91 60
Width: 351
Flags: W
VStem: 132 72<82 100>
DStem: 197 462 264 448 142 164 214 177
Fore
304 -50 m 1
 290 -125 l 1
 251 -113 228 -101 200 -77 c 0
 152 -34 132 14 132 86 c 0
 132 105 134 122 142 164 c 1
 197 462 l 1
 218 597 316 705 450 739 c 1
 436 664 l 1
 334 625 288 567 264 448 c 1
 214 177 l 1
 207 141 204 111 204 89 c 0
 204 53 221 11 246 -14 c 0
 261 -28 275 -37 304 -50 c 1
EndSplineSet
EndChar
StartChar: backslash
Encoding: 92 92 61
Width: 605
Flags: W
HStem: 0 21G<393 464> 719 20G<221 293>
DStem: 221 739 293 739 393 0 464 0
Fore
464 0 m 1
 393 0 l 1
 221 739 l 1
 293 739 l 1
 464 0 l 1
EndSplineSet
EndChar
StartChar: bracketright
Encoding: 93 93 62
Width: 351
Flags: W
VStem: 260 72<514 541>
DStem: 250 438 323 450 200 166 268 153
Fore
160 664 m 1
 174 739 l 1
 271 710 332 634 332 541 c 0
 332 513 329 482 323 450 c 2
 268 153 l 2
 242 12 151 -88 14 -125 c 1
 28 -50 l 1
 128 -14 180 52 200 166 c 1
 250 438 l 1
 257 474 260 504 260 526 c 0
 260 561 243 603 218 628 c 0
 203 643 188 652 160 664 c 1
EndSplineSet
EndChar
StartChar: asciicircum
Encoding: 94 94 63
Width: 606
Flags: W
HStem: 719 20G<398 482>
DStem: 398 739 426 657 51 180 134 180 426 657 482 739 540 180 621 180
Fore
621 180 m 1
 540 180 l 1
 426 657 l 1
 134 180 l 1
 51 180 l 1
 398 739 l 1
 482 739 l 1
 621 180 l 1
EndSplineSet
EndChar
StartChar: underscore
Encoding: 95 95 64
Width: 500
Flags: W
HStem: -125 58<-13 477>
Fore
-12 -67 m 1
 488 -67 l 1
 477 -125 l 1
 -23 -125 l 1
 -12 -67 l 1
EndSplineSet
EndChar
StartChar: quoteleft
Encoding: 96 8216 65
Width: 351
Flags: W
HStem: 547 21G<287 361> 719 20G<235 309>
DStem: 235 739 309 739 287 547 361 547
Fore
361 547 m 1
 287 547 l 1
 235 739 l 1
 309 739 l 1
 361 547 l 1
EndSplineSet
KernsSLIF: 89 1 1 0 87 12 1 0 86 4 1 0 84 -24 1 0 262 -95 1 0 256 -95 1 0 257 -95 1 0 225 -172 1 0 65 -95 1 0
EndChar
StartChar: a
Encoding: 97 97 66
Width: 683
Flags: W
HStem: -13 68<327 361> 492 68<423 441>
VStem: 88 77<214 237>
DStem: 564 96 721 547 546 0 620 0 647 547 721 547 629 450 620 0
Fore
721 547 m 1
 620 0 l 1
 546 0 l 1
 564 96 l 1
 483 14 426 -13 333 -13 c 0
 186 -13 88 79 88 216 c 0
 88 401 248 560 434 560 c 0
 486 560 532 548 568 524 c 0
 595 506 609 489 629 450 c 1
 647 547 l 1
 721 547 l 1
427 492 m 0
 288 492 165 371 165 235 c 0
 165 128 239 55 348 55 c 0
 481 55 601 181 601 319 c 0
 601 419 527 492 427 492 c 0
EndSplineSet
KernsSLIF: 39 -9 0 0 106 11 0 0
EndChar
StartChar: b
Encoding: 98 98 67
Width: 682
Flags: W
HStem: -13 68<346 368> 492 68<430 457> 719 20G<200 274>
VStem: 619 77<306 340>
DStem: 200 739 274 739 63 0 221 453 200 739 154 94 63 0 137 0
Fore
63 0 m 1
 200 739 l 1
 274 739 l 1
 221 453 l 1
 278 521 364 560 455 560 c 0
 595 560 696 464 696 330 c 0
 696 145 535 -13 348 -13 c 0
 259 -13 189 26 154 94 c 1
 137 0 l 1
 63 0 l 1
441 492 m 0
 383 492 326 471 279 434 c 0
 220 386 178 305 178 237 c 0
 178 191 190 155 217 120 c 0
 252 76 297 55 359 55 c 0
 497 55 619 178 619 318 c 0
 619 422 548 492 441 492 c 0
EndSplineSet
KernsSLIF: 121 -23 0 0 119 -19 0 0 118 -25 0 0
EndChar
StartChar: c
Encoding: 99 99 68
Width: 647
Flags: W
HStem: -13 68<327 361> 492 68<423 440>
VStem: 88 77<220 244>
Fore
556 161 m 1
 639 161 l 1
 595 101 571 76 533 49 c 0
 474 9 405 -13 339 -13 c 0
 264 -13 188 16 146 62 c 0
 110 101 88 162 88 222 c 0
 88 400 254 560 438 560 c 0
 563 560 655 492 679 381 c 1
 596 381 l 1
 569 451 507 492 426 492 c 0
 288 492 165 370 165 233 c 0
 165 129 241 55 348 55 c 0
 397 55 445 70 485 97 c 0
 503 109 519 124 556 161 c 1
EndSplineSet
KernsSLIF: 107 -8 0 0 104 -8 0 0
EndChar
StartChar: d
Encoding: 100 100 69
Width: 685
Flags: W
HStem: -13 68<333 361> 492 68<420 440> 719 20G<685 759>
VStem: 88 77<215 238>
DStem: 566 99 759 739 548 0 622 0 685 739 759 739 633 460 622 0
Fore
759 739 m 1
 622 0 l 1
 548 0 l 1
 566 99 l 1
 495 19 429 -13 335 -13 c 0
 192 -13 88 84 88 217 c 0
 88 400 251 560 438 560 c 0
 524 560 587 528 633 460 c 1
 685 739 l 1
 759 739 l 1
422 492 m 0
 288 492 165 370 165 236 c 0
 165 128 240 55 350 55 c 0
 482 55 606 182 606 318 c 0
 606 418 527 492 422 492 c 0
EndSplineSet
EndChar
StartChar: e
Encoding: 101 101 70
Width: 650
Flags: W
HStem: -13 68<323 345> 249 67<176 656> 492 68<407 430>
VStem: 88 71<210 228>
Fore
656 249 m 1
 161 249 l 1
 160 237 159 228 159 221 c 0
 159 128 238 55 338 55 c 0
 420 55 509 107 552 180 c 1
 629 180 l 1
 565 62 446 -13 325 -13 c 0
 189 -13 88 86 88 220 c 0
 88 400 248 560 428 560 c 0
 567 560 665 466 665 332 c 0
 665 308 663 289 656 249 c 1
176 316 m 1
 595 316 l 1
 590 424 521 492 415 492 c 0
 311 492 212 419 176 316 c 1
EndSplineSet
KernsSLIF: 121 -25 0 0 120 -22 0 0 119 -21 0 0 118 -26 0 0 116 -24 0 0 39 -31 0 0
EndChar
StartChar: f
Encoding: 102 102 71
Width: 314
Flags: W
HStem: 0 21G<101 175> 480 67<116 190 276 399> 672 67<409 435>
DStem: 190 480 264 480 101 0 175 0
Fore
101 0 m 1
 190 480 l 1
 105 480 l 1
 117 547 l 1
 202 547 l 1
 217 620 237 656 279 689 c 0
 320 721 375 739 430 739 c 2
 436 739 l 1
 447 739 l 1
 435 672 l 1
 424 672 l 1
 420 672 l 2
 335 672 292 635 276 547 c 1
 411 547 l 1
 399 480 l 1
 264 480 l 1
 175 0 l 1
 101 0 l 1
EndSplineSet
KernsSLIF: 116 30 0 0 115 9 0 0 39 -13 0 0 249 -28 0 0 250 -25 0 0 351 -25 0 0 352 -25 0 0 111 -25 0 0 108 4 0 0 106 2 0 0 105 4 0 0 102 28 0 0 335 -24 0 0 101 -24 0 0 328 -25 0 0 241 -24 0 0 322 -25 0 0 323 -25 0 0 97 -25 0 0
EndChar
StartChar: g
Encoding: 103 103 72
Width: 673
Flags: W
HStem: -215 68<293 317> -37 20G<60 132> -13 68<315 349> 492 68<411 428>
VStem: 87 77<216 238>
DStem: 637 547 711 547 619 450 627 98
Fore
711 547 m 1
 627 98 l 1
 605 -18 586 -65 537 -117 c 0
 478 -180 392 -215 295 -215 c 0
 207 -215 139 -184 96 -124 c 0
 78 -99 69 -71 60 -17 c 1
 132 -17 l 1
 135 -24 136 -27 137 -29 c 0
 156 -77 163 -88 185 -107 c 0
 216 -134 257 -147 309 -147 c 0
 393 -147 462 -112 504 -48 c 0
 526 -15 539 20 549 74 c 2
 556 111 l 1
 503 30 423 -13 325 -13 c 0
 186 -13 87 83 87 219 c 0
 87 294 122 381 176 443 c 0
 243 520 329 560 426 560 c 0
 479 560 525 547 561 520 c 0
 582 505 593 491 619 450 c 1
 637 547 l 1
 711 547 l 1
415 492 m 0
 338 492 271 458 220 392 c 0
 186 348 164 288 164 236 c 0
 164 196 177 150 198 119 c 0
 225 79 276 55 337 55 c 0
 419 55 492 95 542 169 c 0
 574 217 592 273 592 325 c 0
 592 421 517 492 415 492 c 0
EndSplineSet
KernsSLIF: 114 11 0 0 351 -1 0 0 352 -1 0 0 108 11 0 0 335 -1 0 0 101 -1 0 0 328 -1 0 0 241 -1 0 0 322 -1 0 0 97 -1 0 0
EndChar
StartChar: h
Encoding: 104 104 73
Width: 610
Flags: W
HStem: 0 21G<63 137 471 545> 492 68<391 412> 719 20G<200 274>
VStem: 532 77<351 378>
DStem: 200 739 274 739 63 0 225 476 200 739 193 300 63 0 137 0 525 294 599 294 471 0 545 0
Fore
63 0 m 1
 200 739 l 1
 274 739 l 1
 225 476 l 1
 274 530 339 560 410 560 c 0
 536 560 609 492 609 376 c 0
 609 351 608 344 599 294 c 2
 545 0 l 1
 471 0 l 1
 525 294 l 1
 529 313 532 349 532 366 c 0
 532 440 474 492 393 492 c 0
 339 492 281 465 246 424 c 0
 216 390 205 364 193 300 c 2
 137 0 l 1
 63 0 l 1
EndSplineSet
KernsSLIF: 121 -19 0 0 39 -31 0 0
EndChar
StartChar: i
Encoding: 105 105 74
Width: 200
Flags: W
HStem: 0 21G<63 137> 527 20G<164 238> 719 20G<200 274>
DStem: 164 547 238 547 63 0 137 0 200 739 274 739 177 613 251 613
Fore
63 0 m 1
 164 547 l 1
 238 547 l 1
 137 0 l 1
 63 0 l 1
177 613 m 1
 200 739 l 1
 274 739 l 1
 251 613 l 1
 177 613 l 1
EndSplineSet
KernsSLIF: 106 11 0 0 84 3 0 0
EndChar
StartChar: j
Encoding: 106 106 75
Width: 203
Flags: W
HStem: 527 20G<168 242> 719 20G<203 277>
DStem: 168 547 242 547 74 38 148 38 203 739 277 739 179 613 253 613
Fore
242 547 m 1
 148 38 l 1
 125 -108 49 -185 -81 -192 c 1
 -68 -121 l 1
 17 -116 52 -76 74 38 c 1
 168 547 l 1
 242 547 l 1
179 613 m 1
 203 739 l 1
 277 739 l 1
 253 613 l 1
 179 613 l 1
EndSplineSet
EndChar
StartChar: k
Encoding: 107 107 76
Width: 502
Flags: W
HStem: 0 21G<63 137 405 497> 527 20G<493 584> 719 20G<200 274>
DStem: 200 739 274 739 63 0 177 215 200 739 158 113 63 0 137 0 264 219 320 272 405 0 497 0 493 547 584 547 177 215 320 272 493 547 264 219 177 215 158 113
Fore
63 0 m 1
 200 739 l 1
 274 739 l 1
 177 215 l 1
 493 547 l 1
 584 547 l 1
 320 272 l 1
 497 0 l 1
 405 0 l 1
 264 219 l 1
 158 113 l 1
 137 0 l 1
 63 0 l 1
EndSplineSet
KernsSLIF: 362 -2 0 0 117 -2 0 0 115 -10 0 0 46 -13 0 0 351 -30 0 0 352 -30 0 0 111 -30 0 0 45 -41 0 0 103 -29 0 0 335 -30 0 0 101 -30 0 0 44 -26 0 0 328 -30 0 0 241 -30 0 0 322 -30 0 0 323 -30 0 0 97 -30 0 0
EndChar
StartChar: l
Encoding: 108 108 77
Width: 200
Flags: W
HStem: 0 21G<63 137> 719 20G<200 274>
DStem: 200 739 274 739 63 0 137 0
Fore
63 0 m 1
 200 739 l 1
 274 739 l 1
 137 0 l 1
 63 0 l 1
EndSplineSet
EndChar
StartChar: m
Encoding: 109 109 78
Width: 938
Flags: W
HStem: 0 21G<63 137 431 505 799 873> 492 68<373 393 744 763>
VStem: 864 77<378 402>
DStem: 164 547 196 319 63 0 137 0 490 319 564 317 431 0 505 0 858 317 933 325 799 0 873 0
Fore
63 0 m 1
 164 547 l 1
 238 547 l 1
 227 484 l 1
 261 518 266 522 286 533 c 0
 317 551 354 560 393 560 c 0
 476 560 532 523 552 455 c 1
 617 530 676 560 761 560 c 0
 869 560 941 497 941 402 c 0
 941 380 938 354 933 325 c 1
 873 0 l 1
 799 0 l 1
 858 317 l 1
 861 335 864 363 864 379 c 0
 864 449 819 492 746 492 c 0
 695 492 643 468 610 429 c 0
 586 402 574 372 564 317 c 1
 505 0 l 1
 431 0 l 1
 490 319 l 2
 495 345 496 356 496 372 c 0
 496 408 489 432 473 451 c 0
 451 476 413 492 375 492 c 0
 284 492 216 426 196 319 c 2
 137 0 l 1
 63 0 l 1
EndSplineSet
KernsSLIF: 121 -17 0 0 119 -13 0 0 118 -19 0 0 112 7 0 0
EndChar
StartChar: n
Encoding: 110 110 79
Width: 610
Flags: W
HStem: 0 21G<63 137 471 545> 492 68<391 413>
VStem: 532 77<359 379>
DStem: 164 547 193 301 63 0 137 0 524 287 598 287 471 0 545 0
Fore
63 0 m 1
 164 547 l 1
 238 547 l 1
 225 476 l 1
 284 533 345 560 413 560 c 0
 533 560 609 489 609 379 c 0
 609 353 607 334 598 287 c 1
 545 0 l 1
 471 0 l 1
 524 287 l 2
 529 315 532 341 532 361 c 0
 532 441 478 492 393 492 c 0
 338 492 280 466 244 425 c 0
 217 394 205 364 193 301 c 1
 137 0 l 1
 63 0 l 1
EndSplineSet
KernsSLIF: 121 -19 0 0 119 -15 0 0 118 -21 0 0 39 -31 0 0 112 6 0 0 84 -44 0 0
EndChar
StartChar: o
Encoding: 111 111 80
Width: 655
Flags: W
HStem: -13 68<326 360> 492 68<420 440>
VStem: 87 77<210 230> 592 77<306 340>
Fore
435 560 m 0
 574 560 669 468 669 332 c 0
 669 246 634 159 573 95 c 0
 505 23 425 -13 333 -13 c 0
 188 -13 87 80 87 215 c 0
 87 298 122 384 180 447 c 0
 249 521 337 560 435 560 c 0
422 492 m 0
 282 492 164 371 164 228 c 0
 164 125 236 55 343 55 c 0
 482 55 592 174 592 325 c 0
 592 422 520 492 422 492 c 0
EndSplineSet
KernsSLIF: 121 -22 0 0 120 -20 0 0 119 -18 0 0 118 -24 0 0 116 -21 0 0 39 -31 0 0 84 -49 0 0
EndChar
StartChar: p
Encoding: 112 112 81
Width: 682
Flags: W
HStem: -13 68<346 364> 492 68<437 460>
VStem: 618 77<303 337>
DStem: 164 547 238 547 27 -192 221 453 164 547 154 94 27 -192 101 -192
Fore
164 547 m 1
 238 547 l 1
 221 453 l 1
 271 519 361 560 455 560 c 0
 599 560 695 465 695 325 c 0
 695 148 531 -13 350 -13 c 0
 257 -13 191 23 154 94 c 1
 101 -192 l 1
 27 -192 l 1
 164 547 l 1
439 492 m 0
 363 492 285 453 232 387 c 0
 197 344 177 286 177 227 c 0
 177 129 253 55 355 55 c 0
 431 55 502 89 555 150 c 0
 592 192 618 261 618 317 c 0
 618 419 543 492 439 492 c 0
EndSplineSet
KernsSLIF: 121 -24 0 0 116 -23 0 0
EndChar
StartChar: q
Encoding: 113 113 82
Width: 682
Flags: W
HStem: -13 68<323 344> 492 68<406 440>
VStem: 87 77<215 241>
DStem: 562 94 720 547 509 -192 583 -192 646 547 720 547 629 453 583 -192
Fore
720 547 m 1
 583 -192 l 1
 509 -192 l 1
 562 94 l 1
 503 25 419 -13 325 -13 c 0
 187 -13 87 83 87 217 c 0
 87 400 248 560 432 560 c 0
 527 560 595 523 629 453 c 1
 646 547 l 1
 720 547 l 1
423 492 m 0
 285 492 164 369 164 229 c 0
 164 128 238 55 340 55 c 0
 419 55 496 92 546 155 c 0
 582 199 605 264 605 318 c 0
 605 418 528 492 423 492 c 0
EndSplineSet
KernsSLIF: 117 8 0 0
EndChar
StartChar: r
Encoding: 114 114 83
Width: 301
Flags: W
HStem: 0 21G<63 137> 527 20G<164 238>
DStem: 164 547 238 547 63 0 224 469 164 547 196 319 63 0 137 0
Fore
63 0 m 1
 164 547 l 1
 238 547 l 1
 224 469 l 1
 264 529 312 555 396 560 c 1
 382 487 l 1
 277 476 215 420 196 319 c 1
 137 0 l 1
 63 0 l 1
EndSplineSet
KernsSLIF: 122 23 0 0 121 27 0 0 120 26 0 0 119 28 0 0 118 27 0 0 117 2 0 0 116 28 0 0 59 -30 0 0 115 4 0 0 114 2 0 0 39 -11 0 0 113 -32 0 0 46 -55 0 0 112 2 0 0 249 -36 0 0 353 -32 0 0 250 -32 0 0 351 -32 0 0 354 -32 0 0 352 -32 0 0 111 -32 0 0 110 2 0 0 109 2 0 0 108 2 0 0 107 2 0 0 105 1 0 0 45 -23 0 0 104 2 0 0 103 -20 0 0 102 26 0 0 336 -31 0 0 337 -31 0 0 335 -31 0 0 101 -31 0 0 100 -33 0 0 44 -71 0 0 58 -17 0 0 332 -27 0 0 99 -33 0 0 328 -32 0 0 324 -32 0 0 241 -31 0 0 322 -32 0 0 325 -32 0 0 323 -32 0 0 97 -32 0 0
EndChar
StartChar: s
Encoding: 115 115 84
Width: 388
Flags: W
HStem: -13 68<187 204> 492 68<282 298>
VStem: 43 76<117 161> 110 77<380 400> 315 77<167 189> 349 76<412 442>
Fore
46 161 m 1xe8
 119 161 l 1
 119 119 121 106 130 91 c 0
 144 68 170 55 202 55 c 0
 263 55 315 107 315 167 c 0xe8
 315 209 301 223 227 255 c 0
 167 281 152 290 136 308 c 0
 121 326 110 355 110 380 c 0
 110 418 131 468 159 499 c 0
 195 538 246 560 298 560 c 0
 371 560 425 510 425 442 c 0
 425 434 425 423 424 412 c 1
 349 412 l 1
 349 467 329 492 284 492 c 0
 234 492 187 447 187 400 c 0xd4
 187 375 201 353 225 341 c 0
 238 334 255 326 320 297 c 0
 371 273 392 241 392 189 c 0
 392 140 372 90 338 53 c 0
 296 8 249 -13 189 -13 c 0
 138 -13 100 3 74 34 c 0
 55 57 43 90 43 117 c 0
 43 123 44 132 45 143 c 0
 45 146 45 153 46 161 c 1xe8
EndSplineSet
KernsSLIF: 116 2 0 0 39 -16 0 0
EndChar
StartChar: t
Encoding: 116 116 85
Width: 339
Flags: W
HStem: 0 21G<124 198> 480 67<112 213 299 416> 719 20G<261 335>
DStem: 213 480 287 480 124 0 198 0 261 739 335 739 225 547 299 547
Fore
124 0 m 1
 213 480 l 1
 101 480 l 1
 113 547 l 1
 225 547 l 1
 261 739 l 1
 335 739 l 1
 299 547 l 1
 428 547 l 1
 416 480 l 1
 287 480 l 1
 198 0 l 1
 124 0 l 1
EndSplineSet
KernsSLIF: 59 -32 0 0 39 -12 0 0 351 -29 0 0 352 -29 0 0 111 -29 0 0 335 -28 0 0 101 -28 0 0 58 -19 0 0 328 -29 0 0 241 -28 0 0 322 -29 0 0 323 -29 0 0 97 -29 0 0 83 8 0 0
EndChar
StartChar: u
Encoding: 117 117 86
Width: 608
Flags: W
HStem: -13 68<290 312> 527 20G<163 237 572 646>
VStem: 99 77<155 185>
DStem: 163 547 237 547 108 252 182 252 486 85 646 547 470 0 544 0 572 547 646 547 519 266 544 0
Fore
646 547 m 1
 544 0 l 1
 470 0 l 1
 486 85 l 1
 433 15 377 -13 290 -13 c 0
 174 -13 99 53 99 155 c 0
 99 183 103 224 108 252 c 1
 163 547 l 1
 237 547 l 1
 182 252 l 1
 180 239 176 200 176 185 c 0
 176 156 185 122 197 103 c 0
 216 74 261 55 310 55 c 0
 366 55 419 79 459 123 c 0
 490 157 505 194 519 266 c 1
 572 547 l 1
 646 547 l 1
EndSplineSet
KernsSLIF: 39 -9 0 0
EndChar
StartChar: v
Encoding: 118 118 87
Width: 554
Flags: W
HStem: 0 21G<238 316> 527 20G<109 184 572 647>
DStem: 109 547 184 547 238 0 291 87 572 547 647 547 291 87 316 0
Fore
238 0 m 1
 109 547 l 1
 184 547 l 1
 291 87 l 1
 572 547 l 1
 647 547 l 1
 316 0 l 1
 238 0 l 1
EndSplineSet
KernsSLIF: 59 -38 0 0 115 -7 0 0 46 -72 0 0 249 -28 0 0 353 -27 0 0 351 -27 0 0 352 -27 0 0 111 -27 0 0 108 2 0 0 45 -3 0 0 103 -24 0 0 336 -28 0 0 337 -28 0 0 335 -28 0 0 101 -28 0 0 44 -89 0 0 58 -27 0 0 99 -28 0 0 327 -28 0 0 328 -28 0 0 324 -28 0 0 241 -27 0 0 322 -28 0 0 325 -28 0 0 323 -28 0 0 97 -28 0 0
EndChar
StartChar: w
Encoding: 119 119 88
Width: 831
Flags: W
HStem: 0 21G<216 296 533 612> 527 20G<108 182 853 925>
DStem: 108 547 182 547 216 0 271 89 473 480 481 363 271 89 296 0 481 363 534 480 533 0 590 89 853 547 925 547 590 89 612 0
Fore
216 0 m 1
 108 547 l 1
 182 547 l 1
 271 89 l 1
 473 480 l 1
 534 480 l 1
 590 89 l 1
 853 547 l 1
 925 547 l 1
 612 0 l 1
 533 0 l 1
 481 363 l 1
 296 0 l 1
 216 0 l 1
EndSplineSet
KernsSLIF: 59 -37 0 0 115 -5 0 0 46 -64 0 0 249 -23 0 0 353 -23 0 0 351 -23 0 0 352 -23 0 0 111 -23 0 0 108 2 0 0 45 1 0 0 103 -21 0 0 336 -23 0 0 337 -23 0 0 335 -23 0 0 101 -23 0 0 44 -81 0 0 58 -25 0 0 99 -24 0 0 327 -23 0 0 328 -23 0 0 324 -23 0 0 241 -23 0 0 322 -23 0 0 325 -23 0 0 323 -23 0 0 97 -23 0 0
EndChar
StartChar: x
Encoding: 120 120 89
Width: 480
Flags: W
HStem: 0 21G<8 92 387 472> 527 20G<109 193 488 573>
DStem: 109 547 193 547 250 279 302 336 250 279 281 219 8 0 92 0 281 219 333 279 387 0 472 0 488 547 573 547 302 336 333 279
Fore
8 0 m 1
 250 279 l 1
 109 547 l 1
 193 547 l 1
 302 336 l 1
 488 547 l 1
 573 547 l 1
 333 279 l 1
 472 0 l 1
 387 0 l 1
 281 219 l 1
 92 0 l 1
 8 0 l 1
EndSplineSet
KernsSLIF: 113 -21 0 0 111 -21 0 0 335 -21 0 0 101 -21 0 0 99 -22 0 0 97 -21 0 0
EndChar
StartChar: y
Encoding: 121 121 90
Width: 536
Flags: W
HStem: 527 20G<110 191 549 628>
DStem: 110 547 191 547 224 18 283 111 224 18 628 547 97 -192 175 -192 549 547 628 547 283 111 175 -192
Fore
97 -192 m 1
 224 18 l 1
 110 547 l 1
 191 547 l 1
 283 111 l 1
 549 547 l 1
 628 547 l 1
 175 -192 l 1
 97 -192 l 1
EndSplineSet
KernsSLIF: 59 -38 0 0 115 -7 0 0 46 -75 0 0 249 -30 0 0 353 -29 0 0 351 -29 0 0 352 -29 0 0 111 -29 0 0 108 1 0 0 45 -6 0 0 103 -25 0 0 336 -30 0 0 337 -30 0 0 335 -30 0 0 101 -30 0 0 44 -91 0 0 58 -27 0 0 99 -30 0 0 327 -30 0 0 328 -30 0 0 324 -30 0 0 241 -29 0 0 322 -30 0 0 325 -30 0 0 323 -30 0 0 97 -30 0 0
EndChar
StartChar: z
Encoding: 122 122 91
Width: 425
Flags: W
HStem: 0 67<109 415> 480 67<120 401>
DStem: 401 480 486 484 22 67 109 67
Fore
10 0 m 1
 22 67 l 1
 401 480 l 1
 109 480 l 1
 121 547 l 1
 497 547 l 1
 486 484 l 1
 109 67 l 1
 427 67 l 1
 415 0 l 1
 10 0 l 1
EndSplineSet
EndChar
StartChar: braceleft
Encoding: 123 123 92
Width: 351
Flags: W
VStem: 117 78<-41 -16> 156 77<217 227>
DStem: 153 183 230 183 121 13 198 13 230 601 307 601 198 431 275 431
Fore
307 601 m 1x40
 275 431 l 1
 259 354 238 330 163 306 c 1
 217 288 233 269 233 221 c 2
 233 217 l 1x40
 230 183 l 1
 198 13 l 2
 196 3 195 -8 195 -18 c 0
 195 -46 206 -54 250 -58 c 2
 260 -59 l 1
 247 -126 l 1
 187 -124 171 -122 154 -112 c 0
 129 -97 117 -75 117 -41 c 0x80
 117 -24 119 2 121 13 c 2
 153 183 l 1
 156 212 l 1
 156 215 l 2
 156 253 146 262 94 272 c 1
 107 341 l 1
 169 351 188 369 198 431 c 1
 230 601 l 1
 249 674 254 684 284 709 c 1
 320 735 328 737 408 739 c 1
 395 672 l 1
 329 667 321 660 307 601 c 1x40
EndSplineSet
EndChar
StartChar: bar
Encoding: 124 124 93
Width: 672
Flags: W
HStem: 0 21G<304 368> 719 20G<441 505>
DStem: 441 739 505 739 304 0 368 0
Fore
505 739 m 1
 368 0 l 1
 304 0 l 1
 441 739 l 1
 505 739 l 1
EndSplineSet
EndChar
StartChar: braceright
Encoding: 125 125 94
Width: 351
Flags: W
VStem: 187 77<383 403> 225 80<630 648>
DStem: 146 183 222 183 115 13 191 13 224 601 300 601 192 431 268 431
Fore
115 13 m 1x80
 146 183 l 1
 157 252 187 285 257 306 c 1
 221 322 220 322 211 330 c 0
 196 343 187 363 187 385 c 0x80
 187 395 189 417 192 431 c 1
 224 601 l 1
 225 605 225 614 225 632 c 0
 225 660 216 667 173 671 c 2
 162 672 l 1
 174 739 l 1
 236 737 250 735 267 725 c 0
 295 708 305 687 305 648 c 0x40
 305 634 304 620 300 601 c 1
 268 431 l 1
 265 405 264 392 264 390 c 0
 264 375 273 359 286 352 c 0
 295 348 305 345 326 341 c 1
 313 272 l 1
 248 260 240 253 222 183 c 1
 191 13 l 1
 170 -95 129 -127 14 -126 c 1
 26 -59 l 1
 92 -54 98 -49 115 13 c 1x80
EndSplineSet
EndChar
StartChar: asciitilde
Encoding: 126 126 95
Width: 606
Flags: W
Fore
584 390 m 1
 619 343 l 1
 572 275 509 231 457 231 c 0
 435 231 410 238 370 257 c 2
 320 279 l 2
 287 294 269 299 251 299 c 0
 210 299 190 284 132 210 c 1
 99 257 l 1
 163 344 209 377 265 377 c 0
 286 377 311 371 338 358 c 2
 398 331 l 2
 432 315 454 309 473 309 c 0
 506 309 539 333 584 390 c 1
EndSplineSet
EndChar
StartChar: exclamdown
Encoding: 161 161 96
Width: 295
Flags: W
HStem: 527 20G<212 286>
DStem: 176 352 250 352 75 -192 149 -192 212 547 286 547 189 421 263 421
Fore
75 -192 m 1
 176 352 l 1
 250 352 l 1
 149 -192 l 1
 75 -192 l 1
189 421 m 1
 212 547 l 1
 286 547 l 1
 263 421 l 1
 189 421 l 1
EndSplineSet
EndChar
StartChar: cent
Encoding: 162 162 97
Width: 554
Flags: W
HStem: 62 155<305.521 338> 547 160<384 402>
VStem: 113 77<336 355>
DStem: 287 151 354 151 271 62 338 62 390 707 457 707 373 614 440 614
Fore
271 62 m 1
 287 151 l 1
 184 160 113 236 113 338 c 0
 113 410 149 488 207 541 c 0
 254 584 302 605 373 614 c 1
 390 707 l 1
 457 707 l 1
 440 614 l 1
 525 600 581 546 595 463 c 1
 513 463 l 1
 510 468 508 473 507 475 c 0
 495 500 490 506 477 517 c 0
 452 536 418 547 384 547 c 0
 281 547 190 456 190 353 c 0
 190 272 244 217 324 217 c 0
 377 217 432 243 477 290 c 1
 557 290 l 1
 519 218 438 163 354 151 c 1
 338 62 l 1
 271 62 l 1
EndSplineSet
EndChar
StartChar: sterling
Encoding: 163 163 98
Width: 554
Flags: W
HStem: 0 67<69 363> 347 67<93 205 250 520> 684 68<425 446>
VStem: 158 77<463 497> 274 77<207 225> 583 72<541 569>
Fore
58 0 m 1
 70 67 l 1
 208 67 l 1
 248 104 274 163 274 220 c 0
 274 261 255 295 205 347 c 1
 81 347 l 1
 94 414 l 1
 170 414 l 1
 161 444 158 459 158 481 c 0
 158 517 171 562 193 602 c 0
 245 697 338 752 444 752 c 0
 505 752 560 733 596 700 c 0
 630 668 655 612 655 569 c 0
 655 562 654 553 653 541 c 1
 583 541 l 1
 584 627 523 684 432 684 c 0
 324 684 235 590 235 476 c 0
 235 457 239 442 250 414 c 1
 533 414 l 1
 520 347 l 1
 304 347 l 1
 338 301 351 267 351 219 c 0
 351 169 335 127 295 67 c 1
 352 67 l 2
 439 67 490 90 526 144 c 0
 552 185 561 215 561 268 c 1
 633 268 l 1
 633 193 621 154 581 102 c 0
 526 31 454 0 343 0 c 2
 58 0 l 1
EndSplineSet
EndChar
StartChar: fraction
Encoding: 164 8260 99
Width: 166
Flags: W
HStem: 0 21G<-115 -61> 719 20G<364 418>
DStem: 364 739 418 739 -115 0 -61 0
Fore
-115 0 m 1
 364 739 l 1
 418 739 l 1
 -61 0 l 1
 -115 0 l 1
EndSplineSet
EndChar
StartChar: yen
Encoding: 165 165 100
Width: 554
Flags: W
HStem: 0 21G<261 335> 237 67<108 305 416 584> 396 67<131 259 531 620> 719 20G<139 215 650 726>
DStem: 139 739 215 739 236 463 360 327 259 396 215 739 291 304 360 327 305 237 379 237 261 0 335 0 650 739 726 739 360 327 531 463 650 739 482 396 360 327 416 304
Fore
261 0 m 1
 305 237 l 1
 97 237 l 1
 109 304 l 1
 291 304 l 1
 259 396 l 1
 119 396 l 1
 132 463 l 1
 236 463 l 1
 139 739 l 1
 215 739 l 1
 360 327 l 1
 650 739 l 1
 726 739 l 1
 531 463 l 1
 633 463 l 1
 620 396 l 1
 482 396 l 1
 416 304 l 1
 596 304 l 1
 584 237 l 1
 379 237 l 1
 335 0 l 1
 261 0 l 1
EndSplineSet
EndChar
StartChar: florin
Encoding: 166 402 101
Width: 554
Flags: W
HStem: -153 68<24 60> 517 67<306 395 488 576> 751 67<642 662>
DStem: 395 517 464 517 236 92 304 86
Fore
488 584 m 1
 600 584 l 1
 576 517 l 1
 464 517 l 1
 304 86 l 2
 262 -28 241 -64 194 -101 c 0
 149 -136 97 -153 33 -153 c 0
 13 -153 7 -152 -21 -146 c 1
 4 -82 l 1
 12 -83 l 1
 24 -84 l 2
 29 -85 34 -85 48 -85 c 0
 143 -85 184 -46 236 92 c 2
 395 517 l 1
 282 517 l 1
 307 584 l 1
 418 584 l 1
 427 607 l 2
 460 691 485 730 530 768 c 0
 569 801 615 818 662 818 c 0
 672 818 676 817 685 815 c 1
 662 749 l 1
 651 751 647 751 643 751 c 2
 641 751 l 2
 618 751 591 741 572 726 c 0
 540 700 529 682 498 607 c 2
 488 584 l 1
EndSplineSet
EndChar
StartChar: section
Encoding: 167 167 102
Width: 615
Flags: W
HStem: -141 68<284 307> 684 68<428 446>
VStem: 114 70<22 41> 146 72<310 333> 240 70<560 580> 442 68<51 70> 511 72<298 315>
DStem: 234 207 259 278 364 137 440 182 295 454 355 505 466 365 498 431
Fore
594 606 m 1xde
 523 606 l 1
 522 632 518 645 508 656 c 0
 493 673 462 684 430 684 c 0
 365 684 310 634 310 575 c 0
 310 543 324 521 355 505 c 2
 498 431 l 2
 556 401 583 364 583 315 c 0
 583 282 570 243 547 210 c 0
 532 187 516 173 479 146 c 1
 500 120 510 94 510 70 c 0
 510 37 500 -1 486 -25 c 0
 443 -97 368 -141 286 -141 c 0
 229 -141 182 -121 152 -83 c 0
 129 -54 114 -13 114 22 c 0
 114 33 115 47 117 64 c 1
 185 64 l 1
 184 55 184 46 184 39 c 0xee
 184 -27 231 -73 301 -73 c 0
 346 -73 389 -52 415 -18 c 0
 430 2 442 33 442 52 c 0
 442 80 414 110 364 137 c 2
 234 207 l 2
 171 241 146 270 146 310 c 0
 146 380 191 450 264 491 c 1
 247 511 240 530 240 561 c 0
 240 663 336 752 446 752 c 0
 529 752 596 698 596 631 c 0
 596 625 595 617 594 606 c 1xde
466 365 m 2
 295 454 l 1
 251 426 218 374 218 333 c 0xde
 218 314 235 291 259 278 c 2
 440 182 l 1
 484 211 511 255 511 300 c 0
 511 329 497 349 466 365 c 2
EndSplineSet
EndChar
StartChar: currency
Encoding: 168 164 103
Width: 554
Flags: W
HStem: 50 73<283 308> 481 73<354 388>
VStem: 79 72<250 275> 518 72<337 354>
Fore
122 495 m 1
 186 549 l 1
 221 507 l 1
 293 544 326 554 379 554 c 0
 437 554 485 538 521 507 c 1
 572 549 l 1
 615 495 l 1
 566 452 l 1
 584 411 590 387 590 352 c 0
 590 278 559 200 511 153 c 1
 545 111 l 1
 481 58 l 1
 448 100 l 1
 383 63 342 50 285 50 c 0
 229 50 193 63 146 100 c 1
 95 58 l 1
 51 111 l 1
 102 153 l 1
 85 182 79 209 79 250 c 0
 79 327 102 387 157 452 c 1
 122 495 l 1
371 481 m 0
 300 481 238 450 196 395 c 0
 165 353 151 315 151 270 c 0
 151 181 210 123 302 123 c 0
 366 123 431 155 472 207 c 0
 505 250 518 287 518 340 c 0
 518 382 510 407 488 432 c 0
 459 464 418 481 371 481 c 0
EndSplineSet
EndChar
StartChar: quotesingle
Encoding: 169 39 104
Width: 198
Flags: W
HStem: 719 20G<211 261>
DStem: 211 739 261 739 169 513 219 513
Fore
219 513 m 1
 169 513 l 1
 211 739 l 1
 261 739 l 1
 219 513 l 1
EndSplineSet
EndChar
StartChar: quotedblleft
Encoding: 170 8220 105
Width: 502
Flags: W
HStem: 547 192<233 359 381 507>
DStem: 233 739 307 739 285 547 359 547 381 739 455 739 433 547 507 547
Fore
359 547 m 1
 285 547 l 1
 233 739 l 1
 307 739 l 1
 359 547 l 1
507 547 m 1
 433 547 l 1
 381 739 l 1
 455 739 l 1
 507 547 l 1
EndSplineSet
KernsSLIF: 89 -1 1 0 87 10 1 0 86 2 1 0 84 -26 1 0 262 -97 1 0 256 -97 1 0 257 -97 1 0 225 -175 1 0 65 -97 1 0
EndChar
StartChar: guillemotleft
Encoding: 171 171 106
Width: 425
Flags: W
DStem: 96 300 174 300 171 99 236 132 245 499 298 467 96 300 174 300 270 300 348 300 345 99 410 132 419 499 472 467 270 300 348 300
Fore
171 99 m 1
 96 300 l 1
 245 499 l 1
 298 467 l 1
 174 300 l 1
 236 132 l 1
 171 99 l 1
345 99 m 1
 270 300 l 1
 419 499 l 1
 472 467 l 1
 348 300 l 1
 410 132 l 1
 345 99 l 1
EndSplineSet
EndChar
StartChar: guilsinglleft
Encoding: 172 8249 107
Width: 251
Flags: W
DStem: 96 300 174 300 171 99 236 132 245 499 298 467 96 300 174 300
Fore
171 99 m 1
 96 300 l 1
 245 499 l 1
 298 467 l 1
 174 300 l 1
 236 132 l 1
 171 99 l 1
EndSplineSet
EndChar
StartChar: guilsinglright
Encoding: 173 8250 108
Width: 251
Flags: W
DStem: 127 467 192 499 189 300 267 300 189 300 267 300 65 132 118 99
Fore
118 99 m 1
 65 132 l 1
 189 300 l 1
 127 467 l 1
 192 499 l 1
 267 300 l 1
 118 99 l 1
EndSplineSet
KernsSLIF: 89 -63 1 0 87 -22 1 0 86 -49 1 0 84 -44 1 0 262 -24 1 0 256 -24 1 0 257 -24 1 0 225 -62 1 0 65 -24 1 0
EndChar
StartChar: fi
Encoding: 174 64257 109
Width: 487
Flags: W
HStem: 0 21G<98 172 350 424> 480 67<113 187 273 397> 672 67<407 433>
DStem: 187 480 261 480 98 0 172 0 451 547 525 547 350 0 424 0 487 739 561 739 464 613 538 613
Fore
98 0 m 1
 187 480 l 1
 102 480 l 1
 114 547 l 1
 199 547 l 1
 214 620 234 656 276 689 c 0
 317 721 372 739 427 739 c 2
 433 739 l 1
 445 739 l 1
 433 672 l 1
 421 672 l 1
 417 672 l 2
 332 672 289 635 273 547 c 1
 409 547 l 1
 397 480 l 1
 261 480 l 1
 172 0 l 1
 98 0 l 1
350 0 m 1
 451 547 l 1
 525 547 l 1
 424 0 l 1
 350 0 l 1
464 613 m 1
 487 739 l 1
 561 739 l 1
 538 613 l 1
 464 613 l 1
EndSplineSet
LCarets: 0 65535 '    ' 1 0 
Ligature: 0 0 'liga' f i
EndChar
StartChar: fl
Encoding: 175 64258 110
Width: 485
Flags: W
HStem: 0 21G<98 172 348 422> 480 67<113 187 273 397> 672 67<407 433>
DStem: 187 480 261 480 98 0 172 0 485 739 559 739 348 0 422 0
Fore
98 0 m 1
 187 480 l 1
 102 480 l 1
 114 547 l 1
 199 547 l 1
 214 620 234 656 276 689 c 0
 317 721 372 739 427 739 c 2
 433 739 l 1
 445 739 l 1
 433 672 l 1
 421 672 l 1
 417 672 l 2
 332 672 289 635 273 547 c 1
 409 547 l 1
 397 480 l 1
 261 480 l 1
 172 0 l 1
 98 0 l 1
348 0 m 1
 485 739 l 1
 559 739 l 1
 422 0 l 1
 348 0 l 1
EndSplineSet
Ligature: 0 0 'liga' f l
EndChar
StartChar: endash
Encoding: 177 8211 111
Width: 500
Flags: W
HStem: 233 63<60 550>
Fore
61 296 m 1
 562 296 l 1
 550 233 l 1
 49 233 l 1
 61 296 l 1
EndSplineSet
EndChar
StartChar: dagger
Encoding: 178 8224 112
Width: 553
Flags: W
HStem: 470 66<157 324 410 582> 719 20G<374 448>
DStem: 324 470 398 470 212 -133 286 -133 374 739 448 739 336 536 410 536
Fore
448 739 m 1
 410 536 l 1
 594 536 l 1
 582 470 l 1
 398 470 l 1
 286 -133 l 1
 212 -133 l 1
 324 470 l 1
 146 470 l 1
 158 536 l 1
 336 536 l 1
 374 739 l 1
 448 739 l 1
EndSplineSet
EndChar
StartChar: daggerdbl
Encoding: 179 8225 113
Width: 553
Flags: W
HStem: 335 66<132 300 386 556> 493 70<162 329 416 585> 719 20G<375 449>
DStem: 300 335 374 335 213 -133 287 -133 329 493 403 493 312 401 386 401 375 739 449 739 342 563 416 563
Fore
449 739 m 1
 416 563 l 1
 598 563 l 1
 585 493 l 1
 403 493 l 1
 386 401 l 1
 568 401 l 1
 556 335 l 1
 374 335 l 1
 287 -133 l 1
 213 -133 l 1
 300 335 l 1
 121 335 l 1
 133 401 l 1
 312 401 l 1
 329 493 l 1
 150 493 l 1
 163 563 l 1
 342 563 l 1
 375 739 l 1
 449 739 l 1
EndSplineSet
EndChar
StartChar: periodcentered
Encoding: 180 183 114
Width: 277
Flags: W
DStem: 168 355 242 355 145 229 219 229
Fore
145 229 m 1
 168 355 l 1
 242 355 l 1
 219 229 l 1
 145 229 l 1
EndSplineSet
EndChar
StartChar: paragraph
Encoding: 182 182 115
Width: 564
Flags: W
HStem: 672 67<397 542>
DStem: 293 355 426 672 203 -133 277 -133 542 672 628 739 393 -133 467 -133
Fore
203 -133 m 1
 293 355 l 1
 193 365 135 421 135 510 c 0
 135 577 165 639 218 684 c 0
 264 723 318 739 397 739 c 2
 628 739 l 1
 467 -133 l 1
 393 -133 l 1
 542 672 l 1
 426 672 l 1
 277 -133 l 1
 203 -133 l 1
EndSplineSet
EndChar
StartChar: bullet
Encoding: 183 8226 116
Width: 606
Flags: W
Fore
359 489 m 0
 464 489 547 406 547 301 c 0
 547 196 463 113 357 113 c 0
 255 113 171 199 171 303 c 0
 171 405 256 489 359 489 c 0
EndSplineSet
EndChar
StartChar: quotesinglbase
Encoding: 184 8218 117
Width: 354
Flags: W
DStem: 201 126 274 126 77 -67 150 -67
Fore
77 -67 m 1
 201 126 l 1
 274 126 l 1
 150 -67 l 1
 77 -67 l 1
EndSplineSet
EndChar
StartChar: quotedblbase
Encoding: 185 8222 118
Width: 502
Flags: W
DStem: 201 126 275 126 77 -66 151 -66 347 126 421 126 223 -66 297 -66
Fore
77 -66 m 1
 201 126 l 1
 275 126 l 1
 151 -66 l 1
 77 -66 l 1
223 -66 m 1
 347 126 l 1
 421 126 l 1
 297 -66 l 1
 223 -66 l 1
EndSplineSet
KernsSLIF: 89 -95 1 0 87 -59 1 0 86 -97 1 0 84 -54 1 0 225 -10 1 0 65 4 1 0
EndChar
StartChar: quotedblright
Encoding: 186 8221 119
Width: 484
Flags: W
HStem: 547 21G<188 262 332 406> 719 20G<312 386 456 530>
DStem: 312 739 386 739 188 547 262 547 456 739 530 739 332 547 406 547
Fore
188 547 m 1
 312 739 l 1
 386 739 l 1
 262 547 l 1
 188 547 l 1
332 547 m 1
 456 739 l 1
 530 739 l 1
 406 547 l 1
 332 547 l 1
EndSplineSet
KernsSLIF: 89 -7 1 0 87 4 1 0 86 -4 1 0 84 -10 1 0 262 -105 1 0 256 -105 1 0 257 -105 1 0 225 -182 1 0 65 -105 1 0
EndChar
StartChar: guillemotright
Encoding: 187 187 120
Width: 425
Flags: W
DStem: 127 467 192 499 189 300 267 300 189 300 267 300 65 132 118 99 301 467 366 499 363 300 441 300 363 300 441 300 239 132 292 99
Fore
118 99 m 1
 65 132 l 1
 189 300 l 1
 127 467 l 1
 192 499 l 1
 267 300 l 1
 118 99 l 1
292 99 m 1
 239 132 l 1
 363 300 l 1
 301 467 l 1
 366 499 l 1
 441 300 l 1
 292 99 l 1
EndSplineSet
KernsSLIF: 89 -63 1 0 87 -22 1 0 86 -49 1 0 84 -44 1 0 262 -24 1 0 256 -24 1 0 257 -24 1 0 225 -62 1 0 65 -24 1 0
EndChar
StartChar: ellipsis
Encoding: 188 8230 121
Width: 1000
Flags: W
HStem: 0 126<152 204 485 537 818 870>
DStem: 153 126 227 126 130 0 204 0 486 126 560 126 463 0 537 0 819 126 893 126 796 0 870 0
Fore
130 0 m 1
 153 126 l 1
 227 126 l 1
 204 0 l 1
 130 0 l 1
463 0 m 1
 486 126 l 1
 560 126 l 1
 537 0 l 1
 463 0 l 1
796 0 m 1
 819 126 l 1
 893 126 l 1
 870 0 l 1
 796 0 l 1
EndSplineSet
Ligature: 0 1 'liga' period period period
EndChar
StartChar: perthousand
Encoding: 189 8240 122
Width: 1174
Flags: W
HStem: -13 68<574 587 972 985> 270 68<628 643 1026 1041> 397 68<260 278> 681 68<308 331>
VStem: 117 68<540 554> 406 68<593 608> 429 68<130 148> 718 68<178 197> 827 68<130 148> 1116 68<178 197>
DStem: 652 739 726 739 183 0 255 0
Fore
652 739 m 1xf9c0
 726 739 l 1
 255 0 l 1
 183 0 l 1
 652 739 l 1xf9c0
641 338 m 0
 724 338 786 277 786 195 c 0
 786 87 685 -13 576 -13 c 0
 491 -13 429 48 429 132 c 0xfbc0
 429 239 531 338 641 338 c 0
630 270 m 0
 560 270 497 209 497 142 c 0
 497 93 535 55 585 55 c 0
 656 55 718 116 718 185 c 0
 718 232 679 270 630 270 c 0
1039 338 m 0
 1122 338 1184 277 1184 195 c 0
 1184 87 1083 -13 974 -13 c 0
 889 -13 827 48 827 132 c 0
 827 239 929 338 1039 338 c 0
1028 270 m 0
 958 270 895 209 895 142 c 0
 895 93 933 55 983 55 c 0
 1054 55 1116 116 1116 185 c 0
 1116 232 1077 270 1028 270 c 0
329 749 m 0
 412 749 474 687 474 606 c 0xfdc0
 474 498 373 397 265 397 c 0
 179 397 117 458 117 542 c 0
 117 587 138 637 173 677 c 0
 213 723 270 749 329 749 c 0
318 681 m 0
 247 681 185 621 185 552 c 0
 185 502 223 465 273 465 c 0
 344 465 406 526 406 595 c 0
 406 643 367 681 318 681 c 0
EndSplineSet
EndChar
StartChar: questiondown
Encoding: 191 191 123
Width: 591
Flags: W
HStem: -205 68<250 273> 527 20G<356 430>
VStem: 64 77<-35 -12>
DStem: 356 547 430 547 333 421 407 421
Fore
430 547 m 1
 407 421 l 1
 333 421 l 1
 356 547 l 1
 430 547 l 1
462 39 m 1
 532 39 l 1
 521 -23 503 -62 470 -103 c 0
 416 -168 338 -205 254 -205 c 0
 141 -205 64 -135 64 -33 c 0
 64 15 79 64 104 100 c 0
 125 129 143 146 189 182 c 0
 280 253 309 291 323 354 c 1
 393 354 l 1
 378 274 338 216 252 150 c 1
 161 77 141 46 141 -21 c 0
 141 -89 193 -137 266 -137 c 0
 326 -137 383 -109 419 -61 c 0
 438 -35 450 -8 462 39 c 1
EndSplineSet
EndChar
StartChar: grave
Encoding: 193 96 124
Width: 378
Flags: W
DStem: 207 726 247 778 389 610 428 661
Fore
247 778 m 1
 428 661 l 1
 389 610 l 1
 207 726 l 1
 247 778 l 1
EndSplineSet
EndChar
StartChar: acute
Encoding: 194 180 125
Width: 375
Flags: W
DStem: 412 782 436 724 198 666 222 610
Fore
198 666 m 1
 412 782 l 1
 436 724 l 1
 222 610 l 1
 198 666 l 1
EndSplineSet
Ligature: 0 1 'liga' space acutecomb
EndChar
StartChar: circumflex
Encoding: 195 710 126
Width: 502
Flags: W
HStem: 729 20G<356 422>
DStem: 356 749 381 697 188 623 279 623 381 697 422 749 453 623 542 623
Fore
188 623 m 1
 356 749 l 1
 422 749 l 1
 542 623 l 1
 453 623 l 1
 381 697 l 1
 279 623 l 1
 188 623 l 1
EndSplineSet
EndChar
StartChar: tilde
Encoding: 196 732 127
Width: 439
Flags: W
Fore
465 734 m 1
 486 688 l 1
 460 652 427 633 394 633 c 0
 375 633 342 645 298 666 c 0
 293 669 287 670 281 670 c 0
 269 670 263 666 223 637 c 1
 200 682 l 1
 231 714 264 733 289 733 c 0
 298 733 309 730 322 724 c 0
 340 715 340 715 358 707 c 0
 377 698 384 696 394 696 c 0
 419 696 441 708 465 734 c 1
EndSplineSet
Ligature: 0 1 'liga' space tildecomb
EndChar
StartChar: macron
Encoding: 197 175 128
Width: 485
Flags: W
HStem: 651 62<199 525>
Fore
200 713 m 1
 537 713 l 1
 525 651 l 1
 188 651 l 1
 200 713 l 1
EndSplineSet
Ligature: 0 1 'liga' space uni0304
EndChar
StartChar: breve
Encoding: 198 728 129
Width: 453
Flags: W
HStem: 723 20G<207 271 458 511>
Fore
207 743 m 1
 271 743 l 1
 274 718 278 707 290 697 c 0
 300 688 329 681 352 681 c 0
 376 681 409 690 426 702 c 0
 444 713 451 722 458 743 c 1
 511 743 l 1
 498 699 481 676 447 654 c 0
 417 635 382 626 339 626 c 0
 293 626 260 637 236 660 c 0
 217 679 209 700 207 743 c 1
EndSplineSet
Ligature: 0 1 'liga' space uni0306
EndChar
StartChar: dotaccent
Encoding: 199 729 130
Width: 222
Flags: W
HStem: 729 20G<211 285>
DStem: 211 749 285 749 188 623 262 623
Fore
211 749 m 1
 285 749 l 1
 262 623 l 1
 188 623 l 1
 211 749 l 1
EndSplineSet
Ligature: 0 1 'liga' space uni0307
EndChar
StartChar: dieresis
Encoding: 200 168 131
Width: 369
Flags: W
HStem: 729 20G<211 285 358 432>
DStem: 211 749 285 749 188 623 262 623 358 749 432 749 335 623 409 623
Fore
211 749 m 1
 285 749 l 1
 262 623 l 1
 188 623 l 1
 211 749 l 1
358 749 m 1
 432 749 l 1
 409 623 l 1
 335 623 l 1
 358 749 l 1
EndSplineSet
Ligature: 0 1 'liga' space uni0308
EndChar
StartChar: ring
Encoding: 202 730 132
Width: 332
Flags: W
HStem: 606 40<277 288> 750 40<298 314>
VStem: 203 38<678 690> 352 38<701 713>
Fore
312 790 m 0
 359 790 390 758 390 711 c 0
 390 658 335 606 279 606 c 0
 235 606 203 636 203 678 c 0
 203 738 253 790 312 790 c 0
305 750 m 0
 273 750 241 720 241 688 c 0
 241 664 260 646 286 646 c 0
 318 646 352 677 352 706 c 0
 352 730 331 750 305 750 c 0
EndSplineSet
Ligature: 0 1 'liga' space uni030A
EndChar
StartChar: cedilla
Encoding: 203 184 133
Width: 324
Flags: W
HStem: -227 46<122 132> -85 33<148 164> -20 20G<129 165>
VStem: 185 43<-132 -114>
DStem: 129 0 165 0 72 -92 130 -60
Fore
129 0 m 1
 165 0 l 1
 130 -60 l 1
 145 -54 152 -52 164 -52 c 0
 204 -52 228 -76 228 -116 c 0
 228 -180 184 -227 124 -227 c 0
 76 -227 49 -201 46 -153 c 1
 91 -148 l 1
 96 -171 108 -181 130 -181 c 0
 162 -181 185 -157 185 -123 c 0
 185 -101 169 -85 148 -85 c 0
 130 -85 115 -92 98 -109 c 1
 72 -92 l 1
 129 0 l 1
EndSplineSet
Ligature: 0 1 'liga' space uni0327
EndChar
StartChar: hungarumlaut
Encoding: 205 733 134
Width: 552
Flags: W
DStem: 389 780 420 730 197 658 226 608 585 780 615 730 392 658 421 608
Fore
197 658 m 1
 389 780 l 1
 420 730 l 1
 226 608 l 1
 197 658 l 1
392 658 m 1
 585 780 l 1
 615 730 l 1
 421 608 l 1
 392 658 l 1
EndSplineSet
Ligature: 0 1 'liga' space uni030B
EndChar
StartChar: ogonek
Encoding: 206 731 135
Width: 302
Flags: W
HStem: -195 47<142 156> -20 20G<147 199>
VStem: 53 51<-116 -106>
Fore
147 0 m 1
 199 0 l 1
 139 -35 104 -75 104 -108 c 0
 104 -132 124 -148 154 -148 c 0
 172 -148 189 -144 203 -137 c 1
 195 -182 l 1
 176 -191 160 -195 144 -195 c 0
 92 -195 53 -159 53 -112 c 0
 53 -70 85 -32 147 0 c 1
EndSplineSet
LCarets: 0 65535 '    ' 1 0 
Ligature: 0 1 'liga' space uni0328
EndChar
StartChar: caron
Encoding: 207 711 136
Width: 502
Flags: W
HStem: 729 20G<211 300 474 565>
DStem: 211 749 300 749 331 623 372 675 474 749 565 749 372 675 397 623
Fore
565 749 m 1
 397 623 l 1
 331 623 l 1
 211 749 l 1
 300 749 l 1
 372 675 l 1
 474 749 l 1
 565 749 l 1
EndSplineSet
EndChar
StartChar: emdash
Encoding: 208 8212 137
Width: 1000
Flags: W
HStem: 233 63<60 1050>
Fore
61 296 m 1
 1062 296 l 1
 1050 233 l 1
 49 233 l 1
 61 296 l 1
EndSplineSet
EndChar
StartChar: AE
Encoding: 225 198 138
Width: 992
Flags: W
HStem: 0 67<629 936> 250 67<378 589> 340 67<692 988> 672 67<659 1061>
DStem: 589 250 680 340 543 0 629 67 659 739 662 644 11 0 378 317 659 739 318 250 11 0 99 0 662 644 742 672 602 317 692 407
Fore
11 0 m 1
 659 739 l 1
 1073 739 l 1
 1061 672 l 1
 742 672 l 1
 692 407 l 1
 1000 407 l 1
 988 340 l 1
 680 340 l 1
 629 67 l 1
 948 67 l 1
 936 0 l 1
 543 0 l 1
 589 250 l 1
 318 250 l 1
 99 0 l 1
 11 0 l 1
378 317 m 1
 602 317 l 1
 662 644 l 1
 378 317 l 1
EndSplineSet
EndChar
StartChar: ordfeminine
Encoding: 227 170 139
Width: 369
Flags: W
HStem: 319 52<99 409> 441 49<267 284> 696 49<314 333>
VStem: 145 53<567 577>
Fore
477 739 m 1
 423 448 l 1
 375 448 l 1
 383 493 l 1
 351 459 313 441 269 441 c 0
 199 441 145 497 145 569 c 0
 145 660 235 745 333 745 c 0
 369 745 398 728 421 694 c 1
 429 739 l 1
 477 739 l 1
321 696 m 0
 258 696 198 637 198 575 c 0
 198 529 235 490 280 490 c 0
 338 490 400 551 400 610 c 0
 400 658 366 696 321 696 c 0
100 371 m 1
 418 371 l 1
 409 319 l 1
 91 319 l 1
 100 371 l 1
EndSplineSet
EndChar
StartChar: Lslash
Encoding: 232 321 140
Width: 517
Flags: W
HStem: 0 67<208 502> 719 20G<259 333>
DStem: 179 307 259 342 122 0 208 67 259 739 333 739 194 391 275 426 456 558 441 474 275 426 259 342
Fore
122 0 m 1
 179 307 l 1
 70 226 l 1
 86 310 l 1
 194 391 l 1
 259 739 l 1
 333 739 l 1
 275 426 l 1
 456 558 l 1
 441 474 l 1
 259 342 l 1
 208 67 l 1
 514 67 l 1
 502 0 l 1
 122 0 l 1
EndSplineSet
EndChar
StartChar: Oslash
Encoding: 233 216 141
Width: 868
Flags: W
HStem: -13 68<423 457> 684 68<551 569>
VStem: 103 77<284 318> 820 77<424 446>
DStem: 189 82 238 42 72 -42 120 -83 712 641 759 600 241 138 289 97 880 821 925 778 763 696 811 656
Fore
72 -42 m 1
 189 82 l 1
 132 138 103 209 103 294 c 0
 103 397 142 499 212 582 c 0
 299 686 437 752 564 752 c 0
 622 752 691 737 730 717 c 0
 736 714 741 711 763 696 c 1
 880 821 l 1
 925 778 l 1
 811 656 l 1
 867 601 897 528 897 442 c 0
 897 346 856 241 785 158 c 1
 695 50 564 -13 431 -13 c 0
 363 -13 286 9 238 42 c 1
 120 -83 l 1
 72 -42 l 1
241 138 m 1
 712 641 l 1
 673 668 614 684 554 684 c 0
 439 684 331 628 260 530 c 0
 204 455 180 387 180 309 c 0
 180 235 192 201 241 138 c 1
759 600 m 1
 289 97 l 1
 346 65 383 55 440 55 c 0
 561 55 674 115 749 219 c 0
 797 286 820 352 820 426 c 0
 820 497 809 530 766 590 c 2
 759 600 l 1
EndSplineSet
KernsSLIF: 65 -42 0 0
EndChar
StartChar: OE
Encoding: 234 338 142
Width: 1194
Flags: W
HStem: -13 68<425 459> 0 67<831 1138> 340 67<894 1190> 672 67<881 1262> 684 68<553 574>
VStem: 106 77<298 324>
DStem: 772 151 882 340 744 0 831 67 881 739 943 672 853 592 894 407
Fore
881 739 m 1x34
 1275 739 l 1
 1262 672 l 1
 943 672 l 1
 894 407 l 1
 1202 407 l 1
 1190 340 l 1
 882 340 l 1
 831 67 l 1
 1150 67 l 1
 1138 0 l 1
 744 0 l 1x74
 772 151 l 1
 686 41 577 -13 442 -13 c 0
 239 -13 106 111 106 300 c 0
 106 543 321 752 572 752 c 0xac
 709 752 809 695 853 592 c 1
 881 739 l 1x34
558 684 m 0xac
 439 684 332 630 261 534 c 0
 214 469 183 382 183 313 c 0
 183 261 201 202 231 157 c 0
 276 90 351 55 449 55 c 0
 566 55 672 110 744 209 c 0
 790 272 821 364 821 436 c 0
 821 584 715 684 558 684 c 0xac
EndSplineSet
EndChar
StartChar: ordmasculine
Encoding: 235 186 143
Width: 369
Flags: W
HStem: 319 52<100 397> 442 49<262 278> 696 49<315 328>
VStem: 141 53<558 576> 397 53<606 624>
Fore
326 745 m 0
 397 745 450 691 450 619 c 0
 450 527 361 442 264 442 c 0
 194 442 141 496 141 567 c 0
 141 660 229 745 326 745 c 0
317 696 m 0
 250 696 194 639 194 572 c 0
 194 525 229 491 276 491 c 0
 341 491 397 549 397 617 c 0
 397 660 361 696 317 696 c 0
101 371 m 1
 406 371 l 1
 397 319 l 1
 92 319 l 1
 101 371 l 1
EndSplineSet
EndChar
StartChar: ae
Encoding: 241 230 144
Width: 1157
Flags: W
HStem: -13 68<327 344 832 857> 247 67<683 1162> 492 68<407 441 919 938>
VStem: 88 77<210 233> 604 62<225 319> 1103 69<314 333>
DStem: 563 92 634 92 546 0 617 0 648 547 719 547 630 452 701 452
Fore
1162 247 m 1
 667 247 l 1
 666 237 666 230 666 225 c 0
 666 129 745 55 848 55 c 0
 931 55 1018 105 1059 178 c 1
 1136 178 l 1
 1116 134 1084 96 1035 59 c 0
 971 10 906 -13 834 -13 c 0
 748 -13 682 22 634 92 c 1
 617 0 l 1
 546 0 l 1
 563 92 l 1
 493 20 418 -13 330 -13 c 0
 185 -13 88 80 88 219 c 0
 88 294 119 373 175 439 c 0
 241 517 331 560 432 560 c 0
 528 560 594 524 630 452 c 1
 648 547 l 1
 719 547 l 1
 701 452 l 1
 771 524 849 560 936 560 c 0
 1075 560 1172 467 1172 333 c 0
 1172 303 1170 284 1162 247 c 1
683 314 m 1
 1103 314 l 1
 1101 423 1032 492 926 492 c 0
 818 492 715 416 683 314 c 1
426 492 m 0
 343 492 271 456 222 391 c 0
 186 343 165 285 165 231 c 0
 165 128 239 55 342 55 c 0
 481 55 604 179 604 319 c 0
 604 422 532 492 426 492 c 0
EndSplineSet
KernsSLIF: 121 -24 0 0 119 -20 0 0 118 -26 0 0
EndChar
StartChar: dotlessi
Encoding: 245 305 145
Width: 200
Flags: W
HStem: 0 21G<63 137> 527 20G<164 238>
DStem: 164 547 238 547 63 0 137 0
Fore
63 0 m 1
 164 547 l 1
 238 547 l 1
 137 0 l 1
 63 0 l 1
EndSplineSet
EndChar
StartChar: lslash
Encoding: 248 322 146
Width: 300
Flags: W
HStem: 0 21G<118 192> 719 20G<255 329>
DStem: 184 352 263 379 118 0 192 0 255 739 329 739 197 425 277 452
Fore
118 0 m 1
 184 352 l 1
 94 298 l 1
 107 372 l 1
 197 425 l 1
 255 739 l 1
 329 739 l 1
 277 452 l 1
 370 507 l 1
 356 434 l 1
 263 379 l 1
 192 0 l 1
 118 0 l 1
EndSplineSet
EndChar
StartChar: oslash
Encoding: 249 248 147
Width: 653
Flags: W
HStem: -13 68<329 349> 492 68<411 445>
VStem: 89 77<212 235> 592 77<313 347>
DStem: 138 68 184 28 76 2 121 -38 521 468 567 426 189 121 233 79 641 593 687 551 571 519 617 478
Fore
76 2 m 1
 138 68 l 1
 101 123 89 159 89 214 c 0
 89 300 123 384 185 447 c 0
 255 520 342 560 430 560 c 0
 486 560 533 546 571 519 c 1
 641 593 l 1
 687 551 l 1
 617 478 l 1
 654 439 669 398 669 340 c 0
 669 148 514 -13 329 -13 c 0
 273 -13 227 0 184 28 c 1
 121 -38 l 1
 76 2 l 1
189 121 m 1
 521 468 l 1
 489 485 460 492 425 492 c 0
 348 492 276 454 225 388 c 0
 190 341 166 275 166 225 c 0
 166 190 175 151 189 121 c 1
567 426 m 1
 233 79 l 1
 238 77 243 75 245 74 c 0
 283 58 295 55 329 55 c 0
 479 55 592 176 592 336 c 0
 592 371 586 392 567 426 c 1
EndSplineSet
EndChar
StartChar: oe
Encoding: 250 339 148
Width: 1137
Flags: W
HStem: -13 68<327 345 820 841> 248 67<665 1140> 492 68<407 430 903 921>
VStem: 88 77<210 232> 1084 69<315 341>
Fore
1140 248 m 1
 652 248 l 1
 651 235 650 224 650 216 c 0
 650 181 665 144 693 113 c 0
 729 72 772 55 834 55 c 0
 918 55 992 98 1043 179 c 1
 1118 179 l 1
 1096 130 1062 90 1009 50 c 0
 951 6 894 -13 822 -13 c 0
 748 -13 689 10 640 58 c 0
 619 79 607 101 596 138 c 1
 541 72 525 56 490 35 c 0
 437 2 387 -13 332 -13 c 0
 244 -13 179 16 134 76 c 0
 104 117 88 165 88 217 c 0
 88 299 119 379 175 441 c 0
 247 520 331 560 428 560 c 0
 494 560 549 540 590 501 c 0
 610 482 623 462 647 414 c 1
 665 444 697 476 739 505 c 0
 788 539 856 560 919 560 c 0
 994 560 1064 530 1105 480 c 0
 1133 445 1153 387 1153 339 c 0
 1153 315 1150 293 1140 248 c 1
1084 315 m 1
 1084 318 l 1
 1084 327 l 2
 1084 421 1008 492 908 492 c 0
 802 492 716 429 665 315 c 1
 1084 315 l 1
417 492 m 0
 282 492 165 371 165 230 c 0
 165 128 237 55 338 55 c 0
 415 55 480 89 531 154 c 1
 570 206 590 261 590 320 c 0
 590 422 520 492 417 492 c 0
EndSplineSet
EndChar
StartChar: germandbls
Encoding: 251 223 149
Width: 554
Flags: W
HStem: -13 68<313 332> 343 65<299 332> 684 68<388 405>
VStem: 488 77<226 245> 499 77<572 590>
DStem: 148 481 222 481 59 0 171 203 148 481 153 109 59 0 133 0
Fore
59 0 m 1xf0
 148 481 l 1
 164 565 185 621 218 664 c 0
 261 719 330 752 403 752 c 0
 505 752 576 685 576 588 c 0xe8
 576 500 537 433 461 389 c 1
 530 365 565 316 565 245 c 0
 565 105 452 -13 318 -13 c 0
 268 -13 223 3 195 32 c 0
 175 52 165 70 153 109 c 1
 133 0 l 1
 59 0 l 1xf0
171 203 m 1
 222 203 l 1
 219 188 218 181 218 172 c 0
 218 103 263 55 328 55 c 0
 413 55 488 137 488 230 c 0xf0
 488 301 430 343 330 343 c 0
 319 343 309 343 287 341 c 1
 300 408 l 1
 310 408 l 1
 315 408 l 2
 372 408 425 430 457 466 c 0
 482 495 499 538 499 574 c 0
 499 640 456 684 390 684 c 0
 343 684 297 660 271 621 c 0
 248 587 235 550 222 481 c 1
 171 203 l 1
EndSplineSet
EndChar
StartChar: Adieresis
Encoding: 256 196 150
Width: 740
Flags: W
HStem: 0 21G<11 89 648 729> 249 67<284 587> 719 20G<465 548>
DStem: 428 931 502 931 405 805 479 805 465 739 491 655 11 0 284 316 465 739 243 249 11 0 89 0 491 655 548 739 571 316 729 0 575 931 649 931 552 805 626 805 587 249 548 739 648 0 729 0
Fore
11 0 m 1
 465 739 l 1
 548 739 l 1
 729 0 l 1
 648 0 l 1
 587 249 l 1
 243 249 l 1
 89 0 l 1
 11 0 l 1
284 316 m 1
 571 316 l 1
 491 655 l 1
 284 316 l 1
428 931 m 1
 502 931 l 1
 479 805 l 1
 405 805 l 1
 428 931 l 1
575 931 m 1
 649 931 l 1
 626 805 l 1
 552 805 l 1
 575 931 l 1
EndSplineSet
KernsSLIF: 121 -39 0 0 119 -36 0 0 118 -42 0 0 117 -15 0 0 116 -31 0 0 39 -95 0 0 186 -93 0 0 113 -21 0 0 46 10 0 0 111 -21 0 0 45 8 0 0 172 -24 0 0 171 -24 0 0 103 -23 0 0 100 -22 0 0 44 -8 0 0 99 -22 0 0 97 -22 0 0 89 -80 0 0 87 -50 0 0 86 -75 0 0 85 -32 0 0 84 -56 0 0 81 -39 0 0 79 -39 0 0 71 -39 0 0 67 -38 0 0
Ligature: 0 0 'liga' A uni0308
EndChar
StartChar: Aacute
Encoding: 257 193 151
Width: 740
Flags: W
HStem: 0 21G<11 89 648 729> 249 67<284 587> 719 20G<465 548>
DStem: 465 739 491 655 11 0 284 316 465 739 243 249 11 0 89 0 491 655 548 739 571 316 729 0 587 249 548 739 648 0 729 0 659 964 683 906 445 848 469 792
Fore
11 0 m 1
 465 739 l 1
 548 739 l 1
 729 0 l 1
 648 0 l 1
 587 249 l 1
 243 249 l 1
 89 0 l 1
 11 0 l 1
284 316 m 1
 571 316 l 1
 491 655 l 1
 284 316 l 1
445 848 m 1
 659 964 l 1
 683 906 l 1
 469 792 l 1
 445 848 l 1
EndSplineSet
KernsSLIF: 121 -39 0 0 119 -36 0 0 118 -42 0 0 117 -15 0 0 116 -31 0 0 39 -95 0 0 113 -21 0 0 46 10 0 0 111 -21 0 0 45 8 0 0 172 -24 0 0 171 -24 0 0 103 -23 0 0 101 -22 0 0 100 -22 0 0 44 -8 0 0 99 -22 0 0 97 -22 0 0 89 -80 0 0 87 -50 0 0 86 -75 0 0 85 -32 0 0 84 -56 0 0 81 -39 0 0 79 -39 0 0 71 -39 0 0 67 -38 0 0
Ligature: 0 0 'liga' A acutecomb
EndChar
StartChar: Agrave
Encoding: 258 192 152
Width: 740
Flags: W
HStem: 0 21G<11 89 648 729> 249 67<284 587> 719 20G<465 548>
DStem: 363 908 403 960 545 792 584 843 465 739 491 655 11 0 284 316 465 739 243 249 11 0 89 0 491 655 548 739 571 316 729 0 587 249 548 739 648 0 729 0
Fore
11 0 m 1
 465 739 l 1
 548 739 l 1
 729 0 l 1
 648 0 l 1
 587 249 l 1
 243 249 l 1
 89 0 l 1
 11 0 l 1
284 316 m 1
 571 316 l 1
 491 655 l 1
 284 316 l 1
403 960 m 1
 584 843 l 1
 545 792 l 1
 363 908 l 1
 403 960 l 1
EndSplineSet
KernsSLIF: 46 10 0 0 44 -8 0 0 89 -80 0 0 87 -50 0 0 86 -75 0 0 85 -32 0 0 84 -56 0 0 81 -39 0 0 79 -39 0 0 71 -39 0 0 67 -38 0 0
Ligature: 0 0 'liga' A gravecomb
EndChar
StartChar: Acircumflex
Encoding: 259 194 153
Width: 740
Flags: W
HStem: 0 21G<11 89 648 729> 249 67<284 587> 719 20G<465 548>
DStem: 465 739 491 655 11 0 284 316 465 739 243 249 11 0 89 0 491 655 548 739 571 316 729 0 504 931 529 879 336 805 427 805 529 879 570 931 601 805 690 805 587 249 548 739 648 0 729 0
Fore
11 0 m 1
 465 739 l 1
 548 739 l 1
 729 0 l 1
 648 0 l 1
 587 249 l 1
 243 249 l 1
 89 0 l 1
 11 0 l 1
284 316 m 1
 571 316 l 1
 491 655 l 1
 284 316 l 1
336 805 m 1
 504 931 l 1
 570 931 l 1
 690 805 l 1
 601 805 l 1
 529 879 l 1
 427 805 l 1
 336 805 l 1
EndSplineSet
KernsSLIF: 46 10 0 0 44 -8 0 0 89 -80 0 0 87 -50 0 0 86 -75 0 0 85 -32 0 0 84 -56 0 0 81 -39 0 0 79 -39 0 0 71 -39 0 0 67 -38 0 0
Ligature: 0 0 'liga' A uni0302
EndChar
StartChar: Abreve
Encoding: 260 258 154
Width: 740
Flags: W
HStem: 0 21G<11 89 648 729> 249 67<284 587> 719 20G<465 548> 809 55<514 540>
DStem: 465 739 491 655 11 0 284 316 465 739 243 249 11 0 89 0 491 655 548 739 571 316 729 0 587 249 548 739 648 0 729 0
Fore
11 0 m 1
 465 739 l 1
 548 739 l 1
 729 0 l 1
 648 0 l 1
 587 249 l 1
 243 249 l 1
 89 0 l 1
 11 0 l 1
284 316 m 1
 571 316 l 1
 491 655 l 1
 284 316 l 1
384 925 m 1
 448 925 l 1
 451 900 456 889 467 880 c 0
 477 871 506 864 529 864 c 0
 553 864 586 873 603 884 c 0
 621 896 628 905 635 925 c 1
 688 925 l 1
 675 882 658 859 624 837 c 0
 594 818 559 809 516 809 c 0
 471 809 437 820 413 843 c 0
 394 862 386 882 384 925 c 1
EndSplineSet
Ligature: 0 0 'liga' A uni0306
EndChar
StartChar: Atilde
Encoding: 261 195 155
Width: 740
Flags: W
HStem: 0 21G<11 89 648 729> 249 67<284 587> 719 20G<465 548> 815 63<569 587> 851 63<458 471>
DStem: 465 739 491 655 11 0 284 316 465 739 243 249 11 0 89 0 491 655 548 739 571 316 729 0 587 249 548 739 648 0 729 0
Fore
11 0 m 1xe0
 465 739 l 1
 548 739 l 1
 729 0 l 1
 648 0 l 1
 587 249 l 1
 243 249 l 1
 89 0 l 1
 11 0 l 1xe0
284 316 m 1
 571 316 l 1
 491 655 l 1
 284 316 l 1
645 916 m 1
 666 870 l 1
 640 835 607 815 574 815 c 0xf0
 555 815 523 826 478 847 c 0
 473 850 467 851 461 851 c 0
 449 851 445 849 428 836 c 0
 423 832 417 828 411 824 c 0
 410 823 407 821 403 819 c 1
 380 864 l 1
 411 895 444 914 469 914 c 0xe8
 478 914 489 911 502 905 c 0
 514 899 526 894 538 889 c 0
 557 880 564 878 575 878 c 0xf0
 599 878 622 890 645 916 c 1
EndSplineSet
KernsSLIF: 46 10 0 0 44 -8 0 0 89 -80 0 0 87 -50 0 0 86 -75 0 0 85 -32 0 0 84 -56 0 0 81 -39 0 0 79 -39 0 0 71 -39 0 0 67 -38 0 0
Ligature: 0 0 'liga' A tildecomb
EndChar
StartChar: Aring
Encoding: 262 197 156
Width: 740
Flags: W
HStem: 0 21G<11 89 648 729> 249 67<284 587> 719 20G<465 548> 788 40<506 524> 932 40<534 545>
VStem: 434 38<859 872> 583 37<886 898>
DStem: 465 739 491 655 11 0 284 316 465 739 243 249 11 0 89 0 491 655 548 739 571 316 729 0 587 249 548 739 648 0 729 0
Fore
11 0 m 1
 465 739 l 1
 548 739 l 1
 729 0 l 1
 648 0 l 1
 587 249 l 1
 243 249 l 1
 89 0 l 1
 11 0 l 1
284 316 m 1
 571 316 l 1
 491 655 l 1
 284 316 l 1
543 972 m 0
 589 972 620 942 620 898 c 0
 620 839 569 788 510 788 c 0
 466 788 434 818 434 859 c 0
 434 920 484 972 543 972 c 0
536 932 m 0
 504 932 472 902 472 870 c 0
 472 846 491 828 517 828 c 0
 550 828 583 858 583 888 c 0
 583 912 562 932 536 932 c 0
EndSplineSet
KernsSLIF: 121 -39 0 0 119 -36 0 0 118 -42 0 0 117 -15 0 0 116 -31 0 0 39 -95 0 0 186 -93 0 0 113 -21 0 0 46 10 0 0 111 -21 0 0 45 8 0 0 172 -24 0 0 171 -24 0 0 103 -23 0 0 101 -22 0 0 100 -22 0 0 44 -8 0 0 99 -22 0 0 97 -22 0 0 89 -80 0 0 87 -50 0 0 86 -75 0 0 85 -32 0 0 84 -56 0 0 81 -39 0 0 79 -39 0 0 71 -39 0 0 67 -38 0 0
Ligature: 0 0 'liga' A uni030A
EndChar
StartChar: Aogonek
Encoding: 263 260 157
Width: 740
Flags: W
HStem: -195 47<672 687> -20 20G<648 677> 249 67<284 587> 719 20G<465 548>
VStem: 583 51<-116 -106>
DStem: 465 739 491 655 11 0 284 316 465 739 243 249 11 0 89 0 491 655 548 739 571 316 729 0 587 249 548 739 648 0 729 0
Fore
548 739 m 1
 729 0 l 1
 671 -34 634 -76 634 -108 c 0
 634 -132 654 -148 685 -148 c 0
 703 -148 720 -144 733 -137 c 1
 725 -182 l 1
 705 -191 691 -195 673 -195 c 0
 622 -195 583 -159 583 -112 c 0
 583 -70 615 -32 677 0 c 1
 648 0 l 1
 587 249 l 1
 243 249 l 1
 89 0 l 1
 11 0 l 1
 465 739 l 1
 548 739 l 1
284 316 m 1
 571 316 l 1
 491 655 l 1
 284 316 l 1
EndSplineSet
Ligature: 0 0 'liga' A uni0328
EndChar
StartChar: Ccedilla
Encoding: 264 199 158
Width: 813
Flags: W
HStem: -227 46<381 395> -85 33<408 425> -13 68<418 459> 547 21G<787 869> 684 68<553 571>
VStem: 106 77<288 318> 445 44<-132 -114>
DStem: 383 -10 418 -13 333 -92 391 -60
Fore
418 -13 m 1
 391 -60 l 1
 405 -54 413 -52 425 -52 c 0
 465 -52 489 -77 489 -119 c 0
 489 -179 443 -227 385 -227 c 0
 337 -227 309 -201 307 -153 c 1
 352 -148 l 1
 357 -171 368 -181 390 -181 c 0
 422 -181 445 -157 445 -123 c 0
 445 -101 430 -85 408 -85 c 0
 390 -85 375 -92 359 -109 c 1
 333 -92 l 1
 383 -10 l 1
 216 8 106 128 106 290 c 0
 106 540 319 752 569 752 c 0
 721 752 843 669 869 547 c 1
 787 547 l 1
 767 592 751 613 723 635 c 0
 680 667 623 684 559 684 c 0
 443 684 337 630 263 534 c 0
 210 465 183 388 183 310 c 0
 183 162 293 55 444 55 c 0
 548 55 639 100 725 194 c 1
 807 194 l 1
 720 65 580 -13 438 -13 c 2
 418 -13 l 1
EndSplineSet
KernsSLIF: 65 -30 0 0
Ligature: 0 0 'liga' C uni0327
EndChar
StartChar: Cacute
Encoding: 265 262 159
Width: 813
Flags: W
HStem: -13 68<425 459> 547 21G<787 869> 684 68<553 571>
VStem: 106 77<288 312>
DStem: 711 964 735 906 497 848 521 792
Fore
725 194 m 1
 807 194 l 1
 718 63 581 -13 432 -13 c 0
 239 -13 106 111 106 290 c 0
 106 540 319 752 569 752 c 0
 721 752 843 669 869 547 c 1
 787 547 l 1
 767 592 751 613 723 635 c 0
 680 667 623 684 559 684 c 0
 443 684 337 630 263 534 c 0
 210 465 183 388 183 310 c 0
 183 162 293 55 444 55 c 0
 548 55 639 100 725 194 c 1
497 848 m 1
 711 964 l 1
 735 906 l 1
 521 792 l 1
 497 848 l 1
EndSplineSet
Ligature: 0 0 'liga' C acutecomb
EndChar
StartChar: Ccaron
Encoding: 266 268 160
Width: 813
Flags: W
HStem: -13 68<425 459> 547 21G<787 869> 684 68<553 571>
VStem: 106 77<288 312>
DStem: 447 931 536 931 567 805 608 857 710 931 801 931 608 857 633 805
Fore
725 194 m 1
 807 194 l 1
 718 63 581 -13 432 -13 c 0
 239 -13 106 111 106 290 c 0
 106 540 319 752 569 752 c 0
 721 752 843 669 869 547 c 1
 787 547 l 1
 767 592 751 613 723 635 c 0
 680 667 623 684 559 684 c 0
 443 684 337 630 263 534 c 0
 210 465 183 388 183 310 c 0
 183 162 293 55 444 55 c 0
 548 55 639 100 725 194 c 1
801 931 m 1
 633 805 l 1
 567 805 l 1
 447 931 l 1
 536 931 l 1
 608 857 l 1
 710 931 l 1
 801 931 l 1
EndSplineSet
Ligature: 0 0 'liga' C uni030C
EndChar
StartChar: Dcaron
Encoding: 267 270 161
Width: 744
Flags: W
HStem: 0 67<162 301> 672 67<213 423>
VStem: 697 77<431 450>
DStem: 213 739 275 672 76 0 162 67 332 931 421 931 452 805 493 857 595 931 686 931 493 857 518 805
Fore
76 0 m 1
 213 739 l 1
 387 739 l 2
 520 739 597 722 656 681 c 0
 733 628 774 547 774 448 c 0
 774 312 715 187 609 102 c 0
 519 30 422 0 275 0 c 2
 76 0 l 1
162 67 m 1
 265 67 l 2
 420 67 506 94 582 165 c 0
 653 231 697 336 697 435 c 0
 697 517 664 584 604 625 c 0
 556 657 486 672 378 672 c 2
 275 672 l 1
 162 67 l 1
686 931 m 1
 518 805 l 1
 452 805 l 1
 332 931 l 1
 421 931 l 1
 493 857 l 1
 595 931 l 1
 686 931 l 1
EndSplineSet
Ligature: 0 0 'liga' D uni030C
EndChar
StartChar: Edieresis
Encoding: 268 203 162
Width: 536
Flags: W
HStem: 0 67<162 480> 340 67<225 532> 672 67<213 605>
DStem: 213 739 275 672 76 0 225 407 213 739 213 340 76 0 162 67 337 931 411 931 314 805 388 805 484 931 558 931 461 805 535 805
Fore
76 0 m 1
 213 739 l 1
 617 739 l 1
 605 672 l 1
 275 672 l 1
 225 407 l 1
 544 407 l 1
 532 340 l 1
 213 340 l 1
 162 67 l 1
 492 67 l 1
 480 0 l 1
 76 0 l 1
337 931 m 1
 411 931 l 1
 388 805 l 1
 314 805 l 1
 337 931 l 1
484 931 m 1
 558 931 l 1
 535 805 l 1
 461 805 l 1
 484 931 l 1
EndSplineSet
Ligature: 0 0 'liga' E uni0308
EndChar
StartChar: Eacute
Encoding: 269 201 163
Width: 536
Flags: W
HStem: 0 67<162 480> 340 67<225 532> 672 67<213 605>
DStem: 213 739 275 672 76 0 225 407 213 739 213 340 76 0 162 67 565 964 589 906 351 848 375 792
Fore
76 0 m 1
 213 739 l 1
 617 739 l 1
 605 672 l 1
 275 672 l 1
 225 407 l 1
 544 407 l 1
 532 340 l 1
 213 340 l 1
 162 67 l 1
 492 67 l 1
 480 0 l 1
 76 0 l 1
351 848 m 1
 565 964 l 1
 589 906 l 1
 375 792 l 1
 351 848 l 1
EndSplineSet
Ligature: 0 0 'liga' E acutecomb
EndChar
StartChar: Egrave
Encoding: 270 200 164
Width: 536
Flags: W
HStem: 0 67<162 480> 340 67<225 532> 672 67<213 605>
DStem: 213 739 275 672 76 0 225 407 213 739 213 340 76 0 162 67 293 908 333 960 475 792 514 843
Fore
76 0 m 1
 213 739 l 1
 617 739 l 1
 605 672 l 1
 275 672 l 1
 225 407 l 1
 544 407 l 1
 532 340 l 1
 213 340 l 1
 162 67 l 1
 492 67 l 1
 480 0 l 1
 76 0 l 1
333 960 m 1
 514 843 l 1
 475 792 l 1
 293 908 l 1
 333 960 l 1
EndSplineSet
Ligature: 0 0 'liga' E gravecomb
EndChar
StartChar: Ecircumflex
Encoding: 271 202 165
Width: 536
Flags: W
HStem: 0 67<162 480> 340 67<225 532> 672 67<213 605>
DStem: 213 739 275 672 76 0 225 407 213 739 213 340 76 0 162 67 417 931 442 879 249 805 340 805 442 879 483 931 514 805 603 805
Fore
76 0 m 1
 213 739 l 1
 617 739 l 1
 605 672 l 1
 275 672 l 1
 225 407 l 1
 544 407 l 1
 532 340 l 1
 213 340 l 1
 162 67 l 1
 492 67 l 1
 480 0 l 1
 76 0 l 1
249 805 m 1
 417 931 l 1
 483 931 l 1
 603 805 l 1
 514 805 l 1
 442 879 l 1
 340 805 l 1
 249 805 l 1
EndSplineSet
Ligature: 0 0 'liga' E uni0302
EndChar
StartChar: Ecaron
Encoding: 272 282 166
Width: 536
Flags: W
HStem: 0 67<162 480> 340 67<225 532> 672 67<213 605>
DStem: 213 739 275 672 76 0 225 407 213 739 213 340 76 0 162 67 268 931 357 931 388 805 429 857 531 931 622 931 429 857 454 805
Fore
76 0 m 1
 213 739 l 1
 617 739 l 1
 605 672 l 1
 275 672 l 1
 225 407 l 1
 544 407 l 1
 532 340 l 1
 213 340 l 1
 162 67 l 1
 492 67 l 1
 480 0 l 1
 76 0 l 1
622 931 m 1
 454 805 l 1
 388 805 l 1
 268 931 l 1
 357 931 l 1
 429 857 l 1
 531 931 l 1
 622 931 l 1
EndSplineSet
Ligature: 0 0 'liga' E uni030C
EndChar
StartChar: Edotaccent
Encoding: 273 278 167
Width: 536
Flags: W
HStem: 0 67<162 480> 340 67<225 532> 672 67<213 605>
DStem: 213 739 275 672 76 0 225 407 213 739 213 340 76 0 162 67 408 931 482 931 385 805 459 805
Fore
76 0 m 1
 213 739 l 1
 617 739 l 1
 605 672 l 1
 275 672 l 1
 225 407 l 1
 544 407 l 1
 532 340 l 1
 213 340 l 1
 162 67 l 1
 492 67 l 1
 480 0 l 1
 76 0 l 1
408 931 m 1
 482 931 l 1
 459 805 l 1
 385 805 l 1
 408 931 l 1
EndSplineSet
Ligature: 0 0 'liga' E uni0307
EndChar
StartChar: Eogonek
Encoding: 274 280 168
Width: 536
Flags: W
HStem: -195 47<423 438> 0 67<162 428> 340 67<225 532> 672 67<213 605>
VStem: 334 51<-116 -106>
DStem: 213 739 275 672 76 0 225 407 213 739 213 340 76 0 162 67
Fore
213 739 m 1
 617 739 l 1
 605 672 l 1
 275 672 l 1
 225 407 l 1
 544 407 l 1
 532 340 l 1
 213 340 l 1
 162 67 l 1
 492 67 l 1
 480 0 l 1
 422 -34 385 -76 385 -108 c 0
 385 -132 405 -148 436 -148 c 0
 454 -148 471 -144 484 -137 c 1
 476 -182 l 1
 456 -191 442 -195 424 -195 c 0
 373 -195 334 -159 334 -112 c 0
 334 -70 366 -32 428 0 c 1
 76 0 l 1
 213 739 l 1
EndSplineSet
Ligature: 0 0 'liga' E uni0328
EndChar
StartChar: Gbreve
Encoding: 275 286 169
Width: 872
Flags: W
HStem: -13 68<435 476> 274 67<390 793> 684 68<554 588> 809 55<567 588>
VStem: 107 77<290 324>
Fore
391 341 m 1
 894 341 l 1
 873 257 826 179 755 112 c 0
 666 30 562 -13 446 -13 c 0
 247 -13 107 116 107 300 c 0
 107 539 327 752 575 752 c 0
 736 752 859 669 887 542 c 1
 803 542 l 1
 772 629 683 684 572 684 c 0
 363 684 184 512 184 312 c 0
 184 239 205 182 249 136 c 0
 298 85 375 55 455 55 c 0
 595 55 729 142 793 274 c 1
 379 274 l 1
 391 341 l 1
437 925 m 1
 501 925 l 1
 504 900 509 889 520 880 c 0
 530 871 559 864 582 864 c 0
 606 864 639 873 656 884 c 0
 674 896 681 905 688 925 c 1
 741 925 l 1
 728 882 711 859 677 837 c 0
 647 818 612 809 569 809 c 0
 524 809 490 820 466 843 c 0
 447 862 439 882 437 925 c 1
EndSplineSet
Ligature: 0 0 'liga' G uni0306
EndChar
StartChar: Idieresis
Encoding: 276 207 170
Width: 226
Flags: W
HStem: 0 21G<76 150> 719 20G<213 287>
DStem: 175 931 249 931 152 805 226 805 213 739 287 739 76 0 150 0 322 931 396 931 299 805 373 805
Fore
76 0 m 1
 213 739 l 1
 287 739 l 1
 150 0 l 1
 76 0 l 1
175 931 m 1
 249 931 l 1
 226 805 l 1
 152 805 l 1
 175 931 l 1
322 931 m 1
 396 931 l 1
 373 805 l 1
 299 805 l 1
 322 931 l 1
EndSplineSet
Ligature: 0 0 'liga' I uni0308
EndChar
StartChar: Iacute
Encoding: 277 205 171
Width: 226
Flags: W
HStem: 0 21G<76 150> 719 20G<213 287>
DStem: 213 739 287 739 76 0 150 0 338 964 362 906 124 848 148 792
Fore
76 0 m 1
 213 739 l 1
 287 739 l 1
 150 0 l 1
 76 0 l 1
124 848 m 1
 338 964 l 1
 362 906 l 1
 148 792 l 1
 124 848 l 1
EndSplineSet
Ligature: 0 0 'liga' I acutecomb
EndChar
StartChar: Igrave
Encoding: 278 204 172
Width: 226
Flags: W
HStem: 0 21G<76 150> 719 20G<213 287>
DStem: 167 908 207 960 349 792 388 843 213 739 287 739 76 0 150 0
Fore
76 0 m 1
 213 739 l 1
 287 739 l 1
 150 0 l 1
 76 0 l 1
207 960 m 1
 388 843 l 1
 349 792 l 1
 167 908 l 1
 207 960 l 1
EndSplineSet
Ligature: 0 0 'liga' I gravecomb
EndChar
StartChar: Icircumflex
Encoding: 279 206 173
Width: 226
Flags: W
HStem: 0 21G<76 150> 719 20G<213 287>
DStem: 213 739 287 739 76 0 150 0 253 931 278 879 85 805 176 805 278 879 319 931 350 805 439 805
Fore
76 0 m 1
 213 739 l 1
 287 739 l 1
 150 0 l 1
 76 0 l 1
85 805 m 1
 253 931 l 1
 319 931 l 1
 439 805 l 1
 350 805 l 1
 278 879 l 1
 176 805 l 1
 85 805 l 1
EndSplineSet
Ligature: 0 0 'liga' I uni0302
EndChar
StartChar: Idotaccent
Encoding: 280 304 174
Width: 226
Flags: W
HStem: 0 21G<76 150> 719 20G<213 287>
DStem: 213 739 287 739 76 0 150 0 249 931 323 931 226 805 300 805
Fore
76 0 m 1
 213 739 l 1
 287 739 l 1
 150 0 l 1
 76 0 l 1
249 931 m 1
 323 931 l 1
 300 805 l 1
 226 805 l 1
 249 931 l 1
EndSplineSet
Ligature: 0 0 'liga' I uni0307
EndChar
StartChar: Lacute
Encoding: 281 313 175
Width: 462
Flags: W
HStem: 0 67<162 456> 719 20G<213 287>
DStem: 213 739 287 739 76 0 162 67 456 964 480 906 242 848 266 792
Fore
76 0 m 1
 213 739 l 1
 287 739 l 1
 162 67 l 1
 468 67 l 1
 456 0 l 1
 76 0 l 1
242 848 m 1
 456 964 l 1
 480 906 l 1
 266 792 l 1
 242 848 l 1
EndSplineSet
Ligature: 0 0 'liga' L acutecomb
EndChar
StartChar: Lcaron
Encoding: 282 317 176
Width: 462
Flags: W
HStem: 0 67<162 456> 547 21G<367 438> 719 20G<213 287 448 522>
DStem: 213 739 287 739 76 0 162 67 448 739 522 739 367 547 438 547
Fore
76 0 m 1
 213 739 l 1
 287 739 l 1
 162 67 l 1
 468 67 l 1
 456 0 l 1
 76 0 l 1
367 547 m 1
 448 739 l 1
 522 739 l 1
 438 547 l 1
 367 547 l 1
EndSplineSet
Ligature: 0 0 'liga' L uni030C
EndChar
StartChar: Nacute
Encoding: 283 323 177
Width: 740
Flags: W
HStem: 0 21G<76 150 590 664> 719 20G<213 313 727 801>
DStem: 213 739 270 650 76 0 150 0 270 650 313 739 590 0 613 126 635 964 659 906 421 848 445 792 727 739 801 739 613 126 664 0
Fore
76 0 m 1
 213 739 l 1
 313 739 l 1
 613 126 l 1
 727 739 l 1
 801 739 l 1
 664 0 l 1
 590 0 l 1
 270 650 l 1
 150 0 l 1
 76 0 l 1
421 848 m 1
 635 964 l 1
 659 906 l 1
 445 792 l 1
 421 848 l 1
EndSplineSet
Ligature: 0 0 'liga' N acutecomb
EndChar
StartChar: Ncaron
Encoding: 284 327 178
Width: 740
Flags: W
HStem: 0 21G<76 150 590 664> 719 20G<213 313 727 801>
DStem: 213 739 270 650 76 0 150 0 270 650 313 739 590 0 613 126 370 931 459 931 490 805 531 857 633 931 724 931 531 857 556 805 727 739 801 739 613 126 664 0
Fore
76 0 m 1
 213 739 l 1
 313 739 l 1
 613 126 l 1
 727 739 l 1
 801 739 l 1
 664 0 l 1
 590 0 l 1
 270 650 l 1
 150 0 l 1
 76 0 l 1
724 931 m 1
 556 805 l 1
 490 805 l 1
 370 931 l 1
 459 931 l 1
 531 857 l 1
 633 931 l 1
 724 931 l 1
EndSplineSet
Ligature: 0 0 'liga' N uni030C
EndChar
StartChar: Ntilde
Encoding: 285 209 179
Width: 740
Flags: W
HStem: 0 21G<76 150 590 664> 719 20G<213 313 727 801> 815 63<571 593> 851 63<465 477>
DStem: 213 739 270 650 76 0 150 0 270 650 313 739 590 0 613 126 727 739 801 739 613 126 664 0
Fore
76 0 m 1xc0
 213 739 l 1
 313 739 l 1
 613 126 l 1
 727 739 l 1
 801 739 l 1
 664 0 l 1
 590 0 l 1
 270 650 l 1
 150 0 l 1
 76 0 l 1xc0
651 916 m 1
 672 870 l 1
 646 835 613 815 580 815 c 0xe0
 561 815 529 826 484 847 c 0
 479 850 473 851 467 851 c 0
 455 851 451 849 434 836 c 0
 429 832 423 828 417 824 c 0
 416 823 413 821 409 819 c 1
 386 864 l 1
 417 895 450 914 475 914 c 0xd0
 484 914 495 911 508 905 c 0
 520 899 532 894 544 889 c 0
 563 880 570 878 581 878 c 0xe0
 605 878 628 890 651 916 c 1
EndSplineSet
Ligature: 0 0 'liga' N tildecomb
EndChar
StartChar: Odieresis
Encoding: 286 214 180
Width: 869
Flags: W
HStem: -13 68<425 442> 684 68<553 580>
VStem: 106 77<300 324> 823 77<418 438>
DStem: 493 931 567 931 470 805 544 805 640 931 714 931 617 805 691 805
Fore
578 752 m 0
 681 752 779 705 839 626 c 0
 880 571 900 511 900 436 c 0
 900 203 673 -13 428 -13 c 0
 325 -13 223 36 166 113 c 0
 128 164 106 234 106 302 c 0
 106 536 333 752 578 752 c 0
560 684 m 0
 369 684 183 503 183 316 c 0
 183 170 296 55 440 55 c 0
 638 55 823 232 823 422 c 0
 823 574 713 684 560 684 c 0
493 931 m 1
 567 931 l 1
 544 805 l 1
 470 805 l 1
 493 931 l 1
640 931 m 1
 714 931 l 1
 691 805 l 1
 617 805 l 1
 640 931 l 1
EndSplineSet
KernsSLIF: 89 -47 0 0 88 -34 0 0 87 -16 0 0 86 -39 0 0 84 -44 0 0 65 -43 0 0
Ligature: 0 0 'liga' O uni0308
EndChar
StartChar: Oacute
Encoding: 287 211 181
Width: 869
Flags: W
HStem: -13 68<425 442> 684 68<553 580>
VStem: 106 77<300 324> 823 77<418 438>
DStem: 721 964 745 906 507 848 531 792
Fore
578 752 m 0
 681 752 779 705 839 626 c 0
 880 571 900 511 900 436 c 0
 900 203 673 -13 428 -13 c 0
 325 -13 223 36 166 113 c 0
 128 164 106 234 106 302 c 0
 106 536 333 752 578 752 c 0
560 684 m 0
 369 684 183 503 183 316 c 0
 183 170 296 55 440 55 c 0
 638 55 823 232 823 422 c 0
 823 574 713 684 560 684 c 0
507 848 m 1
 721 964 l 1
 745 906 l 1
 531 792 l 1
 507 848 l 1
EndSplineSet
KernsSLIF: 89 -47 0 0 87 -16 0 0 86 -39 0 0 84 -44 0 0 65 -43 0 0
Ligature: 0 0 'liga' O acutecomb
EndChar
StartChar: Ograve
Encoding: 288 210 182
Width: 869
Flags: W
HStem: -13 68<425 451> 684 68<553 580>
VStem: 106 77<300 324> 823 77<418 438>
DStem: 449 908 489 960 631 792 670 843
Fore
578 752 m 0
 681 752 779 705 839 626 c 0
 880 571 900 511 900 436 c 0
 900 203 673 -13 428 -13 c 0
 325 -13 223 36 166 113 c 0
 128 164 106 234 106 302 c 0
 106 536 333 752 578 752 c 0
560 684 m 0
 369 684 183 503 183 316 c 0
 183 170 296 55 440 55 c 0
 638 55 823 232 823 422 c 0
 823 574 713 684 560 684 c 0
489 960 m 1
 670 843 l 1
 631 792 l 1
 449 908 l 1
 489 960 l 1
EndSplineSet
KernsSLIF: 89 -47 0 0 86 -39 0 0 84 -44 0 0
Ligature: 0 0 'liga' O gravecomb
EndChar
StartChar: Ocircumflex
Encoding: 289 212 183
Width: 869
Flags: W
HStem: -13 68<425 442> 684 68<553 580>
VStem: 106 77<300 324> 823 77<418 438>
DStem: 573 931 598 879 405 805 496 805 598 879 639 931 670 805 759 805
Fore
578 752 m 0
 681 752 779 705 839 626 c 0
 880 571 900 511 900 436 c 0
 900 203 673 -13 428 -13 c 0
 325 -13 223 36 166 113 c 0
 128 164 106 234 106 302 c 0
 106 536 333 752 578 752 c 0
560 684 m 0
 369 684 183 503 183 316 c 0
 183 170 296 55 440 55 c 0
 638 55 823 232 823 422 c 0
 823 574 713 684 560 684 c 0
405 805 m 1
 573 931 l 1
 639 931 l 1
 759 805 l 1
 670 805 l 1
 598 879 l 1
 496 805 l 1
 405 805 l 1
EndSplineSet
KernsSLIF: 89 -47 0 0 86 -39 0 0 84 -44 0 0
Ligature: 0 0 'liga' O uni0302
EndChar
StartChar: Otilde
Encoding: 290 213 184
Width: 869
Flags: W
HStem: -13 68<425 449> 684 68<553 580> 815 63<633 651> 851 63<526 538>
VStem: 106 77<300 324> 823 77<418 438>
Fore
578 752 m 0xcc
 681 752 779 705 839 626 c 0
 880 571 900 511 900 436 c 0
 900 203 673 -13 428 -13 c 0
 325 -13 223 36 166 113 c 0
 128 164 106 234 106 302 c 0
 106 536 333 752 578 752 c 0xcc
560 684 m 0
 369 684 183 503 183 316 c 0
 183 170 296 55 440 55 c 0
 638 55 823 232 823 422 c 0
 823 574 713 684 560 684 c 0
712 916 m 1
 733 870 l 1
 707 835 674 815 641 815 c 0xec
 622 815 590 826 545 847 c 0
 540 850 534 851 528 851 c 0
 516 851 512 849 495 836 c 0
 490 832 484 828 478 824 c 0
 477 823 474 821 470 819 c 1
 447 864 l 1
 478 895 511 914 536 914 c 0xdc
 545 914 556 911 569 905 c 0
 581 899 593 894 605 889 c 0
 624 880 631 878 642 878 c 0xec
 666 878 689 890 712 916 c 1
EndSplineSet
KernsSLIF: 89 -47 0 0 86 -39 0 0 84 -44 0 0
Ligature: 0 0 'liga' O tildecomb
EndChar
StartChar: Ohungarumlaut
Encoding: 291 336 185
Width: 869
Flags: W
HStem: -13 68<423 442> 684 68<553 580>
VStem: 106 77<300 324> 823 77<418 438>
DStem: 588 962 619 912 396 840 425 790 784 962 814 912 591 840 620 790
Fore
578 752 m 0
 681 752 779 705 839 626 c 0
 880 571 900 511 900 436 c 0
 900 203 673 -13 428 -13 c 0
 325 -13 223 36 166 113 c 0
 128 164 106 234 106 302 c 0
 106 536 333 752 578 752 c 0
560 684 m 0
 369 684 183 503 183 316 c 0
 183 170 296 55 440 55 c 0
 638 55 823 232 823 422 c 0
 823 574 713 684 560 684 c 0
396 840 m 1
 588 962 l 1
 619 912 l 1
 425 790 l 1
 396 840 l 1
591 840 m 1
 784 962 l 1
 814 912 l 1
 620 790 l 1
 591 840 l 1
EndSplineSet
Ligature: 0 0 'liga' O uni030B
EndChar
StartChar: Racute
Encoding: 292 340 186
Width: 607
Flags: W
HStem: 0 21G<76 150 474 566> 672 67<213 412>
VStem: 596 77<527 561>
DStem: 213 739 275 672 76 0 150 0 287 335 410 276 474 0 566 0 548 964 572 906 334 848 358 792
Fore
410 276 m 1
 566 0 l 1
 474 0 l 1
 287 335 l 1
 396 335 443 341 487 359 c 0
 551 386 596 461 596 541 c 0
 596 635 535 672 379 672 c 2
 275 672 l 1
 150 0 l 1
 76 0 l 1
 213 739 l 1
 396 739 l 2
 493 739 550 729 594 704 c 0
 645 675 673 622 673 553 c 0
 673 401 566 289 410 276 c 1
334 848 m 1
 548 964 l 1
 572 906 l 1
 358 792 l 1
 334 848 l 1
EndSplineSet
Ligature: 0 0 'liga' R acutecomb
EndChar
StartChar: Rcaron
Encoding: 293 344 187
Width: 607
Flags: W
HStem: 0 21G<76 150 474 566> 672 67<213 412>
VStem: 596 77<527 561>
DStem: 213 739 275 672 76 0 150 0 264 931 353 931 384 805 425 857 287 335 410 276 474 0 566 0 527 931 618 931 425 857 450 805
Fore
410 276 m 1
 566 0 l 1
 474 0 l 1
 287 335 l 1
 396 335 443 341 487 359 c 0
 551 386 596 461 596 541 c 0
 596 635 535 672 379 672 c 2
 275 672 l 1
 150 0 l 1
 76 0 l 1
 213 739 l 1
 396 739 l 2
 493 739 550 729 594 704 c 0
 645 675 673 622 673 553 c 0
 673 401 566 289 410 276 c 1
618 931 m 1
 450 805 l 1
 384 805 l 1
 264 931 l 1
 353 931 l 1
 425 857 l 1
 527 931 l 1
 618 931 l 1
EndSplineSet
Ligature: 0 0 'liga' R uni030C
EndChar
StartChar: Sacute
Encoding: 294 346 188
Width: 498
Flags: W
HStem: -13 68<247 266> 552 21G<484 561> 684 68<375 393>
VStem: 56 81<165 207> 145 77<518 533> 441 77<226 248> 484 80<552 590>
DStem: 514 964 538 906 300 848 324 792
Fore
58 207 m 1xfc
 137 207 l 1
 137 160 142 133 155 110 c 0
 174 76 216 55 264 55 c 0
 360 55 441 136 441 232 c 0xfc
 441 293 408 323 302 356 c 0
 228 379 198 395 176 422 c 0
 157 445 145 484 145 520 c 0
 145 570 169 627 207 671 c 0
 252 723 319 752 391 752 c 0
 495 752 564 688 564 590 c 0
 564 580 563 570 561 552 c 1
 484 552 l 1xfa
 484 600 480 620 466 640 c 0
 446 669 415 684 378 684 c 0
 330 684 286 663 258 627 c 0
 237 599 222 559 222 531 c 0
 222 511 232 481 244 469 c 0
 258 454 273 447 345 423 c 0
 429 394 464 376 486 347 c 0
 507 321 518 286 518 246 c 0
 518 188 493 127 450 78 c 0
 397 19 328 -13 249 -13 c 0
 135 -13 56 60 56 165 c 0
 56 177 57 191 58 207 c 1xfc
300 848 m 1
 514 964 l 1
 538 906 l 1
 324 792 l 1
 300 848 l 1
EndSplineSet
Ligature: 0 0 'liga' S acutecomb
EndChar
StartChar: Scaron
Encoding: 295 352 189
Width: 498
Flags: W
HStem: -13 68<246 266> 552 21G<484 561> 684 68<375 393>
VStem: 56 81<165 207> 145 77<518 533> 441 77<226 248> 484 80<552 590>
DStem: 245 931 334 931 365 805 406 857 508 931 599 931 406 857 431 805
Fore
58 207 m 1xfc
 137 207 l 1
 137 160 142 133 155 110 c 0
 174 76 216 55 264 55 c 0
 360 55 441 136 441 232 c 0xfc
 441 293 408 323 302 356 c 0
 228 379 198 395 176 422 c 0
 157 445 145 484 145 520 c 0
 145 570 169 627 207 671 c 0
 252 723 319 752 391 752 c 0
 495 752 564 688 564 590 c 0
 564 580 563 570 561 552 c 1
 484 552 l 1xfa
 484 600 480 620 466 640 c 0
 446 669 415 684 378 684 c 0
 330 684 286 663 258 627 c 0
 237 599 222 559 222 531 c 0
 222 511 232 481 244 469 c 0
 258 454 273 447 345 423 c 0
 429 394 464 376 486 347 c 0
 507 321 518 286 518 246 c 0
 518 188 493 127 450 78 c 0
 397 19 328 -13 249 -13 c 0
 135 -13 56 60 56 165 c 0
 56 177 57 191 58 207 c 1xfc
599 931 m 1
 431 805 l 1
 365 805 l 1
 245 931 l 1
 334 931 l 1
 406 857 l 1
 508 931 l 1
 599 931 l 1
EndSplineSet
Ligature: 0 0 'liga' S uni030C
EndChar
StartChar: Scedilla
Encoding: 296 350 190
Width: 498
Flags: W
HStem: -227 46<205 224> -85 33<235 251> -13 68<244 272> 552 21G<484 561> 684 68<375 393>
VStem: 56 81<165 207> 145 77<518 533> 272 43<-132 -114> 441 77<230 248> 484 80<552 590>
DStem: 209 -10 244 -13 159 -92 217 -60
Fore
244 -13 m 1xff80
 217 -60 l 1
 231 -54 239 -52 251 -52 c 0
 291 -52 315 -77 315 -119 c 0
 315 -179 269 -227 211 -227 c 0
 163 -227 135 -201 133 -153 c 1
 178 -148 l 1
 183 -171 194 -181 217 -181 c 0
 249 -181 272 -157 272 -123 c 0
 272 -101 256 -85 235 -85 c 0
 216 -85 202 -92 185 -109 c 1
 159 -92 l 1
 209 -10 l 1
 116 5 56 74 56 165 c 0
 56 177 57 191 58 207 c 1
 137 207 l 1
 137 160 142 133 155 110 c 0
 174 76 216 55 264 55 c 0
 360 55 441 136 441 232 c 0xff80
 441 293 408 323 302 356 c 0
 228 379 198 395 176 422 c 0
 157 445 145 484 145 520 c 0
 145 570 169 627 207 671 c 0
 252 723 319 752 391 752 c 0
 495 752 564 688 564 590 c 0
 564 580 563 570 561 552 c 1
 484 552 l 1xff40
 484 600 480 620 466 640 c 0
 446 669 415 684 378 684 c 0
 330 684 286 663 258 627 c 0
 237 599 222 559 222 531 c 0
 222 511 232 481 244 469 c 0
 258 454 273 447 345 423 c 0
 429 394 464 376 486 347 c 0
 507 321 518 286 518 246 c 0
 518 177 484 105 426 54 c 0
 374 8 318 -13 244 -13 c 1xff80
EndSplineSet
Ligature: 0 0 'liga' S uni0327
EndChar
StartChar: Tcaron
Encoding: 297 356 191
Width: 426
Flags: W
HStem: 0 21G<176 250> 672 67<143 301 144 544>
DStem: 206 931 295 931 326 805 367 857 301 672 375 672 176 0 250 0 469 931 560 931 367 857 392 805
Fore
176 0 m 1
 301 672 l 1
 132 672 l 1
 144 739 l 1
 556 739 l 1
 544 672 l 1
 375 672 l 1
 250 0 l 1
 176 0 l 1
560 931 m 1
 392 805 l 1
 326 805 l 1
 206 931 l 1
 295 931 l 1
 367 857 l 1
 469 931 l 1
 560 931 l 1
EndSplineSet
Ligature: 0 0 'liga' T uni030C
EndChar
StartChar: Udieresis
Encoding: 298 220 192
Width: 655
Flags: W
HStem: -13 68<324 344> 719 20G<215 289 642 716>
VStem: 119 76<171 196>
DStem: 215 739 289 739 130 278 204 278 388 931 462 931 365 805 439 805 535 931 609 931 512 805 586 805 642 739 716 739 557 278 631 278
Fore
215 739 m 1
 289 739 l 1
 204 278 l 2
 198 246 195 215 195 188 c 0
 195 109 253 55 339 55 c 0
 397 55 456 82 494 125 c 0
 524 159 544 210 557 278 c 1
 642 739 l 1
 716 739 l 1
 631 278 l 1
 614 184 588 127 542 78 c 0
 487 20 409 -13 326 -13 c 0
 204 -13 119 63 119 173 c 0
 119 203 123 239 130 278 c 2
 215 739 l 1
388 931 m 1
 462 931 l 1
 439 805 l 1
 365 805 l 1
 388 931 l 1
535 931 m 1
 609 931 l 1
 586 805 l 1
 512 805 l 1
 535 931 l 1
EndSplineSet
KernsSLIF: 114 5 0 0 46 -20 0 0 112 6 0 0 110 6 0 0 109 6 0 0 44 -39 0 0 98 5 0 0 65 -34 0 0
Ligature: 0 0 'liga' U uni0308
EndChar
StartChar: Uacute
Encoding: 299 218 193
Width: 655
Flags: W
HStem: -13 68<324 344> 719 20G<215 289 642 716>
VStem: 119 76<171 196>
DStem: 215 739 289 739 130 278 204 278 620 964 644 906 406 848 430 792 642 739 716 739 557 278 631 278
Fore
215 739 m 1
 289 739 l 1
 204 278 l 2
 198 246 195 215 195 188 c 0
 195 109 253 55 339 55 c 0
 397 55 456 82 494 125 c 0
 524 159 544 210 557 278 c 1
 642 739 l 1
 716 739 l 1
 631 278 l 1
 614 184 588 127 542 78 c 0
 487 20 409 -13 326 -13 c 0
 204 -13 119 63 119 173 c 0
 119 203 123 239 130 278 c 2
 215 739 l 1
406 848 m 1
 620 964 l 1
 644 906 l 1
 430 792 l 1
 406 848 l 1
EndSplineSet
KernsSLIF: 114 5 0 0 46 -20 0 0 112 6 0 0 110 6 0 0 109 6 0 0 44 -39 0 0 65 -34 0 0
Ligature: 0 0 'liga' U acutecomb
EndChar
StartChar: Ugrave
Encoding: 300 217 194
Width: 655
Flags: W
HStem: -13 68<324 343> 719 20G<215 289 642 716>
VStem: 119 76<171 196>
DStem: 215 739 289 739 130 278 204 278 340 908 380 960 522 792 561 843 642 739 716 739 557 278 631 278
Fore
215 739 m 1
 289 739 l 1
 204 278 l 2
 198 246 195 215 195 188 c 0
 195 109 253 55 339 55 c 0
 397 55 456 82 494 125 c 0
 524 159 544 210 557 278 c 1
 642 739 l 1
 716 739 l 1
 631 278 l 1
 614 184 588 127 542 78 c 0
 487 20 409 -13 326 -13 c 0
 204 -13 119 63 119 173 c 0
 119 203 123 239 130 278 c 2
 215 739 l 1
380 960 m 1
 561 843 l 1
 522 792 l 1
 340 908 l 1
 380 960 l 1
EndSplineSet
KernsSLIF: 65 -34 0 0
Ligature: 0 0 'liga' U gravecomb
EndChar
StartChar: Ucircumflex
Encoding: 301 219 195
Width: 655
Flags: W
HStem: -13 68<324 344> 719 20G<215 289 642 716>
VStem: 119 76<171 196>
DStem: 215 739 289 739 130 278 204 278 465 931 490 879 297 805 388 805 490 879 531 931 562 805 651 805 642 739 716 739 557 278 631 278
Fore
215 739 m 1
 289 739 l 1
 204 278 l 2
 198 246 195 215 195 188 c 0
 195 109 253 55 339 55 c 0
 397 55 456 82 494 125 c 0
 524 159 544 210 557 278 c 1
 642 739 l 1
 716 739 l 1
 631 278 l 1
 614 184 588 127 542 78 c 0
 487 20 409 -13 326 -13 c 0
 204 -13 119 63 119 173 c 0
 119 203 123 239 130 278 c 2
 215 739 l 1
297 805 m 1
 465 931 l 1
 531 931 l 1
 651 805 l 1
 562 805 l 1
 490 879 l 1
 388 805 l 1
 297 805 l 1
EndSplineSet
KernsSLIF: 65 -34 0 0
Ligature: 0 0 'liga' U uni0302
EndChar
StartChar: Uring
Encoding: 302 366 196
Width: 655
Flags: W
HStem: -13 68<324 344> 719 20G<215 289 642 716> 788 40<468 479> 932 40<492 505>
VStem: 119 76<171 196> 394 38<859 872> 543 37<886 898>
DStem: 215 739 289 739 130 278 204 278 642 739 716 739 557 278 631 278
Fore
215 739 m 1
 289 739 l 1
 204 278 l 2
 198 246 195 215 195 188 c 0
 195 109 253 55 339 55 c 0
 397 55 456 82 494 125 c 0
 524 159 544 210 557 278 c 1
 642 739 l 1
 716 739 l 1
 631 278 l 1
 614 184 588 127 542 78 c 0
 487 20 409 -13 326 -13 c 0
 204 -13 119 63 119 173 c 0
 119 203 123 239 130 278 c 2
 215 739 l 1
503 972 m 0
 549 972 580 942 580 898 c 0
 580 839 529 788 470 788 c 0
 426 788 394 818 394 859 c 0
 394 920 444 972 503 972 c 0
496 932 m 0
 464 932 432 902 432 870 c 0
 432 846 451 828 477 828 c 0
 510 828 543 858 543 888 c 0
 543 912 522 932 496 932 c 0
EndSplineSet
Ligature: 0 0 'liga' U uni030A
EndChar
StartChar: Uhungarumlaut
Encoding: 303 368 197
Width: 655
Flags: W
HStem: -13 68<319 344> 719 20G<215 289 642 716>
VStem: 119 76<171 196>
DStem: 215 739 289 739 130 278 204 278 481 962 512 912 289 840 318 790 642 739 716 739 557 278 631 278 677 962 707 912 484 840 513 790
Fore
215 739 m 1
 289 739 l 1
 204 278 l 2
 198 246 195 215 195 188 c 0
 195 109 253 55 339 55 c 0
 397 55 456 82 494 125 c 0
 524 159 544 210 557 278 c 1
 642 739 l 1
 716 739 l 1
 631 278 l 1
 614 184 588 127 542 78 c 0
 487 20 409 -13 326 -13 c 0
 204 -13 119 63 119 173 c 0
 119 203 123 239 130 278 c 2
 215 739 l 1
289 840 m 1
 481 962 l 1
 512 912 l 1
 318 790 l 1
 289 840 l 1
484 840 m 1
 677 962 l 1
 707 912 l 1
 513 790 l 1
 484 840 l 1
EndSplineSet
Ligature: 0 0 'liga' U uni030B
EndChar
StartChar: Yacute
Encoding: 304 221 198
Width: 592
Flags: W
HStem: 0 21G<258 332> 719 20G<139 221 646 727>
DStem: 139 739 221 739 304 247 354 325 304 247 378 247 258 0 332 0 581 964 605 906 367 848 391 792 646 739 727 739 354 325 378 247
Fore
258 0 m 1
 304 247 l 1
 139 739 l 1
 221 739 l 1
 354 325 l 1
 646 739 l 1
 727 739 l 1
 378 247 l 1
 332 0 l 1
 258 0 l 1
367 848 m 1
 581 964 l 1
 605 906 l 1
 391 792 l 1
 367 848 l 1
EndSplineSet
MinimumDistance: x2,6 
Ligature: 0 0 'liga' Y acutecomb
EndChar
StartChar: Zacute
Encoding: 305 377 199
Width: 480
Flags: W
HStem: 0 67<113 474> 672 67<164 505>
DStem: 505 672 588 672 29 67 113 67 525 964 549 906 311 848 335 792
Fore
17 0 m 1
 29 67 l 1
 505 672 l 1
 153 672 l 1
 165 739 l 1
 600 739 l 1
 588 672 l 1
 113 67 l 1
 486 67 l 1
 474 0 l 1
 17 0 l 1
311 848 m 1
 525 964 l 1
 549 906 l 1
 335 792 l 1
 311 848 l 1
EndSplineSet
Ligature: 0 0 'liga' Z acutecomb
EndChar
StartChar: Zcaron
Encoding: 306 381 200
Width: 480
Flags: W
HStem: 0 67<113 474> 672 67<164 505>
DStem: 239 931 328 931 359 805 400 857 502 931 593 931 400 857 425 805 505 672 588 672 29 67 113 67
Fore
17 0 m 1
 29 67 l 1
 505 672 l 1
 153 672 l 1
 165 739 l 1
 600 739 l 1
 588 672 l 1
 113 67 l 1
 486 67 l 1
 474 0 l 1
 17 0 l 1
593 931 m 1
 425 805 l 1
 359 805 l 1
 239 931 l 1
 328 931 l 1
 400 857 l 1
 502 931 l 1
 593 931 l 1
EndSplineSet
Ligature: 0 0 'liga' Z uni030C
EndChar
StartChar: Zdotaccent
Encoding: 307 379 201
Width: 480
Flags: W
HStem: 0 67<113 474> 672 67<164 505>
DStem: 380 931 454 931 357 805 431 805 505 672 588 672 29 67 113 67
Fore
17 0 m 1
 29 67 l 1
 505 672 l 1
 153 672 l 1
 165 739 l 1
 600 739 l 1
 588 672 l 1
 113 67 l 1
 486 67 l 1
 474 0 l 1
 17 0 l 1
380 931 m 1
 454 931 l 1
 431 805 l 1
 357 805 l 1
 380 931 l 1
EndSplineSet
Ligature: 0 0 'liga' Z uni0307
EndChar
StartChar: Amacron
Encoding: 308 256 202
Width: 740
Flags: W
HStem: 0 21G<11 89 648 729> 249 67<284 587> 719 20G<465 548> 833 62<347 673>
DStem: 465 739 491 655 11 0 284 316 465 739 243 249 11 0 89 0 491 655 548 739 571 316 729 0 587 249 548 739 648 0 729 0
Fore
11 0 m 1
 465 739 l 1
 548 739 l 1
 729 0 l 1
 648 0 l 1
 587 249 l 1
 243 249 l 1
 89 0 l 1
 11 0 l 1
284 316 m 1
 571 316 l 1
 491 655 l 1
 284 316 l 1
348 895 m 1
 685 895 l 1
 673 833 l 1
 336 833 l 1
 348 895 l 1
EndSplineSet
Ligature: 0 0 'liga' A uni0304
EndChar
StartChar: Tcommaaccent
Encoding: 309 354 203
Width: 426
Flags: W
HStem: 0 21G<176 250> 672 67<143 301 144 544>
DStem: 188 -53 262 -53 104 -232 175 -232 301 672 375 672 176 0 250 0
Fore
176 0 m 1
 301 672 l 1
 132 672 l 1
 144 739 l 1
 556 739 l 1
 544 672 l 1
 375 672 l 1
 250 0 l 1
 176 0 l 1
104 -232 m 1
 188 -53 l 1
 262 -53 l 1
 175 -232 l 1
 104 -232 l 1
EndSplineSet
Ligature: 0 0 'liga' T uni0327
EndChar
StartChar: Ydieresis
Encoding: 310 376 204
Width: 592
Flags: W
HStem: 0 21G<258 332> 719 20G<139 221 646 727>
DStem: 139 739 221 739 304 247 354 325 304 247 378 247 258 0 332 0 357 931 431 931 334 805 408 805 504 931 578 931 481 805 555 805 646 739 727 739 354 325 378 247
Fore
258 0 m 1
 304 247 l 1
 139 739 l 1
 221 739 l 1
 354 325 l 1
 646 739 l 1
 727 739 l 1
 378 247 l 1
 332 0 l 1
 258 0 l 1
357 931 m 1
 431 931 l 1
 408 805 l 1
 334 805 l 1
 357 931 l 1
504 931 m 1
 578 931 l 1
 555 805 l 1
 481 805 l 1
 504 931 l 1
EndSplineSet
MinimumDistance: x2,6 
Ligature: 0 0 'liga' Y uni0308
EndChar
StartChar: Emacron
Encoding: 311 274 205
Width: 536
Flags: W
HStem: 0 67<162 480> 340 67<225 532> 672 67<213 605> 833 62<265 591>
DStem: 213 739 275 672 76 0 225 407 213 739 213 340 76 0 162 67
Fore
76 0 m 1
 213 739 l 1
 617 739 l 1
 605 672 l 1
 275 672 l 1
 225 407 l 1
 544 407 l 1
 532 340 l 1
 213 340 l 1
 162 67 l 1
 492 67 l 1
 480 0 l 1
 76 0 l 1
266 895 m 1
 603 895 l 1
 591 833 l 1
 254 833 l 1
 266 895 l 1
EndSplineSet
Ligature: 0 0 'liga' E uni0304
EndChar
StartChar: Imacron
Encoding: 312 298 206
Width: 226
Flags: W
HStem: 0 21G<76 150> 719 20G<213 287> 833 62<99 425>
DStem: 213 739 287 739 76 0 150 0
Fore
76 0 m 1
 213 739 l 1
 287 739 l 1
 150 0 l 1
 76 0 l 1
100 895 m 1
 437 895 l 1
 425 833 l 1
 88 833 l 1
 100 895 l 1
EndSplineSet
Ligature: 0 0 'liga' I uni0304
EndChar
StartChar: Iogonek
Encoding: 313 302 207
Width: 226
Flags: W
HStem: -195 47<93 108> -20 20G<76 98> 719 20G<213 287>
VStem: 4 51<-116 -106>
DStem: 213 739 287 739 76 0 150 0
Fore
287 739 m 1
 150 0 l 1
 92 -34 55 -76 55 -108 c 0
 55 -132 75 -148 106 -148 c 0
 124 -148 141 -144 154 -137 c 1
 146 -182 l 1
 126 -191 112 -195 94 -195 c 0
 43 -195 4 -159 4 -112 c 0
 4 -70 36 -32 98 0 c 1
 76 0 l 1
 213 739 l 1
 287 739 l 1
EndSplineSet
Ligature: 0 0 'liga' I uni0328
EndChar
StartChar: Kcommaaccent
Encoding: 314 310 208
Width: 591
Flags: W
HStem: 0 21G<76 150 492 585> 719 20G<213 287 629 722>
DStem: 213 739 287 739 76 0 208 314 213 739 187 202 76 0 150 0 270 -53 344 -53 186 -232 257 -232 305 320 363 379 492 0 585 0 629 739 722 739 208 314 363 379 629 739 305 320 208 314 187 202
Fore
76 0 m 1
 213 739 l 1
 287 739 l 1
 208 314 l 1
 629 739 l 1
 722 739 l 1
 363 379 l 1
 585 0 l 1
 492 0 l 1
 305 320 l 1
 187 202 l 1
 150 0 l 1
 76 0 l 1
186 -232 m 1
 270 -53 l 1
 344 -53 l 1
 257 -232 l 1
 186 -232 l 1
EndSplineSet
Ligature: 0 0 'liga' K uni0327
EndChar
StartChar: Lcommaaccent
Encoding: 315 315 209
Width: 462
Flags: W
HStem: 0 67<162 456> 719 20G<213 287>
DStem: 206 -53 280 -53 122 -232 193 -232 213 739 287 739 76 0 162 67
Fore
76 0 m 1
 213 739 l 1
 287 739 l 1
 162 67 l 1
 468 67 l 1
 456 0 l 1
 76 0 l 1
122 -232 m 1
 206 -53 l 1
 280 -53 l 1
 193 -232 l 1
 122 -232 l 1
EndSplineSet
Ligature: 0 0 'liga' L uni0327
EndChar
StartChar: Ncommaaccent
Encoding: 316 325 210
Width: 740
Flags: W
HStem: 0 21G<76 150 590 664> 719 20G<213 313 727 801>
DStem: 213 739 270 650 76 0 150 0 270 650 313 739 590 0 613 126 345 -53 419 -53 261 -232 332 -232 727 739 801 739 613 126 664 0
Fore
76 0 m 1
 213 739 l 1
 313 739 l 1
 613 126 l 1
 727 739 l 1
 801 739 l 1
 664 0 l 1
 590 0 l 1
 270 650 l 1
 150 0 l 1
 76 0 l 1
261 -232 m 1
 345 -53 l 1
 419 -53 l 1
 332 -232 l 1
 261 -232 l 1
EndSplineSet
Ligature: 0 0 'liga' N uni0327
EndChar
StartChar: Omacron
Encoding: 317 332 211
Width: 869
Flags: W
HStem: -13 68<418 442> 684 68<553 580> 833 62<431 757>
VStem: 106 77<300 324> 823 77<418 438>
Fore
578 752 m 0
 681 752 779 705 839 626 c 0
 880 571 900 511 900 436 c 0
 900 203 673 -13 428 -13 c 0
 325 -13 223 36 166 113 c 0
 128 164 106 234 106 302 c 0
 106 536 333 752 578 752 c 0
560 684 m 0
 369 684 183 503 183 316 c 0
 183 170 296 55 440 55 c 0
 638 55 823 232 823 422 c 0
 823 574 713 684 560 684 c 0
432 895 m 1
 769 895 l 1
 757 833 l 1
 420 833 l 1
 432 895 l 1
EndSplineSet
Ligature: 0 0 'liga' O uni0304
EndChar
StartChar: Rcommaaccent
Encoding: 318 342 212
Width: 607
Flags: W
HStem: 0 21G<76 150 474 566> 672 67<213 412>
VStem: 596 77<535 555>
DStem: 213 739 275 672 76 0 150 0 278 -53 352 -53 194 -232 265 -232 287 335 410 276 474 0 566 0
Fore
410 276 m 1
 566 0 l 1
 474 0 l 1
 287 335 l 1
 396 335 443 341 487 359 c 0
 551 386 596 461 596 541 c 0
 596 635 535 672 379 672 c 2
 275 672 l 1
 150 0 l 1
 76 0 l 1
 213 739 l 1
 396 739 l 2
 493 739 550 729 594 704 c 0
 645 675 673 622 673 553 c 0
 673 401 566 289 410 276 c 1
194 -232 m 1
 278 -53 l 1
 352 -53 l 1
 265 -232 l 1
 194 -232 l 1
EndSplineSet
Ligature: 0 0 'liga' R uni0327
EndChar
StartChar: Gcommaaccent
Encoding: 319 290 213
Width: 872
Flags: W
HStem: -13 68<442 476> 274 67<390 793> 684 68<554 588>
VStem: 107 77<295 314>
DStem: 411 -53 485 -53 327 -232 398 -232
Fore
391 341 m 1
 894 341 l 1
 873 257 826 179 755 112 c 0
 666 30 562 -13 446 -13 c 0
 247 -13 107 116 107 300 c 0
 107 539 327 752 575 752 c 0
 736 752 859 669 887 542 c 1
 803 542 l 1
 772 629 683 684 572 684 c 0
 363 684 184 512 184 312 c 0
 184 239 205 182 249 136 c 0
 298 85 375 55 455 55 c 0
 595 55 729 142 793 274 c 1
 379 274 l 1
 391 341 l 1
327 -232 m 1
 411 -53 l 1
 485 -53 l 1
 398 -232 l 1
 327 -232 l 1
EndSplineSet
Ligature: 0 0 'liga' G uni0327
EndChar
StartChar: Umacron
Encoding: 320 362 214
Width: 655
Flags: W
HStem: -13 68<323 344> 719 20G<215 289 642 716> 833 62<324 650>
VStem: 119 76<171 196>
DStem: 215 739 289 739 130 278 204 278 642 739 716 739 557 278 631 278
Fore
215 739 m 1
 289 739 l 1
 204 278 l 2
 198 246 195 215 195 188 c 0
 195 109 253 55 339 55 c 0
 397 55 456 82 494 125 c 0
 524 159 544 210 557 278 c 1
 642 739 l 1
 716 739 l 1
 631 278 l 1
 614 184 588 127 542 78 c 0
 487 20 409 -13 326 -13 c 0
 204 -13 119 63 119 173 c 0
 119 203 123 239 130 278 c 2
 215 739 l 1
325 895 m 1
 662 895 l 1
 650 833 l 1
 313 833 l 1
 325 895 l 1
EndSplineSet
Ligature: 0 0 'liga' U uni0304
EndChar
StartChar: Uogonek
Encoding: 321 370 215
Width: 655
Flags: W
HStem: -195 47<398 413> -13 68<324 344> 719 20G<215 289 642 716>
VStem: 119 76<171 190> 309 51<-116 -106>
DStem: 215 739 289 739 130 278 204 278 642 739 716 739 557 278 631 278
Fore
716 739 m 1
 631 278 l 1
 603 137 574 93 461 12 c 1
 394 -38 360 -79 360 -108 c 0
 360 -132 380 -148 411 -148 c 0
 429 -148 446 -144 459 -137 c 1
 451 -182 l 1
 431 -191 417 -195 399 -195 c 0
 348 -195 309 -159 309 -112 c 0
 309 -73 337 -38 392 -6 c 1
 365 -11 348 -13 326 -13 c 0
 204 -13 119 63 119 173 c 0
 119 203 123 239 130 278 c 2
 215 739 l 1
 289 739 l 1
 204 278 l 2
 198 246 195 215 195 188 c 0
 195 109 253 55 339 55 c 0
 397 55 456 82 494 125 c 0
 524 159 544 210 557 278 c 1
 642 739 l 1
 716 739 l 1
EndSplineSet
Ligature: 0 0 'liga' U uni0328
EndChar
StartChar: adieresis
Encoding: 322 228 216
Width: 683
Flags: W
HStem: -13 68<327 361> 492 68<423 442> 729 20G<389 463 536 610>
VStem: 88 77<214 237>
DStem: 389 749 463 749 366 623 440 623 536 749 610 749 513 623 587 623 564 96 721 547 546 0 620 0 647 547 721 547 629 450 620 0
Fore
721 547 m 1
 620 0 l 1
 546 0 l 1
 564 96 l 1
 483 14 426 -13 333 -13 c 0
 186 -13 88 79 88 216 c 0
 88 401 248 560 434 560 c 0
 486 560 532 548 568 524 c 0
 595 506 609 489 629 450 c 1
 647 547 l 1
 721 547 l 1
427 492 m 0
 288 492 165 371 165 235 c 0
 165 128 239 55 348 55 c 0
 481 55 601 181 601 319 c 0
 601 419 527 492 427 492 c 0
389 749 m 1
 463 749 l 1
 440 623 l 1
 366 623 l 1
 389 749 l 1
536 749 m 1
 610 749 l 1
 587 623 l 1
 513 623 l 1
 536 749 l 1
EndSplineSet
Ligature: 0 0 'liga' a uni0308
EndChar
StartChar: aacute
Encoding: 323 225 217
Width: 683
Flags: W
HStem: -13 68<327 361> 492 68<421 441>
VStem: 88 77<214 237>
DStem: 564 96 721 547 546 0 620 0 613 782 637 724 399 666 423 610 647 547 721 547 629 450 620 0
Fore
721 547 m 1
 620 0 l 1
 546 0 l 1
 564 96 l 1
 483 14 426 -13 333 -13 c 0
 186 -13 88 79 88 216 c 0
 88 401 248 560 434 560 c 0
 486 560 532 548 568 524 c 0
 595 506 609 489 629 450 c 1
 647 547 l 1
 721 547 l 1
427 492 m 0
 288 492 165 371 165 235 c 0
 165 128 239 55 348 55 c 0
 481 55 601 181 601 319 c 0
 601 419 527 492 427 492 c 0
399 666 m 1
 613 782 l 1
 637 724 l 1
 423 610 l 1
 399 666 l 1
EndSplineSet
Ligature: 0 0 'liga' a acutecomb
EndChar
StartChar: agrave
Encoding: 324 224 218
Width: 683
Flags: W
HStem: -13 68<327 361> 492 68<423 441>
VStem: 88 77<214 237>
DStem: 337 726 377 778 519 610 558 661 564 96 721 547 546 0 620 0 647 547 721 547 629 450 620 0
Fore
721 547 m 1
 620 0 l 1
 546 0 l 1
 564 96 l 1
 483 14 426 -13 333 -13 c 0
 186 -13 88 79 88 216 c 0
 88 401 248 560 434 560 c 0
 486 560 532 548 568 524 c 0
 595 506 609 489 629 450 c 1
 647 547 l 1
 721 547 l 1
427 492 m 0
 288 492 165 371 165 235 c 0
 165 128 239 55 348 55 c 0
 481 55 601 181 601 319 c 0
 601 419 527 492 427 492 c 0
377 778 m 1
 558 661 l 1
 519 610 l 1
 337 726 l 1
 377 778 l 1
EndSplineSet
Ligature: 0 0 'liga' a gravecomb
EndChar
StartChar: acircumflex
Encoding: 325 226 219
Width: 683
Flags: W
HStem: -13 68<327 361> 492 68<423 441> 729 20G<469 535>
VStem: 88 77<214 237>
DStem: 469 749 494 697 301 623 392 623 494 697 535 749 566 623 655 623 564 96 721 547 546 0 620 0 647 547 721 547 629 450 620 0
Fore
721 547 m 1
 620 0 l 1
 546 0 l 1
 564 96 l 1
 483 14 426 -13 333 -13 c 0
 186 -13 88 79 88 216 c 0
 88 401 248 560 434 560 c 0
 486 560 532 548 568 524 c 0
 595 506 609 489 629 450 c 1
 647 547 l 1
 721 547 l 1
427 492 m 0
 288 492 165 371 165 235 c 0
 165 128 239 55 348 55 c 0
 481 55 601 181 601 319 c 0
 601 419 527 492 427 492 c 0
301 623 m 1
 469 749 l 1
 535 749 l 1
 655 623 l 1
 566 623 l 1
 494 697 l 1
 392 623 l 1
 301 623 l 1
EndSplineSet
Ligature: 0 0 'liga' a uni0302
EndChar
StartChar: abreve
Encoding: 326 259 220
Width: 683
Flags: W
HStem: -13 68<327 361> 492 68<423 441> 626 55<452 473> 723 20G<322 386 573 626>
VStem: 88 77<214 237>
DStem: 564 96 721 547 546 0 620 0 647 547 721 547 629 450 620 0
Fore
721 547 m 1
 620 0 l 1
 546 0 l 1
 564 96 l 1
 483 14 426 -13 333 -13 c 0
 186 -13 88 79 88 216 c 0
 88 401 248 560 434 560 c 0
 486 560 532 548 568 524 c 0
 595 506 609 489 629 450 c 1
 647 547 l 1
 721 547 l 1
427 492 m 0
 288 492 165 371 165 235 c 0
 165 128 239 55 348 55 c 0
 481 55 601 181 601 319 c 0
 601 419 527 492 427 492 c 0
322 743 m 1
 386 743 l 1
 389 718 393 707 405 697 c 0
 415 688 444 681 467 681 c 0
 491 681 524 690 541 702 c 0
 559 713 566 722 573 743 c 1
 626 743 l 1
 613 699 596 676 562 654 c 0
 532 635 497 626 454 626 c 0
 408 626 375 637 351 660 c 0
 332 679 324 700 322 743 c 1
EndSplineSet
Ligature: 0 0 'liga' a uni0306
EndChar
StartChar: atilde
Encoding: 327 227 221
Width: 683
Flags: W
HStem: -13 68<327 361> 492 68<423 445> 633 63<539 548> 670 63<423 436>
VStem: 88 77<214 237>
DStem: 564 96 721 547 546 0 620 0 647 547 721 547 629 450 620 0
Fore
721 547 m 1xc8
 620 0 l 1
 546 0 l 1
 564 96 l 1
 483 14 426 -13 333 -13 c 0
 186 -13 88 79 88 216 c 0
 88 401 248 560 434 560 c 0
 486 560 532 548 568 524 c 0
 595 506 609 489 629 450 c 1
 647 547 l 1
 721 547 l 1xc8
427 492 m 0
 288 492 165 371 165 235 c 0
 165 128 239 55 348 55 c 0
 481 55 601 181 601 319 c 0
 601 419 527 492 427 492 c 0
610 734 m 1
 631 688 l 1
 605 652 572 633 539 633 c 0xe8
 520 633 487 645 443 666 c 0
 438 669 432 670 426 670 c 0
 414 670 408 666 368 637 c 1
 345 682 l 1
 376 714 409 733 434 733 c 0xd8
 443 733 454 730 467 724 c 0
 485 715 485 715 503 707 c 0
 522 698 529 696 539 696 c 0xe8
 564 696 586 708 610 734 c 1
EndSplineSet
Ligature: 0 0 'liga' a tildecomb
EndChar
StartChar: aring
Encoding: 328 229 222
Width: 683
Flags: W
HStem: -13 68<327 361> 492 68<423 441> 606 40<471 483> 750 40<498 509>
VStem: 88 77<214 237> 398 38<678 692> 547 38<704 713>
DStem: 564 96 721 547 546 0 620 0 647 547 721 547 629 450 620 0
Fore
721 547 m 1
 620 0 l 1
 546 0 l 1
 564 96 l 1
 483 14 426 -13 333 -13 c 0
 186 -13 88 79 88 216 c 0
 88 401 248 560 434 560 c 0
 486 560 532 548 568 524 c 0
 595 506 609 489 629 450 c 1
 647 547 l 1
 721 547 l 1
427 492 m 0
 288 492 165 371 165 235 c 0
 165 128 239 55 348 55 c 0
 481 55 601 181 601 319 c 0
 601 419 527 492 427 492 c 0
507 790 m 0
 554 790 585 758 585 711 c 0
 585 658 530 606 474 606 c 0
 430 606 398 636 398 678 c 0
 398 738 448 790 507 790 c 0
500 750 m 0
 468 750 436 720 436 688 c 0
 436 664 455 646 481 646 c 0
 513 646 547 677 547 706 c 0
 547 730 526 750 500 750 c 0
EndSplineSet
Ligature: 0 0 'liga' a uni030A
EndChar
StartChar: aogonek
Encoding: 329 261 223
Width: 683
Flags: W
HStem: -195 47<562 577> -13 68<327 361> 492 68<423 441>
VStem: 88 77<214 237> 474 51<-116 -106>
DStem: 564 96 721 547 546 0 620 0 647 547 721 547 629 450 620 0
Fore
721 547 m 1
 620 0 l 1
 561 -35 525 -76 525 -108 c 0
 525 -132 545 -148 575 -148 c 0
 594 -148 610 -144 624 -137 c 1
 616 -182 l 1
 597 -191 581 -195 565 -195 c 0
 513 -195 474 -159 474 -112 c 0
 474 -70 506 -32 568 0 c 1
 546 0 l 1
 564 96 l 1
 483 14 426 -13 333 -13 c 0
 186 -13 88 79 88 216 c 0
 88 401 248 560 434 560 c 0
 486 560 532 548 568 524 c 0
 595 506 609 489 629 450 c 1
 647 547 l 1
 721 547 l 1
427 492 m 0
 288 492 165 371 165 235 c 0
 165 128 239 55 348 55 c 0
 481 55 601 181 601 319 c 0
 601 419 527 492 427 492 c 0
EndSplineSet
Ligature: 0 0 'liga' a uni0328
EndChar
StartChar: cacute
Encoding: 330 263 224
Width: 647
Flags: W
HStem: -13 68<327 361> 492 68<423 440>
VStem: 88 77<220 244>
DStem: 588 782 612 724 374 666 398 610
Fore
556 161 m 1
 639 161 l 1
 595 101 571 76 533 49 c 0
 474 9 405 -13 339 -13 c 0
 264 -13 188 16 146 62 c 0
 110 101 88 162 88 222 c 0
 88 400 254 560 438 560 c 0
 563 560 655 492 679 381 c 1
 596 381 l 1
 569 451 507 492 426 492 c 0
 288 492 165 370 165 233 c 0
 165 129 241 55 348 55 c 0
 397 55 445 70 485 97 c 0
 503 109 519 124 556 161 c 1
374 666 m 1
 588 782 l 1
 612 724 l 1
 398 610 l 1
 374 666 l 1
EndSplineSet
Ligature: 0 0 'liga' c acutecomb
EndChar
StartChar: ccaron
Encoding: 331 269 225
Width: 647
Flags: W
HStem: -13 68<327 361> 492 68<423 447> 729 20G<284 373 547 638>
VStem: 88 77<220 244>
DStem: 284 749 373 749 404 623 445 675 547 749 638 749 445 675 470 623
Fore
556 161 m 1
 639 161 l 1
 595 101 571 76 533 49 c 0
 474 9 405 -13 339 -13 c 0
 264 -13 188 16 146 62 c 0
 110 101 88 162 88 222 c 0
 88 400 254 560 438 560 c 0
 563 560 655 492 679 381 c 1
 596 381 l 1
 569 451 507 492 426 492 c 0
 288 492 165 370 165 233 c 0
 165 129 241 55 348 55 c 0
 397 55 445 70 485 97 c 0
 503 109 519 124 556 161 c 1
638 749 m 1
 470 623 l 1
 404 623 l 1
 284 749 l 1
 373 749 l 1
 445 675 l 1
 547 749 l 1
 638 749 l 1
EndSplineSet
Ligature: 0 0 'liga' c uni030C
EndChar
StartChar: ccedilla
Encoding: 332 231 226
Width: 647
Flags: W
HStem: -227 46<288 299> -85 33<315 331> -13 68<348 361> 492 68<423 440>
VStem: 88 77<220 238> 352 43<-132 -114>
DStem: 290 -8 324 -12 239 -92 297 -60
Fore
324 -12 m 1
 297 -60 l 1
 312 -54 319 -52 331 -52 c 0
 371 -52 395 -76 395 -116 c 0
 395 -180 350 -227 291 -227 c 0
 243 -227 215 -201 213 -153 c 1
 258 -148 l 1
 263 -171 274 -181 297 -181 c 0
 329 -181 352 -157 352 -123 c 0
 352 -101 336 -85 315 -85 c 0
 297 -85 282 -92 265 -109 c 1
 239 -92 l 1
 290 -8 l 1
 166 9 88 98 88 222 c 0
 88 400 254 560 438 560 c 0
 563 560 655 492 679 381 c 1
 596 381 l 1
 569 451 507 492 426 492 c 0
 288 492 165 370 165 233 c 0
 165 129 241 55 348 55 c 0
 397 55 445 70 485 97 c 0
 503 109 519 124 556 161 c 1
 639 161 l 1
 595 101 571 76 533 49 c 0
 478 12 404 -13 348 -13 c 0
 342 -13 335 -13 324 -12 c 1
EndSplineSet
Ligature: 0 0 'liga' c uni0327
EndChar
StartChar: dcaron
Encoding: 333 271 227
Width: 714
Flags: W
HStem: -13 68<333 361> 492 68<420 440> 719 20G<685 759 820 894>
VStem: 88 77<215 238>
DStem: 566 99 759 739 548 0 622 0 685 739 759 739 633 460 622 0 820 739 894 739 739 547 810 547
Fore
759 739 m 1
 622 0 l 1
 548 0 l 1
 566 99 l 1
 495 19 429 -13 335 -13 c 0
 192 -13 88 84 88 217 c 0
 88 400 251 560 438 560 c 0
 524 560 587 528 633 460 c 1
 685 739 l 1
 759 739 l 1
422 492 m 0
 288 492 165 370 165 236 c 0
 165 128 240 55 350 55 c 0
 482 55 606 182 606 318 c 0
 606 418 527 492 422 492 c 0
739 547 m 1
 820 739 l 1
 894 739 l 1
 810 547 l 1
 739 547 l 1
EndSplineSet
Ligature: 0 0 'liga' d uni030C
EndChar
StartChar: edieresis
Encoding: 334 235 228
Width: 650
Flags: W
HStem: -13 68<323 345> 249 67<176 656> 492 68<407 437> 729 20G<361 435 508 582>
VStem: 88 71<210 228>
DStem: 361 749 435 749 338 623 412 623 508 749 582 749 485 623 559 623
Fore
656 249 m 1
 161 249 l 1
 160 237 159 228 159 221 c 0
 159 128 238 55 338 55 c 0
 420 55 509 107 552 180 c 1
 629 180 l 1
 565 62 446 -13 325 -13 c 0
 189 -13 88 86 88 220 c 0
 88 400 248 560 428 560 c 0
 567 560 665 466 665 332 c 0
 665 308 663 289 656 249 c 1
176 316 m 1
 595 316 l 1
 590 424 521 492 415 492 c 0
 311 492 212 419 176 316 c 1
361 749 m 1
 435 749 l 1
 412 623 l 1
 338 623 l 1
 361 749 l 1
508 749 m 1
 582 749 l 1
 559 623 l 1
 485 623 l 1
 508 749 l 1
EndSplineSet
Ligature: 0 0 'liga' e uni0308
EndChar
StartChar: eacute
Encoding: 335 233 229
Width: 650
Flags: W
HStem: -13 68<323 345> 249 67<176 656> 492 68<407 430>
VStem: 88 71<210 228>
DStem: 578 782 602 724 364 666 388 610
Fore
656 249 m 1
 161 249 l 1
 160 237 159 228 159 221 c 0
 159 128 238 55 338 55 c 0
 420 55 509 107 552 180 c 1
 629 180 l 1
 565 62 446 -13 325 -13 c 0
 189 -13 88 86 88 220 c 0
 88 400 248 560 428 560 c 0
 567 560 665 466 665 332 c 0
 665 308 663 289 656 249 c 1
176 316 m 1
 595 316 l 1
 590 424 521 492 415 492 c 0
 311 492 212 419 176 316 c 1
364 666 m 1
 578 782 l 1
 602 724 l 1
 388 610 l 1
 364 666 l 1
EndSplineSet
KernsSLIF: 121 -25 0 0 119 -21 0 0 118 -26 0 0
Ligature: 0 0 'liga' e acutecomb
EndChar
StartChar: egrave
Encoding: 336 232 230
Width: 650
Flags: W
HStem: -13 68<317 345> 249 67<176 656> 492 68<407 430>
VStem: 88 71<210 228>
DStem: 316 726 356 778 498 610 537 661
Fore
656 249 m 1
 161 249 l 1
 160 237 159 228 159 221 c 0
 159 128 238 55 338 55 c 0
 420 55 509 107 552 180 c 1
 629 180 l 1
 565 62 446 -13 325 -13 c 0
 189 -13 88 86 88 220 c 0
 88 400 248 560 428 560 c 0
 567 560 665 466 665 332 c 0
 665 308 663 289 656 249 c 1
176 316 m 1
 595 316 l 1
 590 424 521 492 415 492 c 0
 311 492 212 419 176 316 c 1
356 778 m 1
 537 661 l 1
 498 610 l 1
 316 726 l 1
 356 778 l 1
EndSplineSet
Ligature: 0 0 'liga' e gravecomb
EndChar
StartChar: ecircumflex
Encoding: 337 234 231
Width: 650
Flags: W
HStem: -13 68<323 345> 249 67<176 656> 492 68<407 430> 729 20G<438 504>
VStem: 88 71<210 228>
DStem: 438 749 463 697 270 623 361 623 463 697 504 749 535 623 624 623
Fore
656 249 m 1
 161 249 l 1
 160 237 159 228 159 221 c 0
 159 128 238 55 338 55 c 0
 420 55 509 107 552 180 c 1
 629 180 l 1
 565 62 446 -13 325 -13 c 0
 189 -13 88 86 88 220 c 0
 88 400 248 560 428 560 c 0
 567 560 665 466 665 332 c 0
 665 308 663 289 656 249 c 1
176 316 m 1
 595 316 l 1
 590 424 521 492 415 492 c 0
 311 492 212 419 176 316 c 1
270 623 m 1
 438 749 l 1
 504 749 l 1
 624 623 l 1
 535 623 l 1
 463 697 l 1
 361 623 l 1
 270 623 l 1
EndSplineSet
KernsSLIF: 121 -25 0 0 119 -21 0 0 118 -26 0 0
Ligature: 0 0 'liga' e uni0302
EndChar
StartChar: ecaron
Encoding: 338 283 232
Width: 650
Flags: W
HStem: -13 68<323 345> 249 67<176 656> 492 68<403 430> 729 20G<285 374 548 639>
VStem: 88 71<210 228>
DStem: 285 749 374 749 405 623 446 675 548 749 639 749 446 675 471 623
Fore
656 249 m 1
 161 249 l 1
 160 237 159 228 159 221 c 0
 159 128 238 55 338 55 c 0
 420 55 509 107 552 180 c 1
 629 180 l 1
 565 62 446 -13 325 -13 c 0
 189 -13 88 86 88 220 c 0
 88 400 248 560 428 560 c 0
 567 560 665 466 665 332 c 0
 665 308 663 289 656 249 c 1
176 316 m 1
 595 316 l 1
 590 424 521 492 415 492 c 0
 311 492 212 419 176 316 c 1
639 749 m 1
 471 623 l 1
 405 623 l 1
 285 749 l 1
 374 749 l 1
 446 675 l 1
 548 749 l 1
 639 749 l 1
EndSplineSet
Ligature: 0 0 'liga' e uni030C
EndChar
StartChar: edotaccent
Encoding: 339 279 233
Width: 650
Flags: W
HStem: -13 68<323 345> 249 67<176 656> 492 68<403 430> 729 20G<425 499>
VStem: 88 71<210 228>
DStem: 425 749 499 749 402 623 476 623
Fore
656 249 m 1
 161 249 l 1
 160 237 159 228 159 221 c 0
 159 128 238 55 338 55 c 0
 420 55 509 107 552 180 c 1
 629 180 l 1
 565 62 446 -13 325 -13 c 0
 189 -13 88 86 88 220 c 0
 88 400 248 560 428 560 c 0
 567 560 665 466 665 332 c 0
 665 308 663 289 656 249 c 1
176 316 m 1
 595 316 l 1
 590 424 521 492 415 492 c 0
 311 492 212 419 176 316 c 1
425 749 m 1
 499 749 l 1
 476 623 l 1
 402 623 l 1
 425 749 l 1
EndSplineSet
Ligature: 0 0 'liga' e uni0307
EndChar
StartChar: eogonek
Encoding: 340 281 234
Width: 650
Flags: W
HStem: -195 47<402 417> -13 68<324 345> 249 67<176 656> 492 68<403 430>
VStem: 88 71<204 238> 314 51<-116 -106>
Fore
656 249 m 1
 161 249 l 1
 160 237 159 228 159 221 c 0
 159 128 238 55 338 55 c 0
 420 55 509 107 552 180 c 1
 629 180 l 1
 600 126 570 94 497 38 c 0
 402 -34 365 -75 365 -108 c 0
 365 -132 385 -148 415 -148 c 0
 433 -148 450 -144 464 -137 c 1
 456 -182 l 1
 437 -191 421 -195 404 -195 c 0
 353 -195 314 -159 314 -112 c 0
 314 -72 344 -34 401 -4 c 1
 372 -10 352 -13 326 -13 c 0
 188 -13 88 85 88 220 c 0
 88 400 248 560 428 560 c 0
 567 560 665 466 665 332 c 0
 665 308 663 289 656 249 c 1
176 316 m 1
 595 316 l 1
 590 424 521 492 415 492 c 0
 311 492 212 419 176 316 c 1
EndSplineSet
Ligature: 0 0 'liga' e uni0328
EndChar
StartChar: gbreve
Encoding: 341 287 235
Width: 673
Flags: W
HStem: -215 68<293 319> -37 20G<60 132> -13 68<315 348> 492 68<399 428> 626 55<447 464> 723 20G<317 381 568 621>
VStem: 87 77<216 238>
DStem: 637 547 711 547 619 450 627 98
Fore
711 547 m 1
 627 98 l 1
 605 -18 586 -65 537 -117 c 0
 478 -180 392 -215 295 -215 c 0
 207 -215 139 -184 96 -124 c 0
 78 -99 69 -71 60 -17 c 1
 132 -17 l 1
 135 -24 136 -27 137 -29 c 0
 156 -77 163 -88 185 -107 c 0
 216 -134 257 -147 309 -147 c 0
 393 -147 462 -112 504 -48 c 0
 526 -15 539 20 549 74 c 2
 556 111 l 1
 503 30 423 -13 325 -13 c 0
 186 -13 87 83 87 219 c 0
 87 294 122 381 176 443 c 0
 243 520 329 560 426 560 c 0
 479 560 525 547 561 520 c 0
 582 505 593 491 619 450 c 1
 637 547 l 1
 711 547 l 1
415 492 m 0
 338 492 271 458 220 392 c 0
 186 348 164 288 164 236 c 0
 164 196 177 150 198 119 c 0
 225 79 276 55 337 55 c 0
 419 55 492 95 542 169 c 0
 574 217 592 273 592 325 c 0
 592 421 517 492 415 492 c 0
317 743 m 1
 381 743 l 1
 384 718 388 707 400 697 c 0
 410 688 439 681 462 681 c 0
 486 681 519 690 536 702 c 0
 554 713 561 722 568 743 c 1
 621 743 l 1
 608 699 591 676 557 654 c 0
 527 635 492 626 449 626 c 0
 403 626 370 637 346 660 c 0
 327 679 319 700 317 743 c 1
EndSplineSet
Ligature: 0 0 'liga' g uni0306
EndChar
StartChar: idieresis
Encoding: 342 239 236
Width: 200
Flags: W
HStem: 0 21G<63 136> 527 20G<164 237> 729 20G<127 201 274 348>
DStem: 127 749 201 749 104 623 178 623 164 547 237 547 63 0 136 0 274 749 348 749 251 623 325 623
Fore
63 0 m 1
 164 547 l 1
 237 547 l 1
 136 0 l 1
 63 0 l 1
127 749 m 1
 201 749 l 1
 178 623 l 1
 104 623 l 1
 127 749 l 1
274 749 m 1
 348 749 l 1
 325 623 l 1
 251 623 l 1
 274 749 l 1
EndSplineSet
Ligature: 0 0 'liga' i uni0308
EndChar
StartChar: iacute
Encoding: 343 237 237
Width: 200
Flags: W
HStem: 0 21G<63 137> 527 20G<164 238>
DStem: 164 547 238 547 63 0 137 0 325 782 349 724 111 666 135 610
Fore
63 0 m 1
 164 547 l 1
 238 547 l 1
 137 0 l 1
 63 0 l 1
111 666 m 1
 325 782 l 1
 349 724 l 1
 135 610 l 1
 111 666 l 1
EndSplineSet
Ligature: 0 0 'liga' i acutecomb
EndChar
StartChar: igrave
Encoding: 344 236 238
Width: 200
Flags: W
HStem: 0 21G<63 137> 527 20G<164 238>
DStem: 118 726 158 778 300 610 339 661 164 547 238 547 63 0 137 0
Fore
63 0 m 1
 164 547 l 1
 238 547 l 1
 137 0 l 1
 63 0 l 1
158 778 m 1
 339 661 l 1
 300 610 l 1
 118 726 l 1
 158 778 l 1
EndSplineSet
Ligature: 0 0 'liga' i gravecomb
EndChar
StartChar: icircumflex
Encoding: 345 238 239
Width: 200
Flags: W
HStem: 0 21G<63 136> 527 20G<165 238> 729 20G<205 271>
DStem: 165 547 238 547 63 0 136 0 205 749 230 697 37 623 128 623 230 697 271 749 302 623 391 623
Fore
63 0 m 1
 165 547 l 1
 238 547 l 1
 136 0 l 1
 63 0 l 1
37 623 m 1
 205 749 l 1
 271 749 l 1
 391 623 l 1
 302 623 l 1
 230 697 l 1
 128 623 l 1
 37 623 l 1
EndSplineSet
Ligature: 0 0 'liga' i uni0302
EndChar
StartChar: lacute
Encoding: 346 314 240
Width: 200
Flags: W
HStem: 0 21G<63 137> 719 20G<200 274>
DStem: 200 739 274 739 63 0 137 0 325 964 349 906 111 848 135 792
Fore
63 0 m 1
 200 739 l 1
 274 739 l 1
 137 0 l 1
 63 0 l 1
111 848 m 1
 325 964 l 1
 349 906 l 1
 135 792 l 1
 111 848 l 1
EndSplineSet
Ligature: 0 0 'liga' l acutecomb
EndChar
StartChar: lcaron
Encoding: 347 318 241
Width: 231
Flags: W
HStem: 0 21G<63 137> 547 21G<257 328> 719 20G<200 274 338 412>
DStem: 200 739 274 739 63 0 137 0 338 739 412 739 257 547 328 547
Fore
63 0 m 1
 200 739 l 1
 274 739 l 1
 137 0 l 1
 63 0 l 1
257 547 m 1
 338 739 l 1
 412 739 l 1
 328 547 l 1
 257 547 l 1
EndSplineSet
Ligature: 0 0 'liga' l uni030C
EndChar
StartChar: nacute
Encoding: 348 324 242
Width: 610
Flags: W
HStem: 0 21G<63 137 471 545> 492 68<391 413>
VStem: 532 77<359 379>
DStem: 164 547 193 301 63 0 137 0 524 287 598 287 471 0 545 0 530 782 554 724 316 666 340 610
Fore
63 0 m 1
 164 547 l 1
 238 547 l 1
 225 476 l 1
 284 533 345 560 413 560 c 0
 533 560 609 489 609 379 c 0
 609 353 607 334 598 287 c 1
 545 0 l 1
 471 0 l 1
 524 287 l 2
 529 315 532 341 532 361 c 0
 532 441 478 492 393 492 c 0
 338 492 280 466 244 425 c 0
 217 394 205 364 193 301 c 1
 137 0 l 1
 63 0 l 1
316 666 m 1
 530 782 l 1
 554 724 l 1
 340 610 l 1
 316 666 l 1
EndSplineSet
Ligature: 0 0 'liga' n acutecomb
EndChar
StartChar: ncaron
Encoding: 349 328 243
Width: 610
Flags: W
HStem: 0 21G<63 137 471 545> 492 68<391 413> 729 20G<265 354 528 619>
VStem: 532 77<359 379>
DStem: 164 547 193 301 63 0 137 0 265 749 354 749 385 623 426 675 524 287 598 287 471 0 545 0 528 749 619 749 426 675 451 623
Fore
63 0 m 1
 164 547 l 1
 238 547 l 1
 225 476 l 1
 284 533 345 560 413 560 c 0
 533 560 609 489 609 379 c 0
 609 353 607 334 598 287 c 1
 545 0 l 1
 471 0 l 1
 524 287 l 2
 529 315 532 341 532 361 c 0
 532 441 478 492 393 492 c 0
 338 492 280 466 244 425 c 0
 217 394 205 364 193 301 c 1
 137 0 l 1
 63 0 l 1
619 749 m 1
 451 623 l 1
 385 623 l 1
 265 749 l 1
 354 749 l 1
 426 675 l 1
 528 749 l 1
 619 749 l 1
EndSplineSet
Ligature: 0 0 'liga' n uni030C
EndChar
StartChar: ntilde
Encoding: 350 241 244
Width: 610
Flags: W
HStem: 0 21G<63 137 471 545> 492 68<391 413> 633 63<467 480> 670 63<352 364>
VStem: 532 77<359 379>
DStem: 164 547 193 301 63 0 137 0 524 287 598 287 471 0 545 0
Fore
63 0 m 1xc8
 164 547 l 1
 238 547 l 1
 225 476 l 1
 284 533 345 560 413 560 c 0
 533 560 609 489 609 379 c 0
 609 353 607 334 598 287 c 1
 545 0 l 1
 471 0 l 1
 524 287 l 2
 529 315 532 341 532 361 c 0
 532 441 478 492 393 492 c 0
 338 492 280 466 244 425 c 0
 217 394 205 364 193 301 c 1
 137 0 l 1
 63 0 l 1xc8
538 734 m 1
 559 688 l 1
 533 652 500 633 467 633 c 0xe8
 448 633 415 645 371 666 c 0
 366 669 360 670 354 670 c 0
 342 670 336 666 296 637 c 1
 273 682 l 1
 304 714 337 733 362 733 c 0xd8
 371 733 382 730 395 724 c 0
 413 715 413 715 431 707 c 0
 450 698 457 696 467 696 c 0xe8
 492 696 514 708 538 734 c 1
EndSplineSet
Ligature: 0 0 'liga' n tildecomb
EndChar
StartChar: odieresis
Encoding: 351 246 245
Width: 655
Flags: W
HStem: -13 68<326 360> 492 68<410 440> 729 20G<361 435 508 582>
VStem: 87 77<210 230> 592 77<306 340>
DStem: 361 749 435 749 338 623 412 623 508 749 582 749 485 623 559 623
Fore
435 560 m 0
 574 560 669 468 669 332 c 0
 669 246 634 159 573 95 c 0
 505 23 425 -13 333 -13 c 0
 188 -13 87 80 87 215 c 0
 87 298 122 384 180 447 c 0
 249 521 337 560 435 560 c 0
422 492 m 0
 282 492 164 371 164 228 c 0
 164 125 236 55 343 55 c 0
 482 55 592 174 592 325 c 0
 592 422 520 492 422 492 c 0
361 749 m 1
 435 749 l 1
 412 623 l 1
 338 623 l 1
 361 749 l 1
508 749 m 1
 582 749 l 1
 559 623 l 1
 485 623 l 1
 508 749 l 1
EndSplineSet
KernsSLIF: 121 -22 0 0 120 -20 0 0 119 -18 0 0 118 -24 0 0 116 -21 0 0
Ligature: 0 0 'liga' o uni0308
EndChar
StartChar: oacute
Encoding: 352 243 246
Width: 655
Flags: W
HStem: -13 68<326 360> 492 68<420 440>
VStem: 87 77<210 230> 592 77<306 340>
DStem: 590 782 614 724 376 666 400 610
Fore
435 560 m 0
 574 560 669 468 669 332 c 0
 669 246 634 159 573 95 c 0
 505 23 425 -13 333 -13 c 0
 188 -13 87 80 87 215 c 0
 87 298 122 384 180 447 c 0
 249 521 337 560 435 560 c 0
422 492 m 0
 282 492 164 371 164 228 c 0
 164 125 236 55 343 55 c 0
 482 55 592 174 592 325 c 0
 592 422 520 492 422 492 c 0
376 666 m 1
 590 782 l 1
 614 724 l 1
 400 610 l 1
 376 666 l 1
EndSplineSet
KernsSLIF: 121 -22 0 0 119 -18 0 0 118 -24 0 0
Ligature: 0 0 'liga' o acutecomb
EndChar
StartChar: ograve
Encoding: 353 242 247
Width: 655
Flags: W
HStem: -13 68<326 360> 492 68<420 440>
VStem: 87 77<210 230> 592 77<306 340>
DStem: 318 726 358 778 500 610 539 661
Fore
435 560 m 0
 574 560 669 468 669 332 c 0
 669 246 634 159 573 95 c 0
 505 23 425 -13 333 -13 c 0
 188 -13 87 80 87 215 c 0
 87 298 122 384 180 447 c 0
 249 521 337 560 435 560 c 0
422 492 m 0
 282 492 164 371 164 228 c 0
 164 125 236 55 343 55 c 0
 482 55 592 174 592 325 c 0
 592 422 520 492 422 492 c 0
358 778 m 1
 539 661 l 1
 500 610 l 1
 318 726 l 1
 358 778 l 1
EndSplineSet
KernsSLIF: 121 -22 0 0 119 -18 0 0 118 -24 0 0
Ligature: 0 0 'liga' o gravecomb
EndChar
StartChar: ocircumflex
Encoding: 354 244 248
Width: 655
Flags: W
HStem: -13 68<326 360> 492 68<420 441> 729 20G<439 505>
VStem: 87 77<210 230> 592 77<306 340>
DStem: 439 749 464 697 271 623 362 623 464 697 505 749 536 623 625 623
Fore
435 560 m 0
 574 560 669 468 669 332 c 0
 669 246 634 159 573 95 c 0
 505 23 425 -13 333 -13 c 0
 188 -13 87 80 87 215 c 0
 87 298 122 384 180 447 c 0
 249 521 337 560 435 560 c 0
422 492 m 0
 282 492 164 371 164 228 c 0
 164 125 236 55 343 55 c 0
 482 55 592 174 592 325 c 0
 592 422 520 492 422 492 c 0
271 623 m 1
 439 749 l 1
 505 749 l 1
 625 623 l 1
 536 623 l 1
 464 697 l 1
 362 623 l 1
 271 623 l 1
EndSplineSet
KernsSLIF: 116 -21 0 0
Ligature: 0 0 'liga' o uni0302
EndChar
StartChar: otilde
Encoding: 355 245 249
Width: 655
Flags: W
HStem: -13 68<326 360> 492 68<408 442> 633 63<512 520> 670 63<397 409>
VStem: 87 77<210 230> 592 77<306 340>
Fore
435 560 m 0xcc
 574 560 669 468 669 332 c 0
 669 246 634 159 573 95 c 0
 505 23 425 -13 333 -13 c 0
 188 -13 87 80 87 215 c 0
 87 298 122 384 180 447 c 0
 249 521 337 560 435 560 c 0xcc
422 492 m 0
 282 492 164 371 164 228 c 0
 164 125 236 55 343 55 c 0
 482 55 592 174 592 325 c 0
 592 422 520 492 422 492 c 0
583 734 m 1
 604 688 l 1
 578 652 545 633 512 633 c 0xec
 493 633 460 645 416 666 c 0
 411 669 405 670 399 670 c 0
 387 670 381 666 341 637 c 1
 318 682 l 1
 349 714 382 733 407 733 c 0xdc
 416 733 427 730 440 724 c 0
 458 715 458 715 476 707 c 0
 495 698 502 696 512 696 c 0xec
 537 696 559 708 583 734 c 1
EndSplineSet
Ligature: 0 0 'liga' o tildecomb
EndChar
StartChar: ohungarumlaut
Encoding: 356 337 250
Width: 655
Flags: W
HStem: -13 68<326 360> 492 68<420 442>
VStem: 87 77<210 230> 592 77<306 340>
DStem: 441 780 472 730 249 658 278 608 637 780 667 730 444 658 473 608
Fore
435 560 m 0
 574 560 669 468 669 332 c 0
 669 246 634 159 573 95 c 0
 505 23 425 -13 333 -13 c 0
 188 -13 87 80 87 215 c 0
 87 298 122 384 180 447 c 0
 249 521 337 560 435 560 c 0
422 492 m 0
 282 492 164 371 164 228 c 0
 164 125 236 55 343 55 c 0
 482 55 592 174 592 325 c 0
 592 422 520 492 422 492 c 0
249 658 m 1
 441 780 l 1
 472 730 l 1
 278 608 l 1
 249 658 l 1
444 658 m 1
 637 780 l 1
 667 730 l 1
 473 608 l 1
 444 658 l 1
EndSplineSet
Ligature: 0 0 'liga' o uni030B
EndChar
StartChar: racute
Encoding: 357 341 251
Width: 301
Flags: W
HStem: 0 21G<63 137> 527 20G<164 238>
DStem: 164 547 238 547 63 0 224 469 164 547 196 319 63 0 137 0 375 782 399 724 161 666 185 610
Fore
63 0 m 1
 164 547 l 1
 238 547 l 1
 224 469 l 1
 264 529 312 555 396 560 c 1
 382 487 l 1
 277 476 215 420 196 319 c 1
 137 0 l 1
 63 0 l 1
161 666 m 1
 375 782 l 1
 399 724 l 1
 185 610 l 1
 161 666 l 1
EndSplineSet
Ligature: 0 0 'liga' r acutecomb
EndChar
StartChar: sacute
Encoding: 358 347 252
Width: 388
Flags: W
HStem: -13 68<187 206> 492 68<282 298>
VStem: 43 76<117 161> 110 77<380 400> 315 77<167 189> 349 76<412 442>
DStem: 419 782 443 724 205 666 229 610
Fore
46 161 m 1xe8
 119 161 l 1
 119 119 121 106 130 91 c 0
 144 68 170 55 202 55 c 0
 263 55 315 107 315 167 c 0xe8
 315 209 301 223 227 255 c 0
 167 281 152 290 136 308 c 0
 121 326 110 355 110 380 c 0
 110 418 131 468 159 499 c 0
 195 538 246 560 298 560 c 0
 371 560 425 510 425 442 c 0
 425 434 425 423 424 412 c 1
 349 412 l 1
 349 467 329 492 284 492 c 0
 234 492 187 447 187 400 c 0xd4
 187 375 201 353 225 341 c 0
 238 334 255 326 320 297 c 0
 371 273 392 241 392 189 c 0
 392 140 372 90 338 53 c 0
 296 8 249 -13 189 -13 c 0
 138 -13 100 3 74 34 c 0
 55 57 43 90 43 117 c 0
 43 123 44 132 45 143 c 0
 45 146 45 153 46 161 c 1xe8
205 666 m 1
 419 782 l 1
 443 724 l 1
 229 610 l 1
 205 666 l 1
EndSplineSet
Ligature: 0 0 'liga' s acutecomb
EndChar
StartChar: scaron
Encoding: 359 353 253
Width: 388
Flags: W
HStem: -13 68<187 204> 492 68<282 298> 729 20G<154 243 417 508>
VStem: 43 76<117 161> 110 77<380 400> 315 77<167 189> 349 76<412 442>
DStem: 154 749 243 749 274 623 315 675 417 749 508 749 315 675 340 623
Fore
46 161 m 1xf4
 119 161 l 1
 119 119 121 106 130 91 c 0
 144 68 170 55 202 55 c 0
 263 55 315 107 315 167 c 0xf4
 315 209 301 223 227 255 c 0
 167 281 152 290 136 308 c 0
 121 326 110 355 110 380 c 0
 110 418 131 468 159 499 c 0
 195 538 246 560 298 560 c 0
 371 560 425 510 425 442 c 0
 425 434 425 423 424 412 c 1
 349 412 l 1
 349 467 329 492 284 492 c 0
 234 492 187 447 187 400 c 0xea
 187 375 201 353 225 341 c 0
 238 334 255 326 320 297 c 0
 371 273 392 241 392 189 c 0
 392 140 372 90 338 53 c 0
 296 8 249 -13 189 -13 c 0
 138 -13 100 3 74 34 c 0
 55 57 43 90 43 117 c 0
 43 123 44 132 45 143 c 0
 45 146 45 153 46 161 c 1xf4
508 749 m 1
 340 623 l 1
 274 623 l 1
 154 749 l 1
 243 749 l 1
 315 675 l 1
 417 749 l 1
 508 749 l 1
EndSplineSet
Ligature: 0 0 'liga' s uni030C
EndChar
StartChar: scommaaccent
Encoding: 360 537 254
Width: 388
Flags: W
HStem: -13 68<187 204> 492 68<282 298>
VStem: 45 74<143 160.963> 110 77<380 400> 315 77<167 189> 349 76<412 442>
DStem: 149 -53 223 -53 65 -232 136 -232
Fore
46 161 m 1xe8
 119 161 l 1
 119 119 121 106 130 91 c 0
 144 68 170 55 202 55 c 0
 263 55 315 107 315 167 c 0xe8
 315 209 301 223 227 255 c 0
 167 281 152 290 136 308 c 0
 121 326 110 355 110 380 c 0
 110 418 131 468 159 499 c 0
 195 538 246 560 298 560 c 0
 371 560 425 510 425 442 c 0
 425 434 425 423 424 412 c 1
 349 412 l 1
 349 467 329 492 284 492 c 0
 234 492 187 447 187 400 c 0xd4
 187 375 201 353 225 341 c 0
 238 334 255 326 320 297 c 0
 371 273 392 241 392 189 c 0
 392 140 372 90 338 53 c 0
 296 8 249 -13 189 -13 c 0
 138 -13 100 3 74 34 c 0
 55 57 43 90 43 117 c 0
 43 123 44 132 45 143 c 0
 45 146 45 153 46 161 c 1xe8
65 -232 m 1
 149 -53 l 1
 223 -53 l 1
 136 -232 l 1
 65 -232 l 1
EndSplineSet
Ligature: 0 0 'liga' s uni0326
EndChar
StartChar: tcaron
Encoding: 361 357 255
Width: 339
Flags: W
HStem: 0 21G<124 198> 480 67<112 213 299 416> 567 21G<349 420> 719 20G<261 335 427 501>
DStem: 213 480 287 480 124 0 198 0 261 739 335 739 225 547 299 547 427 739 501 739 349 567 420 567
Fore
124 0 m 1
 213 480 l 1
 101 480 l 1
 113 547 l 1
 225 547 l 1
 261 739 l 1
 335 739 l 1
 299 547 l 1
 428 547 l 1
 416 480 l 1
 287 480 l 1
 198 0 l 1
 124 0 l 1
349 567 m 1
 427 739 l 1
 501 739 l 1
 420 567 l 1
 349 567 l 1
EndSplineSet
Ligature: 0 0 'liga' t uni030C
EndChar
StartChar: udieresis
Encoding: 362 252 256
Width: 608
Flags: W
HStem: -13 68<290 312> 527 20G<163 237 572 646> 729 20G<327 401 474 548>
VStem: 99 77<155 185>
DStem: 163 547 237 547 108 252 182 252 327 749 401 749 304 623 378 623 474 749 548 749 451 623 525 623 486 85 646 547 470 0 544 0 572 547 646 547 519 266 544 0
Fore
646 547 m 1
 544 0 l 1
 470 0 l 1
 486 85 l 1
 433 15 377 -13 290 -13 c 0
 174 -13 99 53 99 155 c 0
 99 183 103 224 108 252 c 1
 163 547 l 1
 237 547 l 1
 182 252 l 1
 180 239 176 200 176 185 c 0
 176 156 185 122 197 103 c 0
 216 74 261 55 310 55 c 0
 366 55 419 79 459 123 c 0
 490 157 505 194 519 266 c 1
 572 547 l 1
 646 547 l 1
327 749 m 1
 401 749 l 1
 378 623 l 1
 304 623 l 1
 327 749 l 1
474 749 m 1
 548 749 l 1
 525 623 l 1
 451 623 l 1
 474 749 l 1
EndSplineSet
Ligature: 0 0 'liga' u uni0308
EndChar
StartChar: uacute
Encoding: 363 250 257
Width: 608
Flags: W
HStem: -13 68<290 312> 527 20G<163 237 572 646>
VStem: 99 77<155 185>
DStem: 163 547 237 547 108 252 182 252 486 85 646 547 470 0 544 0 558 782 582 724 344 666 368 610 572 547 646 547 519 266 544 0
Fore
646 547 m 1
 544 0 l 1
 470 0 l 1
 486 85 l 1
 433 15 377 -13 290 -13 c 0
 174 -13 99 53 99 155 c 0
 99 183 103 224 108 252 c 1
 163 547 l 1
 237 547 l 1
 182 252 l 1
 180 239 176 200 176 185 c 0
 176 156 185 122 197 103 c 0
 216 74 261 55 310 55 c 0
 366 55 419 79 459 123 c 0
 490 157 505 194 519 266 c 1
 572 547 l 1
 646 547 l 1
344 666 m 1
 558 782 l 1
 582 724 l 1
 368 610 l 1
 344 666 l 1
EndSplineSet
Ligature: 0 0 'liga' u acutecomb
EndChar
StartChar: ugrave
Encoding: 364 249 258
Width: 608
Flags: W
HStem: -13 68<290 312> 527 20G<163 237 572 646>
VStem: 99 77<155 185>
DStem: 163 547 237 547 108 252 182 252 279 726 319 778 461 610 500 661 486 85 646 547 470 0 544 0 572 547 646 547 519 266 544 0
Fore
646 547 m 1
 544 0 l 1
 470 0 l 1
 486 85 l 1
 433 15 377 -13 290 -13 c 0
 174 -13 99 53 99 155 c 0
 99 183 103 224 108 252 c 1
 163 547 l 1
 237 547 l 1
 182 252 l 1
 180 239 176 200 176 185 c 0
 176 156 185 122 197 103 c 0
 216 74 261 55 310 55 c 0
 366 55 419 79 459 123 c 0
 490 157 505 194 519 266 c 1
 572 547 l 1
 646 547 l 1
319 778 m 1
 500 661 l 1
 461 610 l 1
 279 726 l 1
 319 778 l 1
EndSplineSet
Ligature: 0 0 'liga' u gravecomb
EndChar
StartChar: ucircumflex
Encoding: 365 251 259
Width: 608
Flags: W
HStem: -13 68<290 312> 527 20G<163 237 572 646> 729 20G<405 471>
VStem: 99 77<155 185>
DStem: 163 547 237 547 108 252 182 252 405 749 430 697 237 623 328 623 430 697 471 749 502 623 591 623 486 85 646 547 470 0 544 0 572 547 646 547 519 266 544 0
Fore
646 547 m 1
 544 0 l 1
 470 0 l 1
 486 85 l 1
 433 15 377 -13 290 -13 c 0
 174 -13 99 53 99 155 c 0
 99 183 103 224 108 252 c 1
 163 547 l 1
 237 547 l 1
 182 252 l 1
 180 239 176 200 176 185 c 0
 176 156 185 122 197 103 c 0
 216 74 261 55 310 55 c 0
 366 55 419 79 459 123 c 0
 490 157 505 194 519 266 c 1
 572 547 l 1
 646 547 l 1
237 623 m 1
 405 749 l 1
 471 749 l 1
 591 623 l 1
 502 623 l 1
 430 697 l 1
 328 623 l 1
 237 623 l 1
EndSplineSet
Ligature: 0 0 'liga' u uni0302
EndChar
StartChar: uring
Encoding: 366 367 260
Width: 608
Flags: W
HStem: -13 68<290 312> 527 20G<163 237 572 646> 606 40<415 426> 750 40<441 452>
VStem: 99 77<155 185> 341 38<678 692> 490 38<704 713>
DStem: 163 547 237 547 108 252 182 252 486 85 646 547 470 0 544 0 572 547 646 547 519 266 544 0
Fore
646 547 m 1
 544 0 l 1
 470 0 l 1
 486 85 l 1
 433 15 377 -13 290 -13 c 0
 174 -13 99 53 99 155 c 0
 99 183 103 224 108 252 c 1
 163 547 l 1
 237 547 l 1
 182 252 l 1
 180 239 176 200 176 185 c 0
 176 156 185 122 197 103 c 0
 216 74 261 55 310 55 c 0
 366 55 419 79 459 123 c 0
 490 157 505 194 519 266 c 1
 572 547 l 1
 646 547 l 1
450 790 m 0
 497 790 528 758 528 711 c 0
 528 658 473 606 417 606 c 0
 373 606 341 636 341 678 c 0
 341 738 391 790 450 790 c 0
443 750 m 0
 411 750 379 720 379 688 c 0
 379 664 398 646 424 646 c 0
 456 646 490 677 490 706 c 0
 490 730 469 750 443 750 c 0
EndSplineSet
Ligature: 0 0 'liga' u uni030A
EndChar
StartChar: uhungarumlaut
Encoding: 367 369 261
Width: 608
Flags: W
HStem: -13 68<290 312> 527 20G<163 237 572 646>
VStem: 99 77<155 185>
DStem: 163 547 237 547 108 252 182 252 417 780 448 730 225 658 254 608 486 85 646 547 470 0 544 0 572 547 646 547 519 266 544 0 613 780 643 730 420 658 449 608
Fore
646 547 m 1
 544 0 l 1
 470 0 l 1
 486 85 l 1
 433 15 377 -13 290 -13 c 0
 174 -13 99 53 99 155 c 0
 99 183 103 224 108 252 c 1
 163 547 l 1
 237 547 l 1
 182 252 l 1
 180 239 176 200 176 185 c 0
 176 156 185 122 197 103 c 0
 216 74 261 55 310 55 c 0
 366 55 419 79 459 123 c 0
 490 157 505 194 519 266 c 1
 572 547 l 1
 646 547 l 1
225 658 m 1
 417 780 l 1
 448 730 l 1
 254 608 l 1
 225 658 l 1
420 658 m 1
 613 780 l 1
 643 730 l 1
 449 608 l 1
 420 658 l 1
EndSplineSet
Ligature: 0 0 'liga' u uni030B
EndChar
StartChar: yacute
Encoding: 368 253 262
Width: 536
Flags: W
HStem: 527 20G<110 191 549 628>
DStem: 110 547 191 547 224 18 283 111 224 18 628 547 97 -192 175 -192 493 782 517 724 279 666 303 610 549 547 628 547 283 111 175 -192
Fore
97 -192 m 1
 224 18 l 1
 110 547 l 1
 191 547 l 1
 283 111 l 1
 549 547 l 1
 628 547 l 1
 175 -192 l 1
 97 -192 l 1
279 666 m 1
 493 782 l 1
 517 724 l 1
 303 610 l 1
 279 666 l 1
EndSplineSet
Ligature: 0 0 'liga' y acutecomb
EndChar
StartChar: zacute
Encoding: 369 378 263
Width: 425
Flags: W
HStem: 0 67<109 415> 480 67<120 401>
DStem: 401 480 486 484 22 67 109 67 437 782 461 724 223 666 247 610
Fore
10 0 m 1
 22 67 l 1
 401 480 l 1
 109 480 l 1
 121 547 l 1
 497 547 l 1
 486 484 l 1
 109 67 l 1
 427 67 l 1
 415 0 l 1
 10 0 l 1
223 666 m 1
 437 782 l 1
 461 724 l 1
 247 610 l 1
 223 666 l 1
EndSplineSet
Ligature: 0 0 'liga' z acutecomb
EndChar
StartChar: zcaron
Encoding: 370 382 264
Width: 425
Flags: W
HStem: 0 67<109 415> 480 67<120 401> 729 20G<173 262 436 527>
DStem: 173 749 262 749 293 623 334 675 401 480 486 484 22 67 109 67 436 749 527 749 334 675 359 623
Fore
10 0 m 1
 22 67 l 1
 401 480 l 1
 109 480 l 1
 121 547 l 1
 497 547 l 1
 486 484 l 1
 109 67 l 1
 427 67 l 1
 415 0 l 1
 10 0 l 1
527 749 m 1
 359 623 l 1
 293 623 l 1
 173 749 l 1
 262 749 l 1
 334 675 l 1
 436 749 l 1
 527 749 l 1
EndSplineSet
Ligature: 0 0 'liga' z uni030C
EndChar
StartChar: zdotaccent
Encoding: 371 380 265
Width: 425
Flags: W
HStem: 0 67<109 415> 480 67<120 401> 729 20G<313 387>
DStem: 313 749 387 749 290 623 364 623 401 480 486 484 22 67 109 67
Fore
10 0 m 1
 22 67 l 1
 401 480 l 1
 109 480 l 1
 121 547 l 1
 497 547 l 1
 486 484 l 1
 109 67 l 1
 427 67 l 1
 415 0 l 1
 10 0 l 1
313 749 m 1
 387 749 l 1
 364 623 l 1
 290 623 l 1
 313 749 l 1
EndSplineSet
Ligature: 0 0 'liga' z uni0307
EndChar
StartChar: ydieresis
Encoding: 372 255 266
Width: 536
Flags: W
HStem: 527 20G<110 191 549 628> 729 20G<291 365 438 512>
DStem: 110 547 191 547 224 18 283 111 224 18 628 547 97 -192 175 -192 291 749 365 749 268 623 342 623 438 749 512 749 415 623 489 623 549 547 628 547 283 111 175 -192
Fore
97 -192 m 1
 224 18 l 1
 110 547 l 1
 191 547 l 1
 283 111 l 1
 549 547 l 1
 628 547 l 1
 175 -192 l 1
 97 -192 l 1
291 749 m 1
 365 749 l 1
 342 623 l 1
 268 623 l 1
 291 749 l 1
438 749 m 1
 512 749 l 1
 489 623 l 1
 415 623 l 1
 438 749 l 1
EndSplineSet
Ligature: 0 0 'liga' y uni0308
EndChar
StartChar: tcommaaccent
Encoding: 373 355 267
Width: 339
Flags: W
HStem: 0 21G<124 198> 480 67<112 213 299 416> 719 20G<261 335>
DStem: 124 -53 198 -53 40 -232 111 -232 213 480 287 480 124 0 198 0 261 739 335 739 225 547 299 547
Fore
124 0 m 1
 213 480 l 1
 101 480 l 1
 113 547 l 1
 225 547 l 1
 261 739 l 1
 335 739 l 1
 299 547 l 1
 428 547 l 1
 416 480 l 1
 287 480 l 1
 198 0 l 1
 124 0 l 1
40 -232 m 1
 124 -53 l 1
 198 -53 l 1
 111 -232 l 1
 40 -232 l 1
EndSplineSet
Ligature: 0 0 'liga' t uni0327
EndChar
StartChar: amacron
Encoding: 374 257 268
Width: 683
Flags: W
HStem: -13 68<327 361> 492 68<423 441> 651 62<298 624>
VStem: 88 77<214 237>
DStem: 564 96 721 547 546 0 620 0 647 547 721 547 629 450 620 0
Fore
721 547 m 1
 620 0 l 1
 546 0 l 1
 564 96 l 1
 483 14 426 -13 333 -13 c 0
 186 -13 88 79 88 216 c 0
 88 401 248 560 434 560 c 0
 486 560 532 548 568 524 c 0
 595 506 609 489 629 450 c 1
 647 547 l 1
 721 547 l 1
427 492 m 0
 288 492 165 371 165 235 c 0
 165 128 239 55 348 55 c 0
 481 55 601 181 601 319 c 0
 601 419 527 492 427 492 c 0
299 713 m 1
 636 713 l 1
 624 651 l 1
 287 651 l 1
 299 713 l 1
EndSplineSet
Ligature: 0 0 'liga' a uni0304
EndChar
StartChar: emacron
Encoding: 375 275 269
Width: 650
Flags: W
HStem: -13 68<323 345> 249 67<176 656> 492 68<407 430> 651 62<282 608>
VStem: 88 71<210 228>
Fore
656 249 m 1
 161 249 l 1
 160 237 159 228 159 221 c 0
 159 128 238 55 338 55 c 0
 420 55 509 107 552 180 c 1
 629 180 l 1
 565 62 446 -13 325 -13 c 0
 189 -13 88 86 88 220 c 0
 88 400 248 560 428 560 c 0
 567 560 665 466 665 332 c 0
 665 308 663 289 656 249 c 1
176 316 m 1
 595 316 l 1
 590 424 521 492 415 492 c 0
 311 492 212 419 176 316 c 1
283 713 m 1
 620 713 l 1
 608 651 l 1
 271 651 l 1
 283 713 l 1
EndSplineSet
Ligature: 0 0 'liga' e uni0304
EndChar
StartChar: imacron
Encoding: 376 299 270
Width: 200
Flags: W
HStem: 0 21G<64 138> 527 20G<165 239> 651 62<57 383>
DStem: 165 547 239 547 64 0 138 0
Fore
64 0 m 1
 165 547 l 1
 239 547 l 1
 138 0 l 1
 64 0 l 1
58 713 m 1
 395 713 l 1
 383 651 l 1
 46 651 l 1
 58 713 l 1
EndSplineSet
Ligature: 0 0 'liga' i uni0304
EndChar
StartChar: kcommaaccent
Encoding: 377 311 271
Width: 502
Flags: W
HStem: 0 21G<63 137 405 497> 527 20G<493 584> 719 20G<200 274>
DStem: 200 739 274 739 63 0 177 215 200 739 158 113 63 0 137 0 226 -53 300 -53 142 -232 213 -232 264 219 320 272 405 0 497 0 493 547 584 547 177 215 320 272 493 547 264 219 177 215 158 113
Fore
63 0 m 1
 200 739 l 1
 274 739 l 1
 177 215 l 1
 493 547 l 1
 584 547 l 1
 320 272 l 1
 497 0 l 1
 405 0 l 1
 264 219 l 1
 158 113 l 1
 137 0 l 1
 63 0 l 1
142 -232 m 1
 226 -53 l 1
 300 -53 l 1
 213 -232 l 1
 142 -232 l 1
EndSplineSet
Ligature: 0 0 'liga' k uni0327
EndChar
StartChar: lcommaaccent
Encoding: 378 316 272
Width: 200
Flags: W
HStem: 0 21G<63 137> 719 20G<200 274>
DStem: 75 -53 149 -53 -9 -232 62 -232 200 739 274 739 63 0 137 0
Fore
63 0 m 1
 200 739 l 1
 274 739 l 1
 137 0 l 1
 63 0 l 1
-9 -232 m 1
 75 -53 l 1
 149 -53 l 1
 62 -232 l 1
 -9 -232 l 1
EndSplineSet
Ligature: 0 0 'liga' l uni0327
EndChar
StartChar: ncommaaccent
Encoding: 379 326 273
Width: 610
Flags: W
HStem: 0 21G<63 137 471 545> 492 68<391 413>
VStem: 532 77<359 379>
DStem: 164 547 193 301 63 0 137 0 280 -53 354 -53 196 -232 267 -232 524 287 598 287 471 0 545 0
Fore
63 0 m 1
 164 547 l 1
 238 547 l 1
 225 476 l 1
 284 533 345 560 413 560 c 0
 533 560 609 489 609 379 c 0
 609 353 607 334 598 287 c 1
 545 0 l 1
 471 0 l 1
 524 287 l 2
 529 315 532 341 532 361 c 0
 532 441 478 492 393 492 c 0
 338 492 280 466 244 425 c 0
 217 394 205 364 193 301 c 1
 137 0 l 1
 63 0 l 1
196 -232 m 1
 280 -53 l 1
 354 -53 l 1
 267 -232 l 1
 196 -232 l 1
EndSplineSet
Ligature: 0 0 'liga' n uni0327
EndChar
StartChar: omacron
Encoding: 380 333 274
Width: 655
Flags: W
HStem: -13 68<326 360> 492 68<420 440> 651 62<284 610>
VStem: 87 77<210 230> 592 77<306 340>
Fore
435 560 m 0
 574 560 669 468 669 332 c 0
 669 246 634 159 573 95 c 0
 505 23 425 -13 333 -13 c 0
 188 -13 87 80 87 215 c 0
 87 298 122 384 180 447 c 0
 249 521 337 560 435 560 c 0
422 492 m 0
 282 492 164 371 164 228 c 0
 164 125 236 55 343 55 c 0
 482 55 592 174 592 325 c 0
 592 422 520 492 422 492 c 0
285 713 m 1
 622 713 l 1
 610 651 l 1
 273 651 l 1
 285 713 l 1
EndSplineSet
Ligature: 0 0 'liga' o uni0304
EndChar
StartChar: rcommaaccent
Encoding: 381 343 275
Width: 301
Flags: W
HStem: 0 21G<63 137> 527 20G<164 238>
DStem: 84 -53 158 -53 0 -232 71 -232 164 547 238 547 63 0 224 469 164 547 196 319 63 0 137 0
Fore
63 0 m 1
 164 547 l 1
 238 547 l 1
 224 469 l 1
 264 529 312 555 396 560 c 1
 382 487 l 1
 277 476 215 420 196 319 c 1
 137 0 l 1
 63 0 l 1
0 -232 m 1
 84 -53 l 1
 158 -53 l 1
 71 -232 l 1
 0 -232 l 1
EndSplineSet
Ligature: 0 0 'liga' r uni0327
EndChar
StartChar: umacron
Encoding: 382 363 276
Width: 608
Flags: W
HStem: -13 68<290 312> 527 20G<163 237 572 646> 651 62<261 587>
VStem: 99 77<155 185>
DStem: 163 547 237 547 108 252 182 252 486 85 646 547 470 0 544 0 572 547 646 547 519 266 544 0
Fore
646 547 m 1
 544 0 l 1
 470 0 l 1
 486 85 l 1
 433 15 377 -13 290 -13 c 0
 174 -13 99 53 99 155 c 0
 99 183 103 224 108 252 c 1
 163 547 l 1
 237 547 l 1
 182 252 l 1
 180 239 176 200 176 185 c 0
 176 156 185 122 197 103 c 0
 216 74 261 55 310 55 c 0
 366 55 419 79 459 123 c 0
 490 157 505 194 519 266 c 1
 572 547 l 1
 646 547 l 1
262 713 m 1
 599 713 l 1
 587 651 l 1
 250 651 l 1
 262 713 l 1
EndSplineSet
Ligature: 0 0 'liga' u uni0304
EndChar
StartChar: uogonek
Encoding: 383 371 277
Width: 608
Flags: W
HStem: -195 47<486 501> -13 68<290 312> 527 20G<163 237 572 646>
VStem: 99 77<155 185> 398 51<-116 -106>
DStem: 163 547 237 547 108 252 182 252 486 85 646 547 470 0 544 0 572 547 646 547 519 266 544 0
Fore
237 547 m 1
 182 252 l 1
 180 239 176 200 176 185 c 0
 176 156 185 122 197 103 c 0
 216 74 261 55 310 55 c 0
 366 55 419 79 459 123 c 0
 490 157 505 194 519 266 c 1
 572 547 l 1
 646 547 l 1
 544 0 l 1
 484 -35 449 -75 449 -108 c 0
 449 -132 469 -148 499 -148 c 0
 517 -148 534 -144 548 -137 c 1
 540 -182 l 1
 521 -191 505 -195 489 -195 c 0
 437 -195 398 -159 398 -112 c 0
 398 -70 430 -32 492 0 c 1
 470 0 l 1
 486 85 l 1
 433 15 377 -13 290 -13 c 0
 174 -13 99 53 99 155 c 0
 99 183 103 224 108 252 c 1
 163 547 l 1
 237 547 l 1
EndSplineSet
Ligature: 0 0 'liga' u uni0328
EndChar
StartChar: rcaron
Encoding: 384 345 278
Width: 301
Flags: W
HStem: 0 21G<63 137> 527 20G<164 238> 729 20G<111 200 374 465>
DStem: 111 749 200 749 231 623 272 675 164 547 238 547 63 0 224 469 164 547 196 319 63 0 137 0 374 749 465 749 272 675 297 623
Fore
63 0 m 1
 164 547 l 1
 238 547 l 1
 224 469 l 1
 264 529 312 555 396 560 c 1
 382 487 l 1
 277 476 215 420 196 319 c 1
 137 0 l 1
 63 0 l 1
465 749 m 1
 297 623 l 1
 231 623 l 1
 111 749 l 1
 200 749 l 1
 272 675 l 1
 374 749 l 1
 465 749 l 1
EndSplineSet
Ligature: 0 0 'liga' r uni030C
EndChar
StartChar: scedilla
Encoding: 385 351 279
Width: 388
Flags: W
HStem: -227 46<152 164> -85 33<180 196> -13 68<189 204> 492 68<282 298>
VStem: 45 74<143 160.963> 110 77<380 400> 217 43<-132 -114> 315 77<167 189> 349 76<412 442>
DStem: 154 -10 189 -13 104 -92 162 -60
Fore
189 -13 m 1xf7
 162 -60 l 1
 177 -54 184 -52 196 -52 c 0
 236 -52 260 -76 260 -116 c 0
 260 -180 216 -227 156 -227 c 0
 108 -227 81 -201 78 -153 c 1
 123 -148 l 1
 128 -171 140 -181 162 -181 c 0
 194 -181 217 -157 217 -123 c 0
 217 -101 201 -85 180 -85 c 0
 162 -85 147 -92 130 -109 c 1
 104 -92 l 1
 154 -10 l 1
 125 -4 109 2 91 17 c 0
 62 40 43 81 43 117 c 0
 43 123 44 132 45 143 c 0
 45 146 45 153 46 161 c 1
 119 161 l 1
 119 119 121 106 130 91 c 0
 144 68 170 55 202 55 c 0
 263 55 315 107 315 167 c 0xfb
 315 209 301 223 227 255 c 0
 167 281 152 290 136 308 c 0
 121 326 110 355 110 380 c 0
 110 418 131 468 159 499 c 0
 195 538 246 560 298 560 c 0
 371 560 425 510 425 442 c 0
 425 434 425 423 424 412 c 1
 349 412 l 1xf680
 349 467 329 492 284 492 c 0
 234 492 187 447 187 400 c 0
 187 375 201 354 225 341 c 0
 238 334 255 326 320 297 c 0
 371 273 392 241 392 189 c 0
 392 130 365 73 317 33 c 0
 278 1 242 -12 189 -13 c 1xf7
EndSplineSet
Ligature: 0 0 'liga' s uni0327
EndChar
StartChar: gcommaaccent
Encoding: 386 291 280
Width: 673
Flags: W
HStem: -215 68<293 317> -37 20G<60 132> -13 68<315 349> 492 68<411 428>
VStem: 87 77<216 238>
DStem: 501 792 572 792 414 613 488 613 637 547 711 547 619 450 627 98
Fore
711 547 m 1
 627 98 l 1
 605 -18 586 -65 537 -117 c 0
 478 -180 392 -215 295 -215 c 0
 207 -215 139 -184 96 -124 c 0
 78 -99 69 -71 60 -17 c 1
 132 -17 l 1
 135 -24 136 -27 137 -29 c 0
 156 -77 163 -88 185 -107 c 0
 216 -134 257 -147 309 -147 c 0
 393 -147 462 -112 504 -48 c 0
 526 -15 539 20 549 74 c 2
 556 111 l 1
 503 30 423 -13 325 -13 c 0
 186 -13 87 83 87 219 c 0
 87 294 122 381 176 443 c 0
 243 520 329 560 426 560 c 0
 479 560 525 547 561 520 c 0
 582 505 593 491 619 450 c 1
 637 547 l 1
 711 547 l 1
415 492 m 0
 338 492 271 458 220 392 c 0
 186 348 164 288 164 236 c 0
 164 196 177 150 198 119 c 0
 225 79 276 55 337 55 c 0
 419 55 492 95 542 169 c 0
 574 217 592 273 592 325 c 0
 592 421 517 492 415 492 c 0
572 792 m 1
 488 613 l 1
 414 613 l 1
 501 792 l 1
 572 792 l 1
EndSplineSet
Ligature: 0 0 'liga' g uni0327
EndChar
StartChar: iogonek
Encoding: 387 303 281
Width: 200
Flags: W
HStem: -195 47<80 94> -20 20G<63 85> 527 20G<164 238> 719 20G<200 274>
VStem: -9 51<-116 -106>
DStem: 164 547 238 547 63 0 137 0 200 739 274 739 177 613 251 613
Fore
238 547 m 1
 137 0 l 1
 77 -35 42 -75 42 -108 c 0
 42 -132 62 -148 92 -148 c 0
 110 -148 127 -144 141 -137 c 1
 133 -182 l 1
 114 -191 98 -195 82 -195 c 0
 30 -195 -9 -159 -9 -112 c 0
 -9 -70 23 -32 85 0 c 1
 63 0 l 1
 164 547 l 1
 238 547 l 1
177 613 m 1
 200 739 l 1
 274 739 l 1
 251 613 l 1
 177 613 l 1
EndSplineSet
Ligature: 0 0 'liga' i uni0328
EndChar
StartChar: Scommaaccent
Encoding: 388 536 282
Width: 498
Flags: W
HStem: -13 68<247 266> 552 21G<484 561> 684 68<375 393>
VStem: 56 81<165 207> 145 77<518 537> 441 77<230 248> 484 80<552 590>
DStem: 224 -53 298 -53 140 -232 211 -232
Fore
58 207 m 1xfc
 137 207 l 1
 137 160 142 133 155 110 c 0
 174 76 216 55 264 55 c 0
 360 55 441 136 441 232 c 0xfc
 441 293 408 323 302 356 c 0
 228 379 198 395 176 422 c 0
 157 445 145 484 145 520 c 0
 145 570 169 627 207 671 c 0
 252 723 319 752 391 752 c 0
 495 752 564 688 564 590 c 0
 564 580 563 570 561 552 c 1
 484 552 l 1xfa
 484 600 480 620 466 640 c 0
 446 669 415 684 378 684 c 0
 330 684 286 663 258 627 c 0
 237 599 222 559 222 531 c 0
 222 511 232 481 244 469 c 0
 258 454 273 447 345 423 c 0
 429 394 464 376 486 347 c 0
 507 321 518 286 518 246 c 0
 518 188 493 127 450 78 c 0
 397 19 328 -13 249 -13 c 0
 135 -13 56 60 56 165 c 0
 56 177 57 191 58 207 c 1xfc
140 -232 m 1
 224 -53 l 1
 298 -53 l 1
 211 -232 l 1
 140 -232 l 1
EndSplineSet
Ligature: 0 0 'liga' S uni0326
EndChar
StartChar: Eth
Encoding: 389 208 283
Width: 790
Flags: W
HStem: 0 67<209 350> 347 67<104 186 272 466> 672 67<259 468>
VStem: 743 77<431 453>
DStem: 186 347 260 347 122 0 209 67 259 739 321 672 198 414 272 414
Fore
122 0 m 1
 186 347 l 1
 93 347 l 1
 105 414 l 1
 198 414 l 1
 259 739 l 1
 433 739 l 2
 566 739 643 723 702 681 c 0
 781 627 820 550 820 451 c 0
 820 311 762 188 655 102 c 0
 565 30 468 0 321 0 c 2
 122 0 l 1
209 67 m 1
 312 67 l 2
 465 67 552 94 628 165 c 0
 699 231 743 336 743 435 c 0
 743 517 710 584 650 625 c 0
 602 657 532 672 424 672 c 2
 321 672 l 1
 272 414 l 1
 478 414 l 1
 466 347 l 1
 260 347 l 1
 209 67 l 1
EndSplineSet
EndChar
StartChar: Dcroat
Encoding: 390 272 284
Width: 790
Flags: W
HStem: 0 67<209 350> 347 67<104 186 272 466> 672 67<259 468>
VStem: 743 77<431 453>
DStem: 186 347 260 347 122 0 209 67 259 739 321 672 198 414 272 414
Fore
122 0 m 1
 186 347 l 1
 93 347 l 1
 105 414 l 1
 198 414 l 1
 259 739 l 1
 433 739 l 2
 566 739 643 723 702 681 c 0
 781 627 820 550 820 451 c 0
 820 311 762 188 655 102 c 0
 565 30 468 0 321 0 c 2
 122 0 l 1
209 67 m 1
 312 67 l 2
 465 67 552 94 628 165 c 0
 699 231 743 336 743 435 c 0
 743 517 710 584 650 625 c 0
 602 657 532 672 424 672 c 2
 321 672 l 1
 272 414 l 1
 478 414 l 1
 466 347 l 1
 260 347 l 1
 209 67 l 1
EndSplineSet
EndChar
StartChar: Thorn
Encoding: 391 222 285
Width: 592
Flags: W
HStem: 0 21G<76 150> 152 67<190 354> 525 67<260 397> 719 20G<213 287>
VStem: 560 77<409 427>
DStem: 213 739 287 739 76 0 260 592 213 739 247 525 76 0 190 219 213 739 178 152 76 0 150 0
Fore
260 592 m 1
 390 592 l 2
 564 592 637 543 637 425 c 0
 637 349 608 273 559 224 c 0
 507 172 440 152 319 152 c 2
 178 152 l 1
 150 0 l 1
 76 0 l 1
 213 739 l 1
 287 739 l 1
 260 592 l 1
190 219 m 1
 327 219 l 2
 423 219 473 234 509 272 c 0
 540 305 560 360 560 411 c 0
 560 452 543 485 513 503 c 0
 487 519 439 525 352 525 c 2
 247 525 l 1
 190 219 l 1
EndSplineSet
EndChar
StartChar: dcroat
Encoding: 392 273 286
Width: 685
Flags: W
HStem: -13 68<333 361> 492 68<420 440> 602 63<519 660 745 797> 719 20G<685 759>
VStem: 88 77<215 238>
DStem: 566 99 734 602 548 0 622 0 660 602 734 602 633 460 622 0 685 739 759 739 672 665 745 665
Fore
734 602 m 1
 622 0 l 1
 548 0 l 1
 566 99 l 1
 495 19 429 -13 335 -13 c 0
 192 -13 88 84 88 217 c 0
 88 400 251 560 438 560 c 0
 524 560 587 528 633 460 c 1
 660 602 l 1
 508 602 l 1
 520 665 l 1
 672 665 l 1
 685 739 l 1
 759 739 l 1
 745 665 l 1
 808 665 l 1
 797 602 l 1
 734 602 l 1
422 492 m 0
 288 492 165 370 165 236 c 0
 165 128 240 55 350 55 c 0
 482 55 606 182 606 318 c 0
 606 417 527 492 422 492 c 0
EndSplineSet
EndChar
StartChar: eth
Encoding: 393 240 287
Width: 655
Flags: W
HStem: -13 68<326 358> 492 65<402 441>
VStem: 87 77<210 244> 596 77<318 346>
Fore
356 719 m 1
 411 756 l 1
 427 743 429 742 451 719 c 0
 456 713 463 707 469 701 c 1
 569 741 l 1
 598 696 l 1
 505 659 l 1
 542 621 563 596 598 548 c 0
 653 470 673 417 673 346 c 0
 673 147 521 -13 332 -13 c 0
 184 -13 87 79 87 220 c 0
 87 399 244 557 422 557 c 0
 455 557 474 554 513 540 c 1
 439 632 l 1
 344 592 l 1
 316 637 l 1
 402 674 l 1
 356 719 l 1
425 492 m 0
 283 492 164 372 164 229 c 0
 164 124 235 55 345 55 c 0
 483 55 596 174 596 319 c 0
 596 421 526 492 425 492 c 0
EndSplineSet
EndChar
StartChar: thorn
Encoding: 394 254 288
Width: 682
Flags: W
HStem: -13 68<346 364> 492 68<436 460> 719 20G<200 274>
VStem: 618 77<303 337>
DStem: 200 739 274 739 27 -192 221 453 200 739 154 94 27 -192 101 -192
Fore
200 739 m 1
 274 739 l 1
 221 453 l 1
 271 519 361 560 455 560 c 0
 599 560 695 465 695 325 c 0
 695 148 531 -13 350 -13 c 0
 257 -13 191 23 154 94 c 1
 101 -192 l 1
 27 -192 l 1
 200 739 l 1
438 492 m 0
 363 492 285 453 232 387 c 0
 197 344 177 286 177 227 c 0
 177 129 253 55 355 55 c 0
 431 55 502 89 555 150 c 0
 592 192 618 261 618 317 c 0
 618 419 543 492 438 492 c 0
EndSplineSet
EndChar
StartChar: Euro
Encoding: 395 8364 289
Width: 554
Flags: W
HStem: -13 65<287 321> 272 59<2 64 145 413> 400 59<25 85 175 491> 686 66<411 453>
VStem: 64 75<226 272>
Fore
-9 400 m 1
 26 459 l 1
 101 459 l 1
 141 566 170 618 218 663 c 0
 279 722 352 752 436 752 c 0
 479 752 520 743 551 725 c 1
 586 707 606 684 638 628 c 1
 595 561 l 1
 550 655 509 686 429 686 c 0
 359 686 296 656 249 601 c 1
 226 572 203 528 175 459 c 1
 526 459 l 1
 491 400 l 1
 158 400 l 1
 150 369 149 364 145 331 c 1
 448 331 l 1
 413 272 l 1
 139 272 l 1
 139 245 l 2
 139 121 198 52 304 52 c 0
 361 52 401 66 453 103 c 0
 467 113 475 120 510 148 c 1
 496 62 l 1
 439 12 374 -13 298 -13 c 0
 173 -13 98 44 72 159 c 0
 65 190 64 195 64 272 c 1
 -32 272 l 1
 3 331 l 1
 71 331 l 1
 75 363 76 368 85 400 c 1
 -9 400 l 1
EndSplineSet
EndChar
StartChar: onesuperior
Encoding: 396 185 290
Width: 332
Flags: W
HStem: 687 52<235 303>
DStem: 303 687 370 739 231 297 289 297
Fore
231 297 m 1
 303 687 l 1
 227 687 l 1
 236 739 l 1
 370 739 l 1
 289 297 l 1
 231 297 l 1
EndSplineSet
EndChar
StartChar: twosuperior
Encoding: 397 178 291
Width: 332
Flags: W
HStem: 297 52<159 373> 695 52<290 310>
VStem: 377 58<616 636>
DStem: 267 492 320 470 76 346 159 349
Fore
67 297 m 1
 76 346 l 1
 267 492 l 2
 323 535 333 543 350 562 c 0
 367 582 377 606 377 629 c 0
 377 668 344 695 296 695 c 0
 259 695 226 679 205 650 c 0
 194 635 188 620 182 588 c 1
 125 588 l 1
 140 686 210 747 308 747 c 0
 384 747 435 702 435 634 c 0
 435 577 406 535 320 470 c 2
 159 349 l 1
 382 349 l 1
 373 297 l 1
 67 297 l 1
EndSplineSet
EndChar
StartChar: threesuperior
Encoding: 398 179 292
Width: 332
Flags: W
HStem: 289 52<216 238> 522 51<234 272> 695 52<295 307>
VStem: 345 58<441 458> 353 58<640 655>
Fore
215 620 m 1xe8
 158 620 l 1
 169 694 231 747 305 747 c 0
 370 747 411 710 411 653 c 0xe8
 411 610 386 570 347 550 c 1
 384 531 403 499 403 456 c 0
 403 369 317 289 222 289 c 0
 177 289 138 305 116 332 c 0
 102 349 91 380 91 402 c 0
 91 405 92 415 93 429 c 0
 94 431 94 437 94 443 c 1
 151 443 l 1
 151 418 l 1
 150 414 l 1
 146 376 183 341 230 341 c 0
 290 341 345 390 345 444 c 0xf0
 345 487 319 515 272 521 c 0
 268 522 268 522 247 522 c 0
 244 522 240 522 234 523 c 2
 225 523 l 1
 235 573 l 1
 248 573 l 2
 254 572 258 572 259 572 c 0
 314 572 353 602 353 644 c 0
 353 676 332 695 297 695 c 0
 252 695 223 669 215 620 c 1xe8
EndSplineSet
EndChar
StartChar: degree
Encoding: 399 176 293
Width: 400
Flags: W
HStem: 381 57<309 318> 624 57<300 318>
VStem: 157 57<532 542> 405 57<531 542>
Fore
312 681 m 0
 394 681 462 613 462 531 c 0
 462 448 394 381 309 381 c 0
 225 381 157 448 157 532 c 0
 157 615 226 681 312 681 c 0
311 624 m 0
 257 624 214 583 214 532 c 0
 214 480 257 438 309 438 c 0
 362 438 405 480 405 531 c 0
 405 581 362 624 311 624 c 0
EndSplineSet
EndChar
StartChar: minus
Encoding: 400 8722 294
Width: 606
Flags: W
HStem: 267 74<113 604>
Fore
618 341 m 1
 604 267 l 1
 100 267 l 1
 114 341 l 1
 618 341 l 1
EndSplineSet
EndChar
StartChar: multiply
Encoding: 401 215 295
Width: 606
Flags: W
DStem: 129 520 188 570 306 303 365 353 306 303 353 246 70 104 117 47 353 246 412 296 530 29 589 78 602 552 648 495 365 353 412 296
Fore
412 296 m 1
 589 78 l 1
 530 29 l 1
 353 246 l 1
 117 47 l 1
 70 104 l 1
 306 303 l 1
 129 520 l 1
 188 570 l 1
 365 353 l 1
 602 552 l 1
 648 495 l 1
 412 296 l 1
EndSplineSet
EndChar
StartChar: divide
Encoding: 402 247 296
Width: 606
Flags: W
HStem: 267 74<113 604>
DStem: 296 199 383 199 280 112 367 112 351 496 438 496 335 409 422 409
Fore
422 409 m 1
 335 409 l 1
 351 496 l 1
 438 496 l 1
 422 409 l 1
367 112 m 1
 280 112 l 1
 296 199 l 1
 383 199 l 1
 367 112 l 1
618 341 m 1
 604 267 l 1
 100 267 l 1
 114 341 l 1
 618 341 l 1
EndSplineSet
EndChar
StartChar: trademark
Encoding: 403 8482 297
Width: 1000
Flags: W
HStem: 679 60<199 331 200 539>
DStem: 331 679 396 679 268 338 333 338 598 737 652 683 524 338 588 338 652 683 707 737 739 338 781 453 969 737 1001 683 781 453 782 338 1001 683 1075 737 937 338 1001 338
Fore
1075 737 m 1
 1001 338 l 1
 937 338 l 1
 1001 683 l 1
 782 338 l 1
 739 338 l 1
 652 683 l 1
 588 338 l 1
 524 338 l 1
 598 737 l 1
 707 737 l 1
 781 453 l 1
 969 737 l 1
 1075 737 l 1
550 739 m 1
 539 679 l 1
 396 679 l 1
 333 338 l 1
 268 338 l 1
 331 679 l 1
 189 679 l 1
 200 739 l 1
 550 739 l 1
EndSplineSet
Ligature: 0 1 'liga' T M
EndChar
StartChar: plusminus
Encoding: 404 177 298
Width: 606
Flags: W
HStem: 0 74<64 555> 320 74<123 324 415 614>
DStem: 324 320 401 320 293 149 370 149 378 610 455 610 338 394 415 394
Fore
338 394 m 1
 378 610 l 1
 455 610 l 1
 415 394 l 1
 628 394 l 1
 614 320 l 1
 401 320 l 1
 370 149 l 1
 293 149 l 1
 324 320 l 1
 110 320 l 1
 124 394 l 1
 338 394 l 1
569 74 m 1
 555 0 l 1
 51 0 l 1
 65 74 l 1
 569 74 l 1
EndSplineSet
EndChar
StartChar: onehalf
Encoding: 405 189 299
Width: 831
Flags: W
HStem: 0 52<598 812> 398 52<733 749> 687 52<232 300>
VStem: 816 58<319 339>
DStem: 300 687 367 739 228 297 286 297 686 739 740 739 207 0 261 0 706 195 759 173 515 49 598 52
Fore
207 0 m 1
 686 739 l 1
 740 739 l 1
 261 0 l 1
 207 0 l 1
228 297 m 1
 300 687 l 1
 224 687 l 1
 233 739 l 1
 367 739 l 1
 286 297 l 1
 228 297 l 1
506 0 m 1
 515 49 l 1
 706 195 l 2
 762 238 772 246 789 265 c 0
 806 285 816 309 816 332 c 0
 816 371 783 398 735 398 c 0
 698 398 665 382 644 353 c 0
 633 338 627 323 621 291 c 1
 564 291 l 1
 579 389 649 450 747 450 c 0
 823 450 874 405 874 337 c 0
 874 280 845 238 759 173 c 2
 598 52 l 1
 821 52 l 1
 812 0 l 1
 506 0 l 1
EndSplineSet
Ligature: 0 1 'frac' one slash two
Ligature: 0 1 'frac' one fraction two
EndChar
StartChar: onequarter
Encoding: 406 188 300
Width: 831
Flags: W
HStem: 0 131<564 759> 79 52<564 716 783 816> 687 52<242 310>
DStem: 310 687 377 739 238 297 296 297 696 739 750 739 217 0 271 0 716 79 774 79 701 0 759 0 768 358 841 442 725 131 783 131 778 442 768 358 493 127 564 131
Fore
701 0 m 1xa0
 716 79 l 1
 484 79 l 1
 493 127 l 1
 778 442 l 1
 841 442 l 1
 783 131 l 1
 825 131 l 1
 816 79 l 1
 774 79 l 1x60
 759 0 l 1
 701 0 l 1xa0
725 131 m 1xa0
 768 358 l 1
 564 131 l 1
 725 131 l 1xa0
217 0 m 1
 696 739 l 1
 750 739 l 1
 271 0 l 1
 217 0 l 1
238 297 m 1
 310 687 l 1
 234 687 l 1
 243 739 l 1
 377 739 l 1
 296 297 l 1
 238 297 l 1
EndSplineSet
Ligature: 0 1 'frac' one slash four
Ligature: 0 1 'frac' one fraction four
EndChar
StartChar: threequarters
Encoding: 407 190 301
Width: 831
Flags: W
HStem: 0 131<564 759> 79 52<564 716 783 816> 289 52<216 238> 522 51<234 272> 695 52<295 307>
VStem: 345 58<440 458> 353 58<639 655>
DStem: 706 739 760 739 227 0 281 0 716 79 774 79 701 0 759 0 768 358 841 442 725 131 783 131 778 442 768 358 493 127 564 131
Fore
701 0 m 1xb8
 716 79 l 1
 484 79 l 1
 493 127 l 1
 778 442 l 1
 841 442 l 1
 783 131 l 1
 825 131 l 1
 816 79 l 1
 774 79 l 1x78
 759 0 l 1
 701 0 l 1xb8
725 131 m 1xb8
 768 358 l 1
 564 131 l 1
 725 131 l 1xb8
227 0 m 1
 706 739 l 1
 760 739 l 1
 281 0 l 1
 227 0 l 1
215 620 m 1
 158 620 l 1
 169 694 231 747 305 747 c 0
 370 747 411 710 411 653 c 0x3a
 411 610 386 570 347 550 c 1
 384 531 403 499 403 456 c 0
 403 369 317 289 222 289 c 0
 177 289 138 305 116 332 c 0
 102 349 91 380 91 402 c 0
 91 405 92 415 93 429 c 0
 94 431 94 437 94 443 c 1
 151 443 l 1
 151 418 l 1
 150 414 l 1
 146 376 183 341 230 341 c 0
 290 341 345 390 345 444 c 0x3c
 345 487 319 515 272 521 c 0
 268 522 268 522 247 522 c 0
 244 522 240 522 234 523 c 2
 225 523 l 1
 235 573 l 1
 246 573 l 2
 253 572 257 572 259 572 c 0
 314 572 353 602 353 644 c 0x3a
 353 676 332 695 297 695 c 0
 252 695 223 669 215 620 c 1
EndSplineSet
Ligature: 0 1 'frac' three slash four
Ligature: 0 1 'frac' three fraction four
EndChar
StartChar: commaaccent
Encoding: 408 63171 302
Width: 351
Flags: W
DStem: 150 -53 224 -53 66 -232 137 -232
Fore
66 -232 m 1
 150 -53 l 1
 224 -53 l 1
 137 -232 l 1
 66 -232 l 1
EndSplineSet
EndChar
StartChar: copyright
Encoding: 409 169 303
Width: 747
Flags: W
HStem: -13 52<356 390> 148 58<404 424> 536 58<482 502> 700 52<484 518>
VStem: 53 58<290 331> 228 62<329 343> 772 58<418 452>
Fore
549 261 m 1
 624 261 l 1
 572 190 491 148 408 148 c 0
 306 148 228 227 228 331 c 0
 228 468 355 594 493 594 c 0
 577 594 639 552 668 477 c 1
 594 477 l 1
 567 517 531 536 484 536 c 0
 383 536 290 442 290 341 c 0
 290 264 346 206 422 206 c 0
 466 206 510 225 549 261 c 1
512 752 m 0
 697 752 830 621 830 440 c 0
 830 205 610 -13 372 -13 c 0
 185 -13 53 118 53 303 c 0
 53 535 275 752 512 752 c 0
502 700 m 0
 301 700 111 511 111 311 c 0
 111 152 223 39 382 39 c 0
 584 39 772 228 772 431 c 0
 772 587 659 700 502 700 c 0
EndSplineSet
EndChar
StartChar: registered
Encoding: 410 174 304
Width: 747
Flags: W
HStem: -13 52<356 390> 527 60<360 495> 700 52<484 518>
VStem: 53 58<290 324> 560 64<461 477> 772 58<418 452>
DStem: 360 587 410 527 281 157 380 365 360 587 379 359 281 157 342 157 379 359 472 317 486 157 562 157
Fore
562 157 m 1
 486 157 l 1
 379 359 l 1
 342 157 l 1
 281 157 l 1
 360 587 l 1
 493 587 l 2
 580 587 624 550 624 477 c 0
 624 431 603 385 569 355 c 0
 543 333 518 323 472 317 c 1
 562 157 l 1
380 365 m 1
 424 365 l 2
 508 365 560 402 560 463 c 0
 560 503 529 527 478 527 c 2
 410 527 l 1
 380 365 l 1
512 752 m 0
 697 752 830 621 830 440 c 0
 830 205 610 -13 372 -13 c 0
 185 -13 53 118 53 303 c 0
 53 535 275 752 512 752 c 0
502 700 m 0
 301 700 111 511 111 311 c 0
 111 152 223 39 382 39 c 0
 584 39 772 228 772 431 c 0
 772 587 659 700 502 700 c 0
EndSplineSet
EndChar
StartChar: lozenge
Encoding: 411 9674 305
Width: 494
Flags: W
HStem: 0 21G<209 269> 720 20G<351 414>
DStem: 88 377 151 376 209 0 251 58 351 740 372 683 88 377 151 376 372 683 414 740 472 374 535 374 472 374 535 374 251 58 269 0
Fore
209 0 m 1
 88 377 l 1
 351 740 l 1
 414 740 l 1
 535 374 l 1
 269 0 l 1
 209 0 l 1
251 58 m 1
 472 374 l 1
 372 683 l 1
 151 376 l 1
 251 58 l 1
EndSplineSet
EndChar
StartChar: Delta
Encoding: 412 8710 306
Width: 612
Flags: W
HStem: 0 51<86 608>
DStem: 384 509 454 688 489 51 608 0 454 688 384 509 6 0 86 51
Fore
6 0 m 1
 454 688 l 1
 608 0 l 1
 6 0 l 1
86 51 m 1
 489 51 l 1
 384 509 l 1
 86 51 l 1
EndSplineSet
EndChar
StartChar: notequal
Encoding: 413 8800 307
Width: 606
Flags: W
HStem: 164 74<95 224 358 586> 362 74<131 360 494 623>
DStem: 224 164 307 164 163 76 223 42 360 362 443 362 275 238 358 238 495 558 555 524 411 436 494 436
Fore
443 362 m 1
 358 238 l 1
 600 238 l 1
 586 164 l 1
 307 164 l 1
 223 42 l 1
 163 76 l 1
 224 164 l 1
 82 164 l 1
 96 238 l 1
 275 238 l 1
 360 362 l 1
 119 362 l 1
 132 436 l 1
 411 436 l 1
 495 558 l 1
 555 524 l 1
 494 436 l 1
 636 436 l 1
 623 362 l 1
 443 362 l 1
EndSplineSet
Ligature: 0 1 'liga' equal uni0338
EndChar
StartChar: radical
Encoding: 414 8730 308
Width: 549
Flags: W
DStem: 206 461 252 520 356 -35 374 126 252 520 206 461 93 449 103 414 647 913 683 908 374 126 356 -35
Fore
356 -35 m 1
 206 461 l 1
 103 414 l 1
 93 449 l 1
 252 520 l 1
 374 126 l 1
 647 913 l 1
 683 908 l 1
 356 -35 l 1
EndSplineSet
EndChar
StartChar: lessequal
Encoding: 415 8804 309
Width: 549
Flags: W
HStem: 0 74<39 530>
DStem: 90 347 202 379 551 112 566 194 650 646 635 565 102 411 202 379
Fore
102 411 m 1
 650 646 l 1
 635 565 l 1
 202 379 l 1
 566 194 l 1
 551 112 l 1
 90 347 l 1
 102 411 l 1
544 74 m 1
 530 0 l 1
 26 0 l 1
 40 74 l 1
 544 74 l 1
EndSplineSet
EndChar
StartChar: greaterequal
Encoding: 416 8805 310
Width: 549
Flags: W
HStem: 0 74<39 530>
DStem: 131 565 146 646 494 379 606 411 494 379 594 347 62 194 47 112
Fore
606 411 m 1
 594 347 l 1
 47 112 l 1
 62 194 l 1
 494 379 l 1
 131 565 l 1
 146 646 l 1
 606 411 l 1
544 74 m 1
 530 0 l 1
 26 0 l 1
 40 74 l 1
 544 74 l 1
EndSplineSet
EndChar
StartChar: logicalnot
Encoding: 417 172 311
Width: 606
Flags: W
HStem: 363 73<130 549>
DStem: 549 363 636 436 509 148 583 148
Fore
131 436 m 1
 636 436 l 1
 583 148 l 1
 509 148 l 1
 549 363 l 1
 118 363 l 1
 131 436 l 1
EndSplineSet
EndChar
StartChar: summation
Encoding: 418 8721 312
Width: 713
Flags: W
HStem: -123 112<161 618> 587 165<162 741> 711 41<162 600>
DStem: 162 752 308 711 309 285 427 341 309 285 427 341 -9 -123 161 -11
Fore
308 711 m 1xa0
 427 341 l 1
 161 -11 l 1
 489 -11 l 2
 605 -11 638 5 685 87 c 1
 711 87 l 1
 618 -123 l 1
 -9 -123 l 1
 309 285 l 1
 162 752 l 1xc0
 761 752 l 1xa0
 741 587 l 1
 715 587 l 1xc0
 715 600 l 2
 715 688 686 711 575 711 c 2
 308 711 l 1xa0
EndSplineSet
EndChar
StartChar: partialdiff
Encoding: 419 8706 313
Width: 494
Flags: W
HStem: -10 31<198 217> 367 45<297 329> 706 47<330 353>
VStem: 56 82<109 145> 471 74<496 544>
Fore
231 674 m 1
 200 725 l 1
 259 745 295 753 334 753 c 0
 458 753 545 648 545 496 c 0
 545 399 509 272 451 161 c 0
 393 53 305 -10 211 -10 c 0
 122 -10 56 56 56 145 c 0
 56 204 84 272 130 325 c 0
 181 383 237 412 297 412 c 0
 348 412 381 396 436 346 c 1
 463 438 471 484 471 544 c 0
 471 650 429 706 351 706 c 0
 315 706 281 697 231 674 c 1
423 312 m 1
 420 316 420 316 416 320 c 0
 391 352 363 367 329 367 c 0
 233 367 138 238 138 109 c 0
 138 54 162 21 204 21 c 0
 248 21 297 53 334 107 c 0
 368 158 387 201 423 312 c 1
EndSplineSet
EndChar
StartChar: brokenbar
Encoding: 420 166 314
Width: 672
Flags: W
HStem: 0 21G<304 368> 719 20G<441 505>
DStem: 359 295 423 295 304 0 368 0 441 739 505 739 386 444 450 444
Fore
505 739 m 1
 450 444 l 1
 386 444 l 1
 441 739 l 1
 505 739 l 1
423 295 m 1
 368 0 l 1
 304 0 l 1
 359 295 l 1
 423 295 l 1
EndSplineSet
EndChar
StartChar: mu
Encoding: 421 181 315
Width: 608
Flags: W
HStem: -13 68<314 332> 527 20G<164 238 572 646>
DStem: 164 547 238 547 27 -192 186 266 164 547 154 94 27 -192 101 -192 486 85 646 547 470 0 544 0 572 547 646 547 519 266 544 0
Fore
572 547 m 1
 646 547 l 1
 544 0 l 1
 470 0 l 1
 486 85 l 1
 441 15 394 -13 319 -13 c 0
 242 -13 190 21 154 94 c 1
 101 -192 l 1
 27 -192 l 1
 164 547 l 1
 238 547 l 1
 186 266 l 2
 182 244 179 216 179 198 c 0
 179 103 229 55 328 55 c 0
 384 55 429 78 466 123 c 0
 493 157 504 185 519 266 c 1
 572 547 l 1
EndSplineSet
EndChar
StartChar: afii10017
Encoding: 422 1040 316
Width: 740
Flags: W
HStem: 0 21G<11 89 648 729> 249 67<284 587> 719 20G<465 548>
DStem: 465 739 491 655 11 0 284 316 465 739 243 249 11 0 89 0 491 655 548 739 571 316 729 0 587 249 548 739 648 0 729 0
Fore
11 0 m 1
 465 739 l 1
 548 739 l 1
 729 0 l 1
 648 0 l 1
 587 249 l 1
 243 249 l 1
 89 0 l 1
 11 0 l 1
284 316 m 1
 571 316 l 1
 491 655 l 1
 284 316 l 1
EndSplineSet
EndChar
StartChar: afii10018
Encoding: 423 1041 317
Width: 602
Flags: W
HStem: 0 67<163 285> 407 67<242 365> 672 67<220 671>
VStem: 553 77<271 298>
DStem: 220 739 281 672 76 0 242 474 220 739 229 407 76 0 163 67
Back
276 672 m 1
 237 474 l 1
 346 474 l 2
 531.509 474 624.589 422.15 624.589 298.256 c 0
 624.589 279.227 622.393 258.5 618 236 c 4
 586 70 467 0 254 0 c 2
 71 0 l 1
 215 739 l 1
 679 739 l 1
 666 672 l 1
 276 672 l 1
224 407 m 1
 158 67 l 1
 262 67 l 2
 418 67 517 104 543 236 c 4
 546.136 252.164 547.672 266.917 547.672 280.364 c 0
 547.672 378.388 466.061 407 328 407 c 2
 224 407 l 1
EndSplineSet
Fore
281 672 m 5
 242 474 l 5
 351 474 l 6
 537 474 630 422 630 298 c 4
 630 110 493 0 259 0 c 6
 76 0 l 5
 220 739 l 5
 684 739 l 5
 671 672 l 5
 281 672 l 5
229 407 m 5
 163 67 l 5
 267 67 l 6
 441 67 553 133 553 280 c 4
 553 378 471 407 333 407 c 6
 229 407 l 5
EndSplineSet
EndChar
StartChar: afii10019
Encoding: 424 1042 318
Width: 606
Flags: W
HStem: 0 67<163 317> 354 65<232 381> 672 67<220 429>
VStem: 544 76<239 263> 567 76<575 592>
DStem: 220 739 281 672 76 0 232 419 220 739 219 354 76 0 163 67
Back
71 0 m 1xf4
 215 739 l 1
 418 739 l 2
 508 739 560 726 596 696 c 0
 623.539 672.286 638.204 635.112 638.204 590.298 c 0
 638.204 576.53 636.82 562.041 634 547 c 4xf8
 619 474 583 420 519 394 c 1
 584.381 371.399 615.231 325.343 615.231 261.09 c 0
 615.231 245.741 613.471 229.354 610 212 c 4
 581 59 474 0 281 0 c 2
 71 0 l 1xf4
158 67 m 1
 289 67 l 2
 416 67 512 94 535 208 c 4xf4
 537.596 221.804 538.883 234.383 538.883 245.834 c 0
 538.883 331.439 466.948 354 332 354 c 2
 214 354 l 1
 158 67 l 1
227 419 m 1
 347 419 l 2
 460 419 538 441 558 546 c 4xf8
 560.481 558.76 561.692 570.263 561.692 580.629 c 0
 561.692 658.002 494.232 672 384 672 c 2
 276 672 l 1
 227 419 l 1
EndSplineSet
Fore
76 0 m 5xf0
 220 739 l 5
 423 739 l 6
 513 739 565 726 601 696 c 4
 629 672 643 635 643 590 c 4xe8
 643 500 593 422 524 394 c 5
 589 371 620 325 620 261 c 4
 620 96 494 0 286 0 c 6
 76 0 l 5xf0
163 67 m 5
 294 67 l 6
 437 67 544 115 544 246 c 4xf0
 544 331 472 354 337 354 c 6
 219 354 l 5
 163 67 l 5
232 419 m 5
 352 419 l 6
 482 419 567 465 567 581 c 4xe8
 567 658 499 672 389 672 c 6
 281 672 l 5
 232 419 l 5
EndSplineSet
EndChar
StartChar: afii10020
Encoding: 425 1043 319
Width: 525
Flags: W
HStem: 0 21G<76 150> 672 67<213 616>
DStem: 213 739 275 672 76 0 150 0
Fore
76 0 m 1
 213 739 l 1
 628 739 l 5
 616 672 l 5
 275 672 l 1
 150 0 l 1
 76 0 l 1
EndSplineSet
EndChar
StartChar: afii10021
Encoding: 426 1044 320
Width: 966
Flags: W
HStem: 0 73<74 871> 719 20G<604 676>
DStem: 74 73 133 0 32 -154 104 -154 604 739 622 647 205 73 284 73 622 647 676 739 746 73 826 73 871 0 957 73 842 -154 915 -154
Fore
32 -154 m 1
 74 73 l 1
 205 73 l 1
 604 739 l 1
 676 739 l 1
 826 73 l 1
 957 73 l 1
 915 -154 l 1
 842 -154 l 1
 871 0 l 1
 133 0 l 1
 104 -154 l 1
 32 -154 l 1
746 73 m 1
 622 647 l 1
 284 73 l 1
 746 73 l 1
EndSplineSet
EndChar
StartChar: afii10022
Encoding: 427 1045 321
Width: 536
Flags: W
HStem: 0 67<162 480> 340 67<225 532> 672 67<213 605>
DStem: 213 739 275 672 76 0 225 407 213 739 213 340 76 0 162 67
Fore
76 0 m 1
 213 739 l 1
 617 739 l 1
 605 672 l 1
 275 672 l 1
 225 407 l 1
 544 407 l 1
 532 340 l 1
 213 340 l 1
 162 67 l 1
 492 67 l 1
 480 0 l 1
 76 0 l 1
EndSplineSet
EndChar
StartChar: afii10023
Encoding: 428 1025 322
Width: 536
Flags: W
HStem: 0 67<162 480> 340 67<225 532> 672 67<213 605>
DStem: 213 739 275 672 76 0 225 407 213 739 213 340 76 0 162 67 337 931 411 931 314 805 388 805 484 931 558 931 461 805 535 805
Fore
76 0 m 1
 213 739 l 1
 617 739 l 1
 605 672 l 1
 275 672 l 1
 225 407 l 1
 544 407 l 1
 532 340 l 1
 213 340 l 1
 162 67 l 1
 492 67 l 1
 480 0 l 1
 76 0 l 1
337 931 m 1
 411 931 l 1
 388 805 l 1
 314 805 l 1
 337 931 l 1
484 931 m 1
 558 931 l 1
 535 805 l 1
 461 805 l 1
 484 931 l 1
EndSplineSet
Ligature: 0 1 'liga' afii10022 uni0308
LCarets: 0 65535 '    ' 1 0 
EndChar
StartChar: afii10024
Encoding: 429 1046 323
Width: 927
Flags: W
HStem: 0 21G<60 149 455 529 828 921> 719 20G<198 291 592 666 970 1058>
DStem: 198 739 291 739 420 360 509 360 420 360 509 360 60 0 149 0 592 739 666 739 455 0 529 0 610 379 699 379 828 0 921 0 970 739 1058 739 610 379 699 379
Fore
509 360 m 1
 149 0 l 1
 60 0 l 1
 420 360 l 1
 198 739 l 1
 291 739 l 1
 509 360 l 1
529 0 m 1
 455 0 l 1
 592 739 l 1
 666 739 l 1
 529 0 l 1
610 379 m 1
 970 739 l 1
 1058 739 l 1
 699 379 l 1
 921 0 l 1
 828 0 l 1
 610 379 l 1
EndSplineSet
EndChar
StartChar: afii10025
Encoding: 430 1047 324
Width: 673
Flags: W
HStem: -13 68<278 305> 357 67<301 431> 549 21G<112 187> 684 68<414 446>
VStem: 544 77<226 250> 590 78<569 585>
Back
89 194 m 1xf4
 102 154 169 55 299 55 c 0
 419 55 520 96 541 206 c 4xf4
 543.115 216.81 544.126 227.165 544.126 237.022 c 0
 544.126 311.051 487.13 357 413 357 c 2
 289 357 l 1
 302 424 l 1
 428 424 l 2
 509 424 574 476 588 549 c 0
 589.436 556.516 590.122 563.726 590.122 570.626 c 0
 590.122 645.441 509.4 684 427 684 c 0
 257 684 187 549 187 549 c 1
 112 549 l 1
 112 549 200 752 444 752 c 0
 560.315 752 668.373 689.242 668.373 583.237 c 0
 668.373 572.588 667.282 561.502 665 550 c 0xf8
 650 474 599 419 536 387 c 1
 578.768 373.314 620.805 320.85 620.805 248.384 c 0
 620.805 236.131 619.603 223.306 617 210 c 4
 588 60 466 -13 280 -13 c 0
 68 -13 13 160 10 194 c 1
 89 194 l 1xf4
EndSplineSet
Fore
89 194 m 1xf8
 102 154 169 55 299 55 c 0
 428 55 544 113 544 237 c 0xf8
 544 311 487 357 413 357 c 2
 289 357 l 1
 302 424 l 1
 428 424 l 2
 513 424 590 489 590 571 c 0
 590 645 509 684 427 684 c 0
 257 684 187 549 187 549 c 1
 112 549 l 1
 112 549 200 752 444 752 c 0
 560 752 668 689 668 583 c 0xf4
 668 493 602 420 536 387 c 1
 579 373 621 321 621 248 c 0
 621 85 467 -13 280 -13 c 0
 68 -13 13 160 10 194 c 1
 89 194 l 1xf8
EndSplineSet
EndChar
StartChar: afii10026
Encoding: 431 1048 325
Width: 740
Flags: W
HStem: 0 21G<76 150 590 664> 719 20G<213 290 701 801>
DStem: 213 739 290 739 76 0 174 126 701 739 710 650 174 126 150 0 710 650 801 739 590 0 664 0
Fore
701 739 m 1
 801 739 l 1
 664 0 l 1
 590 0 l 1
 710 650 l 1
 150 0 l 1
 76 0 l 1
 213 739 l 1
 290 739 l 1
 174 126 l 1
 701 739 l 1
EndSplineSet
EndChar
StartChar: afii10028
Encoding: 433 1050 327
Width: 552
Flags: W
HStem: 0 21G<76 150 453 555> 719 20G<213 287 590 683>
DStem: 213 739 287 739 76 0 150 0 235 379 333 379 453 0 555 0 590 739 683 739 235 379 333 379
Fore
150 0 m 1
 76 0 l 1
 213 739 l 1
 287 739 l 1
 150 0 l 1
235 379 m 1
 590 739 l 1
 683 739 l 1
 333 379 l 1
 555 0 l 1
 453 0 l 1
 235 379 l 1
EndSplineSet
EndChar
StartChar: afii10029
Encoding: 434 1051 328
Width: 702
Flags: W
HStem: 0 21G<80 160 681 762> 719 20G<523 595>
DStem: 523 739 541 647 80 0 160 0 541 647 595 739 681 0 762 0
Fore
595 739 m 1
 762 0 l 1
 681 0 l 1
 541 647 l 1
 160 0 l 1
 80 0 l 1
 523 739 l 1
 595 739 l 1
EndSplineSet
EndChar
StartChar: afii10030
Encoding: 435 1052 329
Width: 919
Flags: W
HStem: 0 21G<76 150 427 491 769 843> 719 20G<213 328 865 980>
DStem: 213 739 272 658 76 0 150 0 272 658 328 739 427 0 480 110 865 739 891 658 480 110 491 0 891 658 980 739 769 0 843 0
Fore
76 0 m 1
 213 739 l 1
 328 739 l 1
 480 110 l 1
 865 739 l 1
 980 739 l 1
 843 0 l 1
 769 0 l 1
 891 658 l 1
 491 0 l 1
 427 0 l 1
 272 658 l 1
 150 0 l 1
 76 0 l 1
EndSplineSet
EndChar
StartChar: afii10031
Encoding: 436 1053 330
Width: 683
Flags: W
HStem: 0 21G<76 150 533 607> 347 67<227 597> 719 20G<213 287 670 744>
DStem: 213 739 287 739 76 0 227 414 213 739 214 347 76 0 150 0 597 347 744 739 533 0 607 0 670 739 744 739 610 414 607 0
Fore
76 0 m 1
 213 739 l 1
 287 739 l 1
 227 414 l 1
 610 414 l 1
 670 739 l 1
 744 739 l 1
 607 0 l 1
 533 0 l 1
 597 347 l 1
 214 347 l 1
 150 0 l 1
 76 0 l 1
EndSplineSet
EndChar
StartChar: afii10032
Encoding: 437 1054 331
Width: 869
Flags: W
HStem: -13 68<425 442> 684 68<553 580>
VStem: 106 77<300 324> 823 77<418 438>
Fore
578 752 m 0
 681 752 779 705 839 626 c 0
 880 571 900 511 900 436 c 0
 900 203 673 -13 428 -13 c 0
 325 -13 223 36 166 113 c 0
 128 164 106 234 106 302 c 0
 106 536 333 752 578 752 c 0
560 684 m 0
 369 684 183 503 183 316 c 0
 183 170 296 55 440 55 c 0
 638 55 823 232 823 422 c 0
 823 574 713 684 560 684 c 0
EndSplineSet
EndChar
StartChar: afii10033
Encoding: 438 1055 332
Width: 683
Flags: W
HStem: 0 21G<76 150 533 607> 672 67<213 657>
DStem: 213 739 274 672 76 0 150 0 657 672 744 739 533 0 607 0
Fore
76 0 m 1
 213 739 l 1
 744 739 l 1
 607 0 l 1
 533 0 l 1
 657 672 l 1
 274 672 l 1
 150 0 l 1
 76 0 l 1
EndSplineSet
EndChar
StartChar: afii10034
Encoding: 439 1056 333
Width: 592
Flags: W
HStem: 0 21G<76 150> 299 67<218 382> 672 67<213 429>
VStem: 588 77<556 574>
DStem: 213 739 275 672 76 0 218 366 213 739 205 299 76 0 150 0
Fore
76 0 m 1
 213 739 l 1
 418 739 l 2
 592 739 665 690 665 572 c 0
 665 496 636 420 587 371 c 0
 535 319 468 299 347 299 c 2
 205 299 l 1
 150 0 l 1
 76 0 l 1
218 366 m 1
 355 366 l 2
 451 366 501 381 537 419 c 0
 568 452 588 507 588 558 c 0
 588 599 571 632 541 650 c 0
 515 666 467 672 380 672 c 2
 275 672 l 1
 218 366 l 1
EndSplineSet
EndChar
StartChar: afii10035
Encoding: 440 1057 334
Width: 813
Flags: W
HStem: -13 68<425 459> 547 21G<787 869> 684 68<553 571>
VStem: 106 77<288 312>
Fore
725 194 m 1
 807 194 l 1
 718 63 581 -13 432 -13 c 0
 239 -13 106 111 106 290 c 0
 106 540 319 752 569 752 c 0
 721 752 843 669 869 547 c 1
 787 547 l 1
 767 592 751 613 723 635 c 0
 680 667 623 684 559 684 c 0
 443 684 337 630 263 534 c 0
 210 465 183 388 183 310 c 0
 183 162 293 55 444 55 c 0
 548 55 639 100 725 194 c 1
EndSplineSet
EndChar
StartChar: afii10036
Encoding: 441 1058 335
Width: 426
Flags: W
HStem: 0 21G<176 250> 672 67<143 301 144 544>
DStem: 301 672 375 672 176 0 250 0
Fore
176 0 m 1
 301 672 l 1
 132 672 l 1
 144 739 l 1
 556 739 l 1
 544 672 l 1
 375 672 l 1
 250 0 l 1
 176 0 l 1
EndSplineSet
EndChar
StartChar: afii10037
Encoding: 442 1059 336
Width: 592
Flags: W
HStem: 0 21G<122 203> 719 20G<139 221 646 727>
DStem: 139 739 221 739 297 252 354 325 646 739 727 739 354 325 203 0
Fore
122 0 m 1
 297 252 l 1
 139 739 l 1
 221 739 l 1
 354 325 l 1
 646 739 l 1
 727 739 l 1
 203 0 l 1
 122 0 l 1
EndSplineSet
EndChar
StartChar: afii10038
Encoding: 443 1060 337
Width: 938
Flags: W
HStem: -60 144<428 488> 16 68<425 444 503 523> 713 68<553 576 637 658> 713 109<584 658>
VStem: 106 77<323 357> 892 77<450 468>
DStem: 429 16 503 16 414 -60 488 -60 564 713 637 713 444 84 517 84
Fore
414 -60 m 1x8c
 429 16 l 1
 327 17 227 64 167 142 c 0
 126 197 106 257 106 332 c 0
 106 564 332 780 576 781 c 1x6c
 584 822 l 1
 658 822 l 1x1c
 649 781 l 1
 751 780 852 732 909 655 c 0
 947 604 969 534 969 466 c 0
 969 233 747 17 503 16 c 1x6c
 488 -60 l 1
 414 -60 l 1x8c
564 713 m 1
 367 712 183 535 183 346 c 0
 183 195 292 85 444 84 c 1xac
 564 713 l 1
637 713 m 1
 517 84 l 1x6c
 707 85 892 266 892 452 c 0
 892 597 780 712 637 713 c 1
EndSplineSet
EndChar
StartChar: afii10039
Encoding: 444 1061 338
Width: 609
Flags: W
HStem: 0 21G<8 95 513 601> 719 20G<159 246 637 723>
DStem: 159 739 246 739 329 378 387 443 329 378 364 316 8 0 95 0 364 316 419 378 513 0 601 0 637 739 723 739 387 443 419 378
Fore
8 0 m 1
 329 378 l 1
 159 739 l 1
 246 739 l 1
 387 443 l 1
 637 739 l 1
 723 739 l 1
 419 378 l 1
 601 0 l 1
 513 0 l 1
 364 316 l 1
 95 0 l 1
 8 0 l 1
EndSplineSet
EndChar
